<svg width="319" height="20" viewBox="0 0 319 20" fill="none" xmlns="http://www.w3.org/2000/svg">
<path d="M14.6738 9.71045V16.7539C14.3971 17.0876 13.9699 17.4497 13.3921 17.8403C12.8143 18.2228 12.0697 18.5524 11.1582 18.8291C10.2467 19.1058 9.14404 19.2441 7.8501 19.2441C6.70264 19.2441 5.6569 19.057 4.71289 18.6826C3.76888 18.3001 2.95508 17.7427 2.27148 17.0103C1.59603 16.2778 1.0752 15.3826 0.708984 14.3247C0.342773 13.2586 0.159668 12.042 0.159668 10.6748V9.56396C0.159668 8.19678 0.334635 6.98014 0.68457 5.91406C1.04264 4.84798 1.55127 3.94873 2.21045 3.21631C2.86963 2.48389 3.65495 1.92643 4.56641 1.54395C5.47786 1.16146 6.49105 0.970215 7.60596 0.970215C9.15218 0.970215 10.4217 1.22249 11.4146 1.72705C12.4074 2.22347 13.1642 2.9152 13.6851 3.80225C14.214 4.68115 14.5396 5.69027 14.6616 6.82959H11.1094C11.0199 6.22738 10.849 5.70247 10.5967 5.25488C10.3444 4.80729 9.98226 4.45736 9.51025 4.20508C9.04639 3.9528 8.44417 3.82666 7.70361 3.82666C7.09326 3.82666 6.54801 3.9528 6.06787 4.20508C5.59587 4.44922 5.1971 4.81136 4.87158 5.2915C4.54606 5.77165 4.29785 6.36572 4.12695 7.07373C3.95605 7.78174 3.87061 8.60368 3.87061 9.53955V10.6748C3.87061 11.6025 3.96012 12.4245 4.13916 13.1406C4.3182 13.8486 4.58268 14.4468 4.93262 14.9351C5.29069 15.4152 5.73014 15.7773 6.25098 16.0215C6.77181 16.2656 7.37809 16.3877 8.06982 16.3877C8.64762 16.3877 9.12777 16.3389 9.51025 16.2412C9.90088 16.1436 10.2142 16.0256 10.4502 15.8872C10.6943 15.7407 10.8815 15.6024 11.0117 15.4722V12.3228H7.66699V9.71045H14.6738ZM42.0542 16.1436V19H32.5938V16.1436H42.0542ZM33.79 1.22656V19H30.1279V1.22656H33.79ZM40.8213 8.46533V11.2485H32.5938V8.46533H40.8213ZM42.042 1.22656V4.09521H32.5938V1.22656H42.042ZM56.6904 1.22656H63.3188C64.6779 1.22656 65.8457 1.43001 66.8223 1.83691C67.807 2.24382 68.5638 2.84603 69.0928 3.64355C69.6217 4.44108 69.8862 5.42171 69.8862 6.58545C69.8862 7.5376 69.7235 8.35547 69.3979 9.03906C69.0806 9.71452 68.6289 10.2801 68.043 10.7358C67.4652 11.1834 66.7856 11.5415 66.0044 11.8101L64.8447 12.4204H59.083L59.0586 9.56396H63.3433C63.9862 9.56396 64.5192 9.45003 64.9424 9.22217C65.3656 8.9943 65.6829 8.67692 65.8945 8.27002C66.1143 7.86312 66.2241 7.39111 66.2241 6.854C66.2241 6.28434 66.1183 5.79199 65.9067 5.37695C65.6951 4.96191 65.3737 4.64453 64.9424 4.4248C64.5111 4.20508 63.9699 4.09521 63.3188 4.09521H60.3525V19H56.6904V1.22656ZM66.627 19L62.5742 11.0776L66.4438 11.0532L70.5454 18.8291V19H66.627ZM86.8784 1.22656H89.979L94.5444 14.2759L99.1099 1.22656H102.21L95.7896 19H93.2993L86.8784 1.22656ZM85.2061 1.22656H88.2944L88.856 13.9463V19H85.2061V1.22656ZM100.794 1.22656H103.895V19H100.233V13.9463L100.794 1.22656ZM127.052 4.26611L122.218 19H118.324L124.928 1.22656H127.406L127.052 4.26611ZM131.068 19L126.222 4.26611L125.831 1.22656H128.333L134.974 19H131.068ZM130.848 12.3838V15.2524H121.461V12.3838H130.848ZM163.587 1.22656V19H159.925L152.784 7.08594V19H149.122V1.22656H152.784L159.938 13.1528V1.22656H163.587Z" fill="#F5544D"/>
<path d="M184.144 10.5283V11.7856H178.297V10.5283H184.144ZM205.58 1.22656V19H204.09V1.22656H205.58ZM211.671 1.22656V2.52051H198.011V1.22656H211.671ZM245.611 17.7183V19H235.614V17.7183H245.611ZM236.065 1.22656V19H234.564V1.22656H236.065ZM244.366 9.19775V10.4795H235.614V9.19775H244.366ZM245.55 1.22656V2.52051H235.614V1.22656H245.55ZM279.869 13.458H281.371C281.249 14.6543 280.919 15.6878 280.382 16.5586C279.845 17.4212 279.112 18.0845 278.185 18.5483C277.257 19.0122 276.138 19.2441 274.828 19.2441C273.819 19.2441 272.903 19.0529 272.081 18.6704C271.267 18.2879 270.567 17.7467 269.981 17.0469C269.396 16.3389 268.944 15.4925 268.626 14.5078C268.309 13.5231 268.15 12.4285 268.15 11.2241V9.00244C268.15 7.79801 268.309 6.70752 268.626 5.73096C268.944 4.74626 269.4 3.8999 269.994 3.19189C270.588 2.48389 271.3 1.93864 272.13 1.55615C272.96 1.17367 273.896 0.982422 274.938 0.982422C276.199 0.982422 277.289 1.21436 278.209 1.67822C279.129 2.13395 279.853 2.79313 280.382 3.65576C280.919 4.51839 281.249 5.56006 281.371 6.78076H279.869C279.755 5.82048 279.503 5.00667 279.112 4.33936C278.722 3.67204 278.181 3.16341 277.489 2.81348C276.805 2.4554 275.955 2.27637 274.938 2.27637C274.107 2.27637 273.367 2.43506 272.716 2.75244C272.065 3.06982 271.511 3.52555 271.056 4.11963C270.6 4.70557 270.25 5.40951 270.006 6.23145C269.77 7.05339 269.652 7.96891 269.652 8.97803V11.2241C269.652 12.2007 269.766 13.0999 269.994 13.9219C270.222 14.7438 270.555 15.4559 270.995 16.0581C271.442 16.6603 271.987 17.1283 272.63 17.4619C273.273 17.7956 274.006 17.9624 274.828 17.9624C275.877 17.9624 276.752 17.7956 277.452 17.4619C278.16 17.1201 278.709 16.6156 279.1 15.9482C279.491 15.2809 279.747 14.4508 279.869 13.458ZM316.983 9.19775V10.4795H306.18V9.19775H316.983ZM306.534 1.22656V19H305.033V1.22656H306.534ZM318.192 1.22656V19H316.69V1.22656H318.192Z" fill="#2E2E2E"/>
</svg>
