<?xml version="1.0" encoding="utf-8"?>
<!-- Generator: Adobe Illustrator 26.0.3, SVG Export Plug-In . SVG Version: 6.00 Build 0)  -->
<svg version="1.1" id="Camada_1" xmlns="http://www.w3.org/2000/svg" xmlns:xlink="http://www.w3.org/1999/xlink" x="0px" y="0px"
	 viewBox="0 0 571 613" style="enable-background:new 0 0 571 613;" xml:space="preserve">
<style type="text/css">
	.st0{clip-path:url(#SVGID_00000048473328307953004780000012359262303933518266_);}
	.st1{fill:#E5F4FD;}
	.st2{fill:#FFFFFF;}
	.st3{opacity:0.5;fill:#FFFFFF;enable-background:new    ;}
	.st4{fill:url(#SVGID_00000065773684654025978730000004681964009081804179_);}
	.st5{fill:url(#SVGID_00000036226054826749962160000007777681462383574175_);}
	.st6{fill:url(#SVGID_00000029011181984838459610000007103300529108025254_);}
	.st7{fill:url(#SVGID_00000119097831617355063150000016133992743780566413_);}
	.st8{fill:url(#SVGID_00000027576696851743256630000007174915561022671765_);}
	.st9{opacity:0.3;fill:url(#SVGID_00000101816678074547496510000009894038341575244947_);enable-background:new    ;}
	.st10{opacity:0.3;fill:url(#SVGID_00000115473733271848396770000013920147264012033676_);enable-background:new    ;}
	.st11{fill:url(#SVGID_00000146482685412649174510000015866533189568774841_);}
	.st12{fill:url(#SVGID_00000150784903688625707430000016375912093188161452_);}
	.st13{opacity:0.3;fill:url(#SVGID_00000163055447892331575150000002038285490704441779_);enable-background:new    ;}
	.st14{fill:url(#SVGID_00000096033281937154762320000008932356411464062088_);}
	.st15{fill:url(#SVGID_00000078026529588668517040000003004717157567530880_);}
	.st16{opacity:0.5;fill:url(#SVGID_00000151502350107767904170000009580150751848829063_);enable-background:new    ;}
	.st17{fill:url(#SVGID_00000061439337533038188710000008618886138588089527_);}
	.st18{fill:url(#SVGID_00000070084287369914085760000008156997898651531396_);}
	.st19{fill:url(#SVGID_00000112618869352236911780000010067609435281112506_);}
	.st20{fill:url(#SVGID_00000059275023737123339490000017482862703957074342_);}
	.st21{fill:url(#SVGID_00000067947475884637575090000016325427190327298176_);}
	.st22{fill:url(#SVGID_00000078732318135471755060000004954491576065990074_);}
	.st23{fill:url(#SVGID_00000021812769306900576480000016119747227404801684_);}
	.st24{fill:url(#SVGID_00000088101657590160959630000009670875752467276700_);}
	.st25{fill:#DFE2F3;}
	.st26{fill:url(#SVGID_00000009565079764863249260000008506696203913341097_);}
	.st27{opacity:0.3;fill:url(#SVGID_00000008858408564090658210000009856594394322810254_);enable-background:new    ;}
	.st28{fill:url(#SVGID_00000068666518296308287360000006802963213981456272_);}
	.st29{opacity:0.5;fill:url(#SVGID_00000123429860739239703200000013536461697351599773_);enable-background:new    ;}
	.st30{fill:url(#SVGID_00000016057138684231579710000011578202829247800473_);}
	.st31{fill:url(#SVGID_00000165936191805347634500000010469651048708981669_);}
	.st32{fill:url(#SVGID_00000122680219535713755090000015284933329091612555_);}
	.st33{fill:url(#SVGID_00000079449891190086442880000009612941343763726488_);}
	.st34{opacity:0.5;fill:url(#SVGID_00000001663331845660531200000005072185956734659223_);enable-background:new    ;}
	.st35{fill:url(#SVGID_00000014622627483489873580000012821455903369464990_);}
	.st36{fill:url(#SVGID_00000129925179460102486760000007648862567915049141_);}
	.st37{fill:url(#SVGID_00000149366264282933437960000017135637345440730041_);}
	.st38{fill:#3195CE;}
	.st39{fill:url(#SVGID_00000061443846297359797430000006354022991351146398_);}
	.st40{fill:url(#SVGID_00000070815343314557458490000013687855003163686817_);}
	.st41{opacity:0.5;fill:url(#SVGID_00000170265261470447076950000006448766607237432223_);enable-background:new    ;}
	.st42{opacity:0.5;fill:url(#SVGID_00000054244219641750804160000010481682560998409363_);enable-background:new    ;}
	.st43{opacity:0.3;fill:url(#SVGID_00000129913984489689171020000015906531102414262939_);enable-background:new    ;}
	.st44{opacity:0.3;fill:url(#SVGID_00000137089997069944005300000014725376744962555824_);enable-background:new    ;}
	.st45{fill:url(#SVGID_00000088131723262179378050000007463551241293884574_);}
	.st46{fill:url(#SVGID_00000181784848961068407110000003737957784174149029_);}
	.st47{opacity:0.5;fill:url(#SVGID_00000023996400960757540970000007696697179039667600_);enable-background:new    ;}
	.st48{opacity:0.72;fill:url(#SVGID_00000036232951673653417490000012828527009907675030_);enable-background:new    ;}
	.st49{opacity:0.3;fill:url(#SVGID_00000050629525022581312720000006240497827009153205_);enable-background:new    ;}
	.st50{fill:url(#SVGID_00000135687163498234488550000010967354468831141793_);}
	.st51{fill:url(#SVGID_00000051372074710224893980000016153865010477190837_);}
	.st52{opacity:0.5;fill:url(#SVGID_00000050627786383483321710000004002530184745022873_);enable-background:new    ;}
	.st53{fill:url(#SVGID_00000067221325059738306350000013263200974099660426_);}
	.st54{fill:url(#SVGID_00000057139836432239937750000004382543854526771881_);}
	.st55{fill:url(#SVGID_00000107549497167615908700000007077741691320258985_);}
	.st56{opacity:0.72;fill:url(#SVGID_00000016797828909159249110000007712214972556185226_);enable-background:new    ;}
	.st57{fill:url(#SVGID_00000047751036960116158140000006676773780144080828_);}
	.st58{opacity:0.72;fill:url(#SVGID_00000113318198820670572310000014171428739374324382_);enable-background:new    ;}
	.st59{opacity:0.72;fill:url(#SVGID_00000140005891114286581690000011946892834035592586_);enable-background:new    ;}
	.st60{fill:url(#SVGID_00000148624243902591254330000015605592002668206214_);}
</style>
<g>
	<defs>
		<rect id="SVGID_1_" width="571" height="613"/>
	</defs>
	<clipPath id="SVGID_00000082352611546940615840000014756030124981356956_">
		<use xlink:href="#SVGID_1_"  style="overflow:visible;"/>
	</clipPath>
	<g style="clip-path:url(#SVGID_00000082352611546940615840000014756030124981356956_);">
		<path class="st1" d="M491.7,434.2c-7.2,14.5-15.9,26.8-25.6,35.4c-2.8,2.5-5.8,4.7-8.6,6.7c-2.8,2-5.8,3.3-8.6,4.7
			c-43.7,18.1-88.5-23.1-138.4-18.1c-41.8,4.2-72.1,27.3-98.8,46.9c-9.5,7-18.4,13.4-27.6,18.4c-2.5,1.4-5,2.8-7.5,3.9
			c-2.8,1.1-5.6,2.2-8.6,3.3c-38.7,13.4-104.1,12.8-133.1-15.9C4.5,489.7-32.3,392.4,50.9,267.5C143.9,128.3,397,109,464.7,155.1
			C534.8,202.5,532,354.2,491.7,434.2z"/>
		<path class="st2" d="M316.8,437c-5.3-4.2-11.4-7.3-18.1-8.6c-1.1-0.3-2.2-0.3-3.3-0.3c-1.9,0.6-3.6,2.2-4.2,4.5
			c-1.7,4.7,0.3,10.6,4.2,13.9c3.9,3.3,9.7,4.2,14.5,2.5c2.8-0.8,5.3-2.5,6.7-5c1.4-2.5,0.8-6.1-1.4-7.5c-0.8,0.3-1.1,1.7-0.6,2.2
			L316.8,437z"/>
		<path class="st2" d="M296.2,440.4c-0.6-2.8-2.8-5-5.6-5.9c-1.9,2-3.3,4.7-2.8,7.3c0.6,2.8,3.3,5,5.8,4.2c2.8-0.8,3.6-5,1.4-6.4
			L296.2,440.4z"/>
		<path class="st2" d="M274.2,429.2c0.6-1.1,0.3-2.5-0.3-3.6c-0.6,0.3-1.1,0.6-1.4,1.1c-0.3,0.6-0.6,1.1-0.3,1.7
			c0.3,0.6,1.4,0.8,2.2,0.8c-0.3,0.3-0.3,0.3-0.6,0.6L274.2,429.2z"/>
		<path class="st2" d="M279.2,430.6c0.3,0,0.8,0.3,0.8,0.6c-0.8,0.6-1.9,0-2.8-0.3c-0.6-0.3-1.1-0.6-1.1-1.1c0-0.3,0.3-0.6,0.6-1.1
			c0.3-0.6,0.3-1.7,0.8-2c0.3-0.3,0.8,0.3,1.1,0.6c0.3,0.3,0.3,0.8,0.3,1.4c0,0.8,0,2,0,2.8L279.2,430.6z"/>
		<path class="st3" d="M218.5,408c-0.3-0.8-1.7-0.3-1.7,0.6c-0.3,0.8,0.3,1.7,0.8,2.2c0.8-0.6,1.4-1.7,1.4-2.8H218.5z"/>
		<path class="st2" d="M205.5,433.7c0,0.3-0.3,0.8-0.6,0.8s-0.8,0-1.1-0.3c-0.3,0-0.3-0.3-0.6-0.6c-0.3-0.6,0-1.1,0.6-1.4
			c0.6-0.3,1.1,0,1.4,0.6c0.3,0.6,0,1.1-0.6,1.4L205.5,433.7z"/>
		<path class="st2" d="M263.6,434.8c0.8,0,1.4-1.1,0.8-1.7c-0.6,0-0.8,0-1.1,0.3c-0.3,0.3-0.6,0.8-0.3,1.1c0.3,0.3,0.8,0.6,1.1,0.3
			H263.6z"/>
		<path class="st2" d="M281.7,433.7c0.6-0.8,0.8-1.7,0.6-2.8c-0.8,0.3-1.4,0.6-2.2,0.8c-0.3,0-0.8,0.3-0.8,0.6
			c-0.6,0.6-0.3,1.4,0.3,2C280.1,434.5,280.9,434.2,281.7,433.7z"/>
		<path class="st3" d="M216.3,431.2c-0.3,0-0.6,0-0.8,0.3c0,0.6,0,0.8,0.6,1.1c0.3,0.3,0.8,0,1.1-0.6
			C217.2,431.7,216.9,431.2,216.3,431.2z"/>
		<path class="st2" d="M269.2,433.4c-0.3,0.6,0.6,0.8,0.8,0.8c0.6,0,1.1-0.3,1.4-0.6c0.6,0,1.1,0,1.4,0.3c0.3,0.3,0.6,0.6,0.3,0.8
			c0,0.3-0.3,0.3-0.3,0.6c-0.6,0.8-1.4,1.4-2.5,1.7c-1.1,0.3-2.2,0-2.8-0.8c-0.6-0.6-0.6-1.4-0.3-2
			C268.1,434,268.7,433.4,269.2,433.4z"/>
		<path class="st2" d="M277.3,422c0.3-0.6,0.3-1.4-0.3-1.7c-0.6-0.3-1.4-0.3-1.9,0c-0.3,0.3-0.6,0.3-0.3,0.6c0,0.3,0.3,0.3,0.6,0.3
			C275.6,421.7,276.5,422,277.3,422z"/>
		<path class="st2" d="M247.5,414.2c0,1.4-1.9,2.2-3.1,1.7c0.3-1.1,0.6-2,1.4-2.8c0.8-0.6,2.2-0.8,2.8,0c0,0.6-0.3,1.1-0.3,1.7
			L247.5,414.2z"/>
		<path class="st2" d="M343,453.5c0.3,0,0.6,0.3,0.3,0.6c0,0.3-0.3,0.6-0.6,0.6c-0.3,0.3-0.6,0.3-0.6,0.3c-0.6,0-0.8-0.3-1.1-0.8
			c-0.3-0.6,0-1.1,0.3-1.4c0.3-0.3,0.3-0.3,0.6-0.3c0.3,0,0.6,0.3,0.6,0.6L343,453.5z"/>
		<path class="st2" d="M259.5,428.9c0-0.3,0-0.6-0.3-0.8c-0.6,0-0.8,0-1.1,0.6c-0.3,0.3-0.3,1.1,0.3,1.1c0.3,0,0.3,0,0.6-0.3
			c0.6-0.3,0.8-0.6,1.4-0.8L259.5,428.9z"/>
		<path class="st2" d="M245,426.1c-0.3-0.6-0.6-1.1-1.1-1.7c-0.6-0.6-1.4-0.6-1.9-0.3c-0.3,0.3-0.6,0.6-0.6,0.8
			c-0.3,0.8,0.3,2.2,1.1,2.5S244.4,427.3,245,426.1z"/>
		<path class="st2" d="M241.4,420c-0.3-0.3-0.8-0.6-1.1-0.6c-0.3,0.3-0.6,0.6-0.6,0.8c0.6,0.6,1.4,0.6,1.9,0L241.4,420z"/>
		<path class="st2" d="M280.4,399.1c-2.5-0.6-5.3-0.6-8.1,0c-0.6,0-0.8,0.3-1.1,0.6c-0.6,0.6-0.8,1.4-0.8,2.2c0.3,2,1.9,3.9,3.9,4.5
			c1.9,0.6,4.2-0.3,5.8-1.4c0.8-0.8,1.4-1.7,1.7-2.8c0-1.1-0.6-2.2-1.7-2.5c-0.3,0.3-0.3,0.8,0.3,0.8V399.1z"/>
		<path class="st2" d="M281.7,454.9c-0.3-1.1-1.4-2.2-2.5-2.8c-0.3,0.6-0.6,1.1-0.6,1.7c0,0.6,0.3,1.1,0.8,1.4
			c0.8,0.3,1.4-0.3,2.2-0.6c0,0.3,0,0.6,0,0.6V454.9z"/>
		<path class="st2" d="M272.6,455.1c-0.3-0.3-0.6-0.6-0.8-0.6c-0.3,0-0.6,0-1.1,0.3c-0.8,0.3-1.7,0.8-2.8,0.8c1.4,0.6,2.8,1.4,4.2,2
			c0,0,0.3,0,0.3,0.3c0.3,0.3,0,0.8,0,1.4c0,0.6,0.8,0.8,1.4,0.8C278.7,460.4,273.9,456.5,272.6,455.1z"/>
		<path class="st2" d="M290.4,453.8c0-0.8-0.3-2-1.1-2.5c-0.6,0.6-0.8,1.4-1.4,2c-0.3,0.3-0.6,0.6-0.6,1.1c0,0.8,0.8,1.4,1.4,1.1
			C289.5,455.4,290.1,454.6,290.4,453.8z"/>
		<path class="st2" d="M335.5,467.4c-0.3,0-0.6,0-0.8,0.3c0,0.6,0,0.8,0.6,1.1c0.3,0.3,0.8,0,1.1-0.6
			C336.6,467.7,336,467.4,335.5,467.4z"/>
		<path class="st2" d="M279.8,447.1c0-0.6-0.6-1.1-1.4-1.1c-0.6,0-1.1,0.6-1.4,1.1c0,0.3-0.3,0.6,0,0.8c0.3,0,0.3,0,0.6,0
			C278.4,447.6,279,447.6,279.8,447.1z"/>
		<path class="st2" d="M286.8,438.4c-0.3-0.6-0.6-1.1-1.1-1.7c-0.6-0.6-1.4-0.6-1.9-0.3c-0.3,0.3-0.6,0.6-0.6,0.8
			c-0.3,0.8,0.3,2.2,1.1,2.5C285.4,440.1,286.5,439.3,286.8,438.4z"/>
		<path class="st2" d="M260.9,415.5c-0.6,0-1.1,0.8-1.1,1.4c0,0.6-0.6,1.4-1.1,1.7c-0.3,0-0.3,0-0.6,0c-0.3-0.3,0-0.8,0-1.4
			c0-0.3,0-0.8,0-1.1c0-0.8,0.6-2,1.4-2.2c0.6,0,0.8,0.6,1.1,0.8c0.3,0.3,0,1.1-0.3,1.4L260.9,415.5z"/>
		<path class="st2" d="M244.7,421.1c-0.6,0-1.1,0.8-1.1,1.4c-0.3,0.6-0.6,1.4-1.1,1.7c-0.3,0-0.3,0-0.6,0c-0.3-0.3,0-0.8,0-1.4
			c0-0.3,0-0.8,0-1.1c0-0.8,0.6-2,1.4-2.2c0.6,0,0.8,0.6,1.1,0.8c0.3,0.6,0,1.1-0.3,1.4L244.7,421.1z"/>
		<path class="st2" d="M233.6,415c-0.6-0.3-1.1-0.6-1.7-0.6h-0.3c-0.3,0-0.3,0.3-0.3,0.3c0,0.3,0,0.8,0.3,1.1
			c0.3,0.3,0.8,0.3,1.1,0.3s0.6-0.3,0.6-0.6C233.6,415.3,233.6,415,233.6,415C233.3,415,233.3,415,233.6,415z"/>
		<path class="st2" d="M308.7,447.1c-0.3-1.1-1.4-2.2-2.5-2.8c-0.3,0.6-0.6,1.1-0.6,1.7c0,0.6,0.3,1.1,0.8,1.4
			c0.8,0.3,1.4-0.3,2.2-0.6c0,0.3,0,0.6,0,0.6V447.1z"/>
		<path class="st2" d="M303.5,457.9c0.6-0.6,0.6-1.7-0.3-2c-0.3,0.3-0.6,0.6-0.8,0.8c0,0.3,0,0.8,0.3,1.1c0.3,0.3,0.8,0,0.8-0.6
			V457.9z"/>
		<path class="st2" d="M289,442.3c0.6-0.6,0.6-1.7-0.3-2c-0.3,0.3-0.6,0.6-0.8,0.8c0,0.3,0,0.8,0.3,1.1c0.3,0.3,0.8,0,0.8-0.6V442.3
			z"/>
		<path class="st2" d="M307.1,453.2c0.3,0.6,0.8,0.6,1.4,0c0.3-0.3,0.6-0.8,0.8-1.4c0.3-0.3,0.8-0.6,1.4-0.6c0.3,0,0.6,0,0.8,0.3
			c0,0.3,0,0.3,0,0.6c0,1.1-0.3,2-0.8,2.8c-0.6,0.8-1.7,1.4-2.8,1.1c-0.6-0.3-1.4-0.8-1.4-1.4C306.5,454,306.8,453.8,307.1,453.2z"
			/>
		<path class="st2" d="M255.9,420.6c0.3,0.6,0.8,0.6,1.4,0c0.3-0.3,0.6-0.8,0.8-1.4c0.3-0.3,0.8-0.6,1.4-0.6c0.3,0,0.6,0,0.8,0.3
			c0,0.3,0,0.3,0,0.6c0,1.1-0.3,2-0.8,2.8c-0.6,0.8-1.7,1.4-2.8,1.1c-0.6-0.3-1.4-0.8-1.4-1.4C255.3,421.7,255.6,420.8,255.9,420.6z
			"/>
		<path class="st2" d="M258.6,414.4c0.3,0.6,0.8,0.6,1.4,0c0.3-0.3,0.6-0.8,0.8-1.4c0.3-0.3,0.8-0.6,1.4-0.6c0.3,0,0.6,0,0.8,0.3
			c0,0.3,0,0.3,0,0.6c0,1.1-0.3,2-0.8,2.8c-0.6,0.8-1.7,1.4-2.8,1.1c-0.6-0.3-1.4-0.8-1.4-1.4C258.1,415.5,258.1,414.7,258.6,414.4z
			"/>
		<path class="st2" d="M267.3,420.6c0.3,0.6,0.8,0.6,1.4,0c0.3-0.3,0.6-0.8,0.8-1.4c0.3-0.3,0.8-0.6,1.4-0.6c0.3,0,0.6,0,0.8,0.3
			c0,0.3,0,0.3,0,0.6c0,1.1-0.3,2-0.8,2.8c-0.6,0.8-1.7,1.4-2.8,1.1c-0.6-0.3-1.4-0.8-1.4-1.4C266.4,421.4,266.7,420.8,267.3,420.6z
			"/>
		<path class="st2" d="M213.3,469.9c0.3,0.6,0.8,0.6,1.4,0c0.3-0.3,0.6-0.8,0.8-1.4c0.3-0.3,0.8-0.6,1.4-0.6c0.3,0,0.6,0,0.8,0.3
			c0,0.3,0,0.3,0,0.6c0,1.1-0.3,2-0.8,2.8c-0.6,0.8-1.7,1.4-2.8,1.1c-0.6-0.3-1.4-0.8-1.4-1.4C212.7,471,213,470.2,213.3,469.9z"/>
		<path class="st2" d="M296.5,455.4c-0.3-0.3-0.6-0.3-0.6-0.6c-0.3,0.3-0.6,0.6-0.6,1.1c0,0.6,0.6,0.8,0.8,0.6l0.3-0.3
			c0.3-0.6,0.3-0.8,0.6-1.4L296.5,455.4z"/>
		<path class="st2" d="M241.9,451.5c-0.3-0.6-0.6-1.1-1.1-1.7c-0.6-0.6-1.4-0.6-1.9-0.3c-0.3,0.3-0.6,0.6-0.6,0.8
			c-0.3,0.8,0.3,2.2,1.1,2.5C240.3,453.2,241.4,452.4,241.9,451.5z"/>
		<path class="st2" d="M296.5,434.5c0.8,0.3,1.1,2,0.3,2.2c-0.6,0-1.1-0.3-1.7-0.6c0.3-0.6,0.6-1.1,1.1-1.4L296.5,434.5z"/>
		<path class="st3" d="M236.6,444.3c-0.3-0.3-0.6-0.6-0.8-0.8c-0.3-0.3-0.8-0.3-1.1,0c-0.6,0.6-0.3,1.1-0.3,2
			c-0.3,0.6-0.8,1.1-0.8,1.7c0,0.6,0.8,1.1,1.4,0.8c0.6-0.3,1.1-0.6,1.4-1.1c0.3-0.6,0.6-1.1,0.6-1.7c0-0.6-0.3-1.1-0.8-1.4
			L236.6,444.3z"/>
		<path class="st2" d="M268.4,428.7c1.1-2.5,0.8-5.6-0.8-7.8c-2.8,0.3-5.6,1.7-6.7,4.2c-1.1,2.5-0.3,5.9,2.2,7
			c2.5,1.1,5.8-1.7,5-4.2L268.4,428.7z"/>
		<path class="st2" d="M299.6,428.7c0,0.3-0.6,0.6-0.8,0.3c-0.3,0-0.6-0.6-0.8-0.8c0-0.3,0-0.6,0-0.6c0-0.6,0.6-0.8,1.1-0.8
			c0.6,0.3,0.8,0.8,0.6,1.1c-0.3,0.6-0.6,0.8-1.1,0.8H299.6z"/>
		<path class="st2" d="M284.2,428.9c-0.6,0.3-0.8,1.1-0.6,2c0,0.6,0,1.4-0.6,2c-0.3,0-0.3,0.3-0.6,0c-0.6-0.3-0.3-0.8-0.3-1.4
			c0-0.3-0.3-0.8-0.6-1.1c-0.3-0.8,0-2,0.6-2.5c0.6,0,1.1,0,1.4,0.6c0.3,0.3,0.3,1.1,0,1.4L284.2,428.9z"/>
		<path class="st2" d="M263.9,437.3c-0.3,0-0.6-0.3-0.8-0.3c-0.3,0.3-0.6,0.8-0.3,1.1c0.3,0.3,0.8,0.6,1.1,0.3
			C264.5,438.1,264.5,437.6,263.9,437.3z"/>
		<path class="st2" d="M279.2,436.5c0.3,0.3,0,0.6,0,0.8c-0.3,0.3-0.6,0.3-0.8,0.3c-0.3,0-0.6,0-0.8-0.3c-0.6-0.3-0.6-0.8-0.6-1.4
			c0.3-0.6,0.6-0.8,1.1-0.8c0.3,0,0.6,0,0.6,0c0.3,0.3,0.3,0.6,0,0.6L279.2,436.5z"/>
		<path class="st2" d="M275.3,459.3c2.5-1.1,4.2-3.9,4.5-6.4c-2.2-1.4-5.3-2.2-7.8-1.1c-2.5,1.1-4.2,4.2-3.1,6.7
			c1.4,2.5,5.6,2.5,6.4,0V459.3z"/>
		<path class="st2" d="M295.4,451.5c-0.3-0.8-1.7-0.3-1.7,0.6c-0.3,0.8,0.3,1.7,0.8,2.2c0.8-0.6,1.4-1.7,1.4-2.8H295.4z"/>
		<path class="st2" d="M293.2,422.2c-0.3,0-0.6-0.3-0.8-0.3c-0.3,0.3-0.6,0.8-0.3,1.1c0.3,0.3,0.8,0.6,1.1,0.3
			C293.7,423.1,293.4,422.5,293.2,422.2z"/>
		<path class="st2" d="M285.4,434.8c-2.2-2-5-3.3-7.8-3.9c-0.6,0-0.8-0.3-1.4,0c-0.8,0.3-1.7,0.8-1.9,2c-0.8,2,0,4.5,1.7,6.1
			c1.7,1.4,4.2,2,6.4,1.4c1.1-0.3,2.2-0.8,3.1-2c0.6-1.1,0.6-2.5-0.6-3.3c-0.3,0-0.6,0.6-0.3,0.8L285.4,434.8z"/>
		<path class="st2" d="M252.2,469.7c-0.6-2.8-2.8-5-5.6-5.9c-1.9,2-3.3,4.7-2.8,7.3c0.6,2.8,3.3,5,5.8,4.2c2.8-0.8,3.6-5,1.4-6.4
			L252.2,469.7z"/>
		<path class="st2" d="M235.5,420.3c-0.3-1.1-1.4-2.2-2.5-2.8c-0.3,0.6-0.6,1.1-0.6,1.7c0,0.6,0.3,1.1,0.8,1.4
			c0.8,0.3,1.4-0.3,2.2-0.6c0,0.3,0,0.6,0,0.6V420.3z"/>
		<path class="st2" d="M226.3,420.6c-0.3-0.3-0.6-0.6-0.8-0.6c-0.3,0-0.6,0-1.1,0.3c-0.8,0.3-1.7,0.8-2.8,0.8c1.4,0.6,2.8,1.4,4.2,2
			c0,0,0.3,0,0.3,0.3c0.3,0.3,0,0.8,0,1.4c0,0.6,0.8,0.8,1.4,0.8C232.5,426.1,227.7,422.2,226.3,420.6z"/>
		<path class="st2" d="M282,427c-0.3-0.3-0.8-0.6-1.1-0.6c-0.3,0.8-0.3,2,0.3,2.5c0.6,0.6,1.9,0.3,2.2-0.6c0-0.6,0-1.4,0.6-1.4H282z
			"/>
		<path class="st2" d="M242.8,434.2c0.3,0,0.8,0.3,0.8,0.6c-0.8,0.6-1.9,0-2.8-0.3c-0.6-0.3-1.1-0.6-1.1-1.1c0-0.3,0.3-0.6,0.6-1.1
			c0.3-0.6,0.3-1.7,0.8-2c0.3-0.3,0.8,0.3,1.1,0.6c0.3,0.3,0.3,0.8,0.3,1.4c0,0.8,0,2,0,2.8L242.8,434.2z"/>
		<path class="st2" d="M237.8,448.5c-0.3-0.8-1.7-0.3-1.7,0.6c-0.3,0.8,0.3,1.7,0.8,2.2c0.8-0.6,1.4-1.7,1.4-2.8H237.8z"/>
		<path class="st3" d="M226.9,435.1c0,0.3-0.3,0.8-0.6,0.8c-0.3,0-0.8,0-1.1-0.3c-0.3,0-0.3-0.3-0.6-0.6c-0.3-0.6,0-1.1,0.6-1.4
			c0.6-0.3,1.1,0,1.4,0.6c0.3,0.6,0,1.1-0.6,1.4L226.9,435.1z"/>
		<path class="st2" d="M230.5,431.2c0.6-0.6,0.6-1.7-0.3-2c-0.3,0.3-0.6,0.6-0.8,0.8c0,0.3,0,0.8,0.3,1.1c0.3,0.3,0.8,0,0.8-0.6
			V431.2z"/>
		<path class="st2" d="M244.2,419.5c0-0.8-0.3-2-1.1-2.5c-0.6,0.6-0.8,1.4-1.4,2c-0.3,0.3-0.6,0.6-0.6,1.1c0,0.8,0.8,1.4,1.4,1.1
			C243.3,421.1,243.9,420.3,244.2,419.5z"/>
		<path class="st3" d="M228,446.2c0.3,0.6,0,1.1-0.6,1.4c-0.6,0.3-1.1,0.3-1.7,0.3c-0.3-0.3-0.6-0.6-0.3-0.8l0.3-0.3
			C226.6,446.5,227.2,446.2,228,446.2C228,445.9,228,446.2,228,446.2z"/>
		<path class="st3" d="M219.7,453.5c-0.6,0-1.1,0.8-1.1,1.4c0,0.6-0.6,1.4-1.1,1.7c-0.3,0-0.3,0-0.6,0c-0.3-0.3,0-0.8,0-1.4
			c0-0.3,0-0.8,0-1.1c0-0.8,0.6-2,1.4-2.2c0.6,0,0.8,0.6,1.1,0.8c0.3,0.6,0,1.1-0.3,1.4L219.7,453.5z"/>
		<path class="st3" d="M265.3,410c-0.6,0-1.1,0.8-1.1,1.4c0,0.6-0.6,1.4-1.1,1.7c-0.3,0-0.3,0-0.6,0c-0.3-0.3,0-0.8,0-1.4
			c0-0.3,0-0.8,0-1.1c0-0.8,0.6-2,1.4-2.2c0.6,0,0.8,0.6,1.1,0.8c0.3,0.6,0,1.1-0.3,1.4L265.3,410z"/>
		<path class="st3" d="M215.2,448.2c-0.3-0.3-0.3-0.3-0.6-0.6c-0.3,0.3-0.6,0.6-0.6,1.1c0,0.6,0.6,0.8,1.1,0.6
			C215.5,449.3,215.5,448.5,215.2,448.2z"/>
		<path class="st2" d="M234.1,426.7c0.3,0.6,0.8,0.6,1.4,0c0.6-0.6,0.6-0.8,0.8-1.4c0.3-0.3,0.8-0.6,1.4-0.6c0.3,0,0.6,0,0.8,0.3
			c0,0.3,0,0.3,0,0.6c0,1.1-0.3,2-0.8,2.8c-0.6,0.8-1.7,1.4-2.8,1.1c-0.6-0.3-1.4-0.8-1.4-1.4C233.6,427.5,233.6,427,234.1,426.7z"
			/>
		<path class="st2" d="M233.3,412.8c0-0.6-0.6-1.1-1.4-1.1c-0.6,0-1.1,0.6-1.4,1.1c0,0.3-0.3,0.6,0,0.8c0.3,0,0.3,0,0.6,0
			C232.2,413.3,232.7,413,233.3,412.8z"/>
		<path class="st2" d="M248.6,445.4c0,1.4-1.9,2.2-3.1,1.7c0.3-1.1,0.6-2,1.4-2.8c0.8-0.6,2.2-0.8,2.8,0c0,0.6-0.3,1.1-0.3,1.7
			L248.6,445.4z"/>
		<path class="st3" d="M223.6,428.9c-0.3-0.3-0.6-0.3-0.6-0.6c-0.3,0.3-0.6,0.6-0.6,1.1c0,0.6,0.6,0.8,0.8,0.6l0.3-0.3
			c0.3-0.6,0.3-0.8,0.6-1.4L223.6,428.9z"/>
		<path class="st2" d="M295.9,440.9c-0.3-0.6-0.6-1.1-1.1-1.7c-0.6-0.6-1.4-0.6-1.9-0.3c-0.3,0.3-0.6,0.6-0.6,0.8
			c-0.3,0.8,0.3,2.2,1.1,2.5C294.5,442.6,295.7,441.8,295.9,440.9z"/>
		<path class="st2" d="M260.3,460.2c-0.3-0.3-0.8-0.6-1.1-0.6c-0.3,0.3-0.6,0.6-0.6,0.8c0.6,0.6,1.4,0.6,1.9,0L260.3,460.2z"/>
		<path class="st2" d="M328.8,456.3c0,0.3-0.3,0.8-0.6,0.8c-0.3,0-0.8,0-1.1-0.3c-0.3,0-0.3-0.3-0.6-0.6c-0.3-0.6,0-1.1,0.6-1.4
			c0.6-0.3,1.1,0,1.4,0.6c0.3,0.6,0,1.1-0.6,1.4L328.8,456.3z"/>
		<path class="st2" d="M255.6,449.8c-0.3-0.3-0.8-0.6-1.1-0.6c-0.3,0.3-0.6,0.6-0.6,0.8c0.6,0.6,1.4,0.6,1.9,0L255.6,449.8z"/>
		<path class="st2" d="M272.6,415.5c0-0.6-0.8-0.8-1.1-0.6c-0.6,0.3-0.8,0.6-1.1,0.8c-0.6,0.3-1.1,0.3-1.7,0.3
			c-0.3,0-0.6-0.3-0.6-0.6c0-0.3,0-0.3,0-0.6c0.3-0.8,0.8-2,1.7-2.5c0.8-0.6,1.9-0.8,2.8-0.3c0.6,0.3,0.8,1.1,0.8,2
			C273.7,414.7,273.1,415.5,272.6,415.5z"/>
		<path class="st2" d="M283.1,441.5c0.3,0.3,0.3,0.8,0.6,1.1c0.3,0.3,0.8,0.6,1.1,0.3c0.6-0.3,0.6-1.1,0.8-1.7
			c0.3-0.6,1.1-0.6,1.4-1.4c0.3-0.6-0.6-1.1-1.1-1.4c-0.6,0-1.1,0.3-1.7,0.8c-0.6,0.3-0.8,0.8-1.1,1.4c-0.3,0.6,0,1.1,0.6,1.4
			L283.1,441.5z"/>
		<path class="st2" d="M256.7,427c2.2,0.8,4.5,1.4,7,1.1c0.3,0,0.8,0,1.1-0.3c0.6-0.3,0.8-1.1,1.1-2c0-1.7-1.1-3.6-2.8-4.2
			c-1.7-0.8-3.6-0.6-5.3,0.6c-0.8,0.6-1.7,1.4-1.7,2.2c-0.3,0.8,0.3,2.2,1.1,2.5c0.3-0.3,0.3-0.6,0-0.8L256.7,427z"/>
		<path class="st2" d="M267.8,413.9c0-0.3,0.3-0.8,0-1.1c0-0.3-0.6-0.6-0.8-0.8c-0.8-0.6-1.4-1.1-2.2-2c0,1.7,0.3,3.1,0.3,4.7v0.3
			c-0.3,0.3-0.8,0.6-1.1,0.6c-0.6,0.3-0.3,1.1,0,1.7C266.2,422,267.3,415.8,267.8,413.9z"/>
		<path class="st2" d="M256.7,426.4c-0.3-0.3-0.3-0.3-0.6-0.6c-0.6,0-0.8,0.6-0.6,1.1c0,0.6,0.6,0.8,0.8,0.6
			C256.7,427.5,257,426.7,256.7,426.4z"/>
		<path class="st2" d="M260.3,414.2c0.6-0.3,0.6-1.1,0.3-1.7c-0.3-0.6-1.1-0.8-1.7-0.8c-0.3,0-0.6,0.3-0.6,0.6s0,0.3,0.3,0.6
			C259.2,413.3,259.7,413.9,260.3,414.2z"/>
		<path class="st2" d="M256.1,421.7c0.8-0.8,1.4-2.2,1.1-3.6c-0.6,0-1.1,0-1.7,0.3c-0.6,0.3-0.8,0.8-0.8,1.4c0,0.8,0.8,1.1,1.7,1.4
			c-0.3,0-0.3,0.3-0.6,0.3L256.1,421.7z"/>
		<path class="st2" d="M251.1,424.5c0,0.3,0,0.8,0,1.1c-0.8-0.6-1.1-1.7-1.1-2.8c0-0.6,0-1.1,0.6-1.4c0.3-0.3,0.8,0,1.1,0
			c0.8,0,1.7-0.8,2.2-0.3c0.3,0.3,0.3,0.8,0,1.1c-0.3,0.3-0.6,0.6-1.1,0.8c-0.8,0.6-1.7,0.8-2.5,1.4H251.1z"/>
		<path class="st2" d="M264.2,418.3c0.8-0.6,1.4-1.4,1.7-2.2c-0.8,0-1.7-0.3-2.2-0.3c-0.3,0-0.8,0-1.1,0c-0.6,0.3-0.8,1.4-0.3,2
			C262.5,418.3,263.4,418.6,264.2,418.3z"/>
		<path class="st2" d="M253.1,413.3c-0.3,0.3,0,1.1,0.6,1.1c0.6,0.3,1.1,0,1.7,0.3c0.6,0,1.1,0.6,1.1,0.8c0.3,0.3,0.3,0.6,0,0.8
			c0,0.3-0.3,0.3-0.6,0.3c-0.8,0.6-1.9,0.8-3.1,0.6c-1.1,0-1.9-0.8-2.2-1.7c-0.3-0.6,0-1.4,0.6-2C251.7,413,252.5,413,253.1,413.3z"
			/>
		<path class="st2" d="M269.5,442.6c0.3-0.6,0.8-1.1,0.8-2c0-0.6,0-1.4-0.8-1.7c-0.3-0.3-0.6-0.3-1.1-0.3c-1.1,0.3-1.7,1.4-1.4,2.2
			C267.5,442.3,268.7,442.9,269.5,442.6z"/>
		<path class="st2" d="M279.5,430.9c0.8-0.8,1.4-2.2,1.1-3.6c-0.6,0-1.1,0-1.7,0.3c-0.6,0.3-0.8,0.8-0.8,1.4c0,0.8,0.8,1.1,1.7,1.4
			c-0.3,0-0.3,0.3-0.6,0.3L279.5,430.9z"/>
		<path class="st2" d="M248.6,424.7c-0.6,0-1.1,0.8-1.4,1.4c-0.3,0.6-0.6,1.4-1.1,1.7c-0.3,0-0.3,0-0.6,0c-0.3-0.3,0-0.8,0.3-1.4
			c0-0.3,0-0.8,0-1.1c0-0.8,0.8-1.7,1.7-2c0.6,0,0.8,0.6,1.1,0.8c0,0.6,0,1.1-0.6,1.4L248.6,424.7z"/>
		<path class="st2" d="M289.8,458.8c-0.3,0-0.6,0-0.8,0c-0.3,0.3-0.3,0.8,0,1.1c0.3,0.3,0.8,0.3,1.1,0
			C290.6,459.6,290.4,459.1,289.8,458.8z"/>
		<path class="st2" d="M265.9,424.7c0-0.3,0-0.6,0-0.8c-0.3,0-0.8-0.3-1.4,0c-0.3,0.3-0.6,0.8,0,1.1c0.3,0,0.3,0,0.6,0
			c0.6,0,1.1,0,1.7-0.3H265.9z"/>
		
			<linearGradient id="SVGID_00000078763206005151762540000002522777624821209789_" gradientUnits="userSpaceOnUse" x1="481.4615" y1="492.5802" x2="490.0097" y2="612.8091" gradientTransform="matrix(1 0 0 -1 0 614)">
			<stop  offset="0" style="stop-color:#751613"/>
			<stop  offset="1" style="stop-color:#E7297E"/>
		</linearGradient>
		<path style="fill:url(#SVGID_00000078763206005151762540000002522777624821209789_);" d="M520.3,3.3l8.1,3.6l-8.1,90.9l-7,3.1
			l-38.1,3.9l-3.1,15.9l-27.8-22.9L520.3,3.3z"/>
		
			<linearGradient id="SVGID_00000062183545007780209830000000374722911916296068_" gradientUnits="userSpaceOnUse" x1="191.4682" y1="66.5197" x2="203.7032" y2="163.7687" gradientTransform="matrix(1 0 0 -1 0 614)">
			<stop  offset="0" style="stop-color:#CABFE0"/>
			<stop  offset="1" style="stop-color:#E7DBED"/>
		</linearGradient>
		<path style="fill:url(#SVGID_00000062183545007780209830000000374722911916296068_);" d="M233.9,489.5
			c-3.3,19.2-18.1,64.1-31.2,59.4c-2.8-1.1-5.8-4.7-8.9-10c-8.9-16.2-17.8-48-22.3-69.4c-2.5-11.7-3.3-20.4-2.5-21.8
			c5.8-8.6,61.8,29,64.9,33.2C234.7,481.6,234.7,485,233.9,489.5z"/>
		
			<linearGradient id="SVGID_00000122701101621198129310000007631787626876709295_" gradientUnits="userSpaceOnUse" x1="278.6048" y1="52.8001" x2="294.3868" y2="178.235" gradientTransform="matrix(1 0 0 -1 0 614)">
			<stop  offset="0" style="stop-color:#CABFE0"/>
			<stop  offset="1" style="stop-color:#E7DBED"/>
		</linearGradient>
		<path style="fill:url(#SVGID_00000122701101621198129310000007631787626876709295_);" d="M322.1,463.2c-0.3,1.7-0.6,3.6-0.8,5.6
			c-3.9,29.3-12,72.5-20.9,88.4c-2.2,3.9-4.2,5.9-6.4,6.1c-0.6,0-1.1,0-1.7-0.3c-1.9-0.6-4.2-2.2-6.1-4.5
			c-13.4-15.1-28.4-60.2-29-73.9c0-1.7,0-2.8,0.6-3.3c7.5-10.3,62.4-45.5,65.4-41.3C324.3,440.9,323.8,450.1,322.1,463.2z"/>
		
			<linearGradient id="SVGID_00000031193067457783996450000003969855392341763215_" gradientUnits="userSpaceOnUse" x1="201.4448" y1="129.624" x2="201.4448" y2="167.9168" gradientTransform="matrix(1 0 0 -1 0 614)">
			<stop  offset="0" style="stop-color:#B59CCA"/>
			<stop  offset="1" style="stop-color:#938AC2"/>
		</linearGradient>
		<path style="fill:url(#SVGID_00000031193067457783996450000003969855392341763215_);" d="M169,447.6c-6.1,8.1,44.3,44.6,65.4,35.1
			C234.4,482.8,177.3,437,169,447.6z"/>
		
			<linearGradient id="SVGID_00000076571961773909811700000004717389510544659869_" gradientUnits="userSpaceOnUse" x1="290.4939" y1="128.736" x2="290.4939" y2="174.323" gradientTransform="matrix(1 0 0 -1 0 614)">
			<stop  offset="0" style="stop-color:#B59CCA"/>
			<stop  offset="1" style="stop-color:#938AC2"/>
		</linearGradient>
		<path style="fill:url(#SVGID_00000076571961773909811700000004717389510544659869_);" d="M257.5,484.4c-1.7,4.2,56.5-5.3,66-44.6
			C323.5,439.8,273.4,445.7,257.5,484.4z"/>
		
			<linearGradient id="SVGID_00000029736260518106110630000005986951539599513503_" gradientUnits="userSpaceOnUse" x1="201.1821" y1="65.262" x2="201.1821" y2="167.629" gradientTransform="matrix(1 0 0 -1 0 614)">
			<stop  offset="0" style="stop-color:#926AAB"/>
			<stop  offset="1" style="stop-color:#CDEAFC"/>
		</linearGradient>
		<path style="opacity:0.3;fill:url(#SVGID_00000029736260518106110630000005986951539599513503_);enable-background:new    ;" d="
			M191,481.6c-2.8,3.6,0.6,48.8,11.4,67.2c-2.8-1.1-5.8-4.7-8.9-10c-1.7-7.8-4.5-19.8-7-31.5c-3.1-15.1-11.1-30.7-15.3-37.9
			c-2.5-11.7-3.3-20.4-2.5-21.8c5.8-8.6,61.8,29,64.9,33.2c0.6,0.8,0.6,3.9-0.3,8.4C233.9,489.5,194,478.3,191,481.6z"/>
		<path class="st2" d="M289.3,498.1c-2.5,0.8-3.1,19.8,1.1,20.6C294.5,519.6,294.8,496.4,289.3,498.1z"/>
		
			<linearGradient id="SVGID_00000116220087391822465480000003914865939769274296_" gradientUnits="userSpaceOnUse" x1="290.5223" y1="55.662" x2="290.5223" y2="174.5351" gradientTransform="matrix(1 0 0 -1 0 614)">
			<stop  offset="0" style="stop-color:#926AAB"/>
			<stop  offset="1" style="stop-color:#CDEAFC"/>
		</linearGradient>
		<path style="opacity:0.3;fill:url(#SVGID_00000116220087391822465480000003914865939769274296_);enable-background:new    ;" d="
			M322.1,463.2c0,0-31.7,9.5-39.3,24.5c-7.2,15.1-4.5,51,3.3,70.6c-13.4-15.1-28.4-60.2-29-73.9c0-1.7,0-2.8,0.6-3.3
			c7.5-10.3,62.4-45.5,65.4-41.3C324.3,440.9,323.8,450.1,322.1,463.2z"/>
		
			<linearGradient id="SVGID_00000011718102093713500470000011749132055779517333_" gradientUnits="userSpaceOnUse" x1="133.642" y1="155.1097" x2="154.7368" y2="322.7746" gradientTransform="matrix(1 0 0 -1 0 614)">
			<stop  offset="0" style="stop-color:#CABFE0"/>
			<stop  offset="1" style="stop-color:#E7DBED"/>
		</linearGradient>
		<path style="fill:url(#SVGID_00000011718102093713500470000011749132055779517333_);" d="M184.9,314.9c0,16.7-2.5,41-10,60.8
			c-12.5,32.6-31.5,73.3-32,74.7c-11.7,7-25.3,6.7-34.2,5.3c-5.3-0.8-8.9-2-8.9-2s3.9-37.4,24.2-79.5c10.3-21.2,23.4-41,34.5-55.5
			c0,0,0,0,0.3-0.3c0-0.3,0.3-0.3,0.3-0.6l0.3-0.3l0.3-0.3l0.3-0.3c11.4-14.5,20.9-23.4,22.8-22.3
			C183.7,295.3,184.9,303.4,184.9,314.9z"/>
		
			<linearGradient id="SVGID_00000031914277394897621580000009899608177092371389_" gradientUnits="userSpaceOnUse" x1="121.2032" y1="156.729" x2="121.2032" y2="183.378" gradientTransform="matrix(1 0 0 -1 0 614)">
			<stop  offset="0" style="stop-color:#B59CCA"/>
			<stop  offset="1" style="stop-color:#938AC2"/>
		</linearGradient>
		<path style="fill:url(#SVGID_00000031914277394897621580000009899608177092371389_);" d="M99.7,452.4c0,0,15-24.5,30.3-21.5
			c15.3,3.1,12.5,19.5,12.5,19.5S123.1,464.6,99.7,452.4z"/>
		
			<linearGradient id="SVGID_00000047772454533607359260000000589380193147087502_" gradientUnits="userSpaceOnUse" x1="142.2628" y1="158.294" x2="142.2628" y2="299.133" gradientTransform="matrix(1 0 0 -1 0 614)">
			<stop  offset="0" style="stop-color:#926AAB"/>
			<stop  offset="1" style="stop-color:#CDEAFC"/>
		</linearGradient>
		<path style="opacity:0.3;fill:url(#SVGID_00000047772454533607359260000000589380193147087502_);enable-background:new    ;" d="
			M184.9,314.9c0,16.7-2.5,41-10,60.8c-12.5,32.6-31.5,73.3-32,74.7l-34.2,5.3c-5.3-0.8-8.9-2-8.9-2s3.9-37.4,24.2-79.5
			c10.3-21.2,23.4-41,34.5-55.5c-6.4,8.6-33.4,45.7-40.6,77.3c-8.4,36,25.1,22,38.7,0c13.6-22,27.8-81.2,27.8-81.2H184.9z"/>
		<path class="st2" d="M147.6,372c-2.8-1.1,11.4-32.9,15.6-33.2C167.6,338.9,149.8,373.2,147.6,372z"/>
		<path class="st2" d="M146.2,375.7c-2.2-1.1-4.2,4.7-2.2,5.6C145.9,382.1,148.7,376.8,146.2,375.7z"/>
		
			<linearGradient id="SVGID_00000057135356243771056410000007650724068285443250_" gradientUnits="userSpaceOnUse" x1="114.8757" y1="84.1817" x2="126.3657" y2="175.5087" gradientTransform="matrix(1 0 0 -1 0 614)">
			<stop  offset="0" style="stop-color:#CABFE0"/>
			<stop  offset="1" style="stop-color:#E7DBED"/>
		</linearGradient>
		<path style="fill:url(#SVGID_00000057135356243771056410000007650724068285443250_);" d="M125,438.4c-8.1-1.4-19.5,6.1-23.1,12.8
			c-3.6,6.7-5.6,45.2,3.6,77c0,0,12.8,3.3,22.5,0c9.7-3.3,16.4-31.5,16.7-52.7C145.3,454.3,138.1,440.4,125,438.4z"/>
		
			<linearGradient id="SVGID_00000103988008367820284700000006581491318903410838_" gradientUnits="userSpaceOnUse" x1="132.9378" y1="84.667" x2="132.9378" y2="166.382" gradientTransform="matrix(1 0 0 -1 0 614)">
			<stop  offset="0" style="stop-color:#B59CCA"/>
			<stop  offset="1" style="stop-color:#938AC2"/>
		</linearGradient>
		<path style="fill:url(#SVGID_00000103988008367820284700000006581491318903410838_);" d="M123.9,529.3c0,0-11.7-67.8,15-81.7
			c0,0,7.8,13.4,5,39.6C140.9,513.4,136.4,526.8,123.9,529.3z"/>
		
			<linearGradient id="SVGID_00000014603686275965495930000013734293089411558272_" gradientUnits="userSpaceOnUse" x1="131.7891" y1="109.945" x2="131.7891" y2="141.538" gradientTransform="matrix(1 0 0 -1 0 614)">
			<stop  offset="0" style="stop-color:#8FA3D4"/>
			<stop  offset="1" style="stop-color:#6E5CA4"/>
		</linearGradient>
		<path style="opacity:0.5;fill:url(#SVGID_00000014603686275965495930000013734293089411558272_);enable-background:new    ;" d="
			M121.9,491.7c0,0,7,10,11.4,11.7c4.7,1.7,8.4,0,8.4,0l-17.3-30.7C124.4,472.4,121.4,484.7,121.9,491.7z"/>
		
			<linearGradient id="SVGID_00000163793568434473164970000002214353675380188570_" gradientUnits="userSpaceOnUse" x1="133.7911" y1="111.4542" x2="140.4994" y2="164.7753" gradientTransform="matrix(1 0 0 -1 0 614)">
			<stop  offset="0" style="stop-color:#CABFE0"/>
			<stop  offset="1" style="stop-color:#E7DBED"/>
		</linearGradient>
		<path style="fill:url(#SVGID_00000163793568434473164970000002214353675380188570_);" d="M124.4,472.4c0,0,3.9-18.7,15-23.4
			c0,0,10.6,10.3,7.8,50.8c0,0-5.8,7.8-14.2,0C133.4,499.8,126.4,486.1,124.4,472.4z"/>
		<path class="st2" d="M130.8,465.7c-3.9,0,1.9,17,3.9,16.7C137,482.2,134.2,465.7,130.8,465.7z"/>
		
			<linearGradient id="SVGID_00000007388495092116059780000013915834204526824584_" gradientUnits="userSpaceOnUse" x1="147.2743" y1="459.051" x2="147.2743" y2="555.826" gradientTransform="matrix(1 0 0 -1 0 614)">
			<stop  offset="0" style="stop-color:#B6ABD4"/>
			<stop  offset="1" style="stop-color:#E0D0E8"/>
		</linearGradient>
		<path style="fill:url(#SVGID_00000007388495092116059780000013915834204526824584_);" d="M174.8,75.9c0,0-17.5-15.1-38.7-17.6
			c0,0-6.4,3.1-14.2,26.8c-7.5,23.4,6.4,70,6.4,70L174.8,75.9z"/>
		
			<linearGradient id="SVGID_00000018922590165222277710000015602397918238725265_" gradientUnits="userSpaceOnUse" x1="140.3284" y1="495.585" x2="140.3284" y2="555.7572" gradientTransform="matrix(1 0 0 -1 0 614)">
			<stop  offset="0" style="stop-color:#B59CCA"/>
			<stop  offset="1" style="stop-color:#938AC2"/>
		</linearGradient>
		<path style="fill:url(#SVGID_00000018922590165222277710000015602397918238725265_);" d="M127.8,70c0,0,3.3-8.1,8.4-11.7
			c0,0,17.5,16.2,16.7,54.9l-5,5.3L127.8,70z"/>
		
			<linearGradient id="SVGID_00000024715919141003785110000014523903837492017813_" gradientUnits="userSpaceOnUse" x1="346.3307" y1="459.051" x2="346.3307" y2="555.826" gradientTransform="matrix(1 0 0 -1 0 614)">
			<stop  offset="0" style="stop-color:#B6ABD4"/>
			<stop  offset="1" style="stop-color:#E0D0E8"/>
		</linearGradient>
		<path style="fill:url(#SVGID_00000024715919141003785110000014523903837492017813_);" d="M318.8,75.9c0,0,17.5-15.1,38.7-17.6
			c0,0,6.4,3.1,14.2,26.8c7.5,23.4-6.4,70-6.4,70L318.8,75.9z"/>
		
			<linearGradient id="SVGID_00000028320548251049071850000006450578222190530230_" gradientUnits="userSpaceOnUse" x1="353.2905" y1="503.193" x2="353.2905" y2="555.7644" gradientTransform="matrix(1 0 0 -1 0 614)">
			<stop  offset="0" style="stop-color:#B59CCA"/>
			<stop  offset="1" style="stop-color:#938AC2"/>
		</linearGradient>
		<path style="fill:url(#SVGID_00000028320548251049071850000006450578222190530230_);" d="M357.5,58.3c0,0-17.3,18.4-17.3,48.2
			l6.7,4.2l19.5-40.2C366.4,70.6,360,58,357.5,58.3z"/>
		
			<linearGradient id="SVGID_00000127742890554718180180000014764192811017786265_" gradientUnits="userSpaceOnUse" x1="366.4398" y1="454.475" x2="366.4398" y2="549.5764" gradientTransform="matrix(1 0 0 -1 0 614)">
			<stop  offset="0" style="stop-color:#7AC5B1"/>
			<stop  offset="1" style="stop-color:#61C5E6"/>
		</linearGradient>
		<path style="fill:url(#SVGID_00000127742890554718180180000014764192811017786265_);" d="M346.3,108.8c0,0-4.5-25.4,12.2-44.3
			c0,0,18.9,8.9,26.7,42.1c7.8,33.2-12.5,53-12.5,53L346.3,108.8z"/>
		
			<linearGradient id="SVGID_00000167377419725960588960000010797454036301194663_" gradientUnits="userSpaceOnUse" x1="127.1651" y1="454.475" x2="127.1651" y2="549.5764" gradientTransform="matrix(1 0 0 -1 0 614)">
			<stop  offset="0" style="stop-color:#7AC5B1"/>
			<stop  offset="1" style="stop-color:#61C5E6"/>
		</linearGradient>
		<path style="fill:url(#SVGID_00000167377419725960588960000010797454036301194663_);" d="M147.3,108.8c0,0,4.5-25.4-12.2-44.3
			c0,0-18.9,8.9-26.7,42.1s12.5,53,12.5,53L147.3,108.8z"/>
		
			<linearGradient id="SVGID_00000163039658735887135090000003016945224739099778_" gradientUnits="userSpaceOnUse" x1="236.3345" y1="321.9147" x2="267.1294" y2="566.6776" gradientTransform="matrix(1 0 0 -1 0 614)">
			<stop  offset="0" style="stop-color:#CABFE0"/>
			<stop  offset="1" style="stop-color:#E7DBED"/>
		</linearGradient>
		<path style="fill:url(#SVGID_00000163039658735887135090000003016945224739099778_);" d="M369.7,249.6
			c-39,54.7-221.6,50.5-245.3,6.4c-15.6-28.7-13.9-72.2,1.1-112.1c19.5-52.4,62.1-98.7,118.3-98.7c66.3,0,117.2,66.1,132.5,126.3
			C383.9,202.2,382.5,231.2,369.7,249.6z"/>
		<path class="st25" d="M138.1,199.1c8.6,37.1,169.3,41.3,208.5,7.5c39.3-33.7-17.3-153.4-104.4-148.1
			C162.9,63.3,123.6,138.1,138.1,199.1z"/>
		
			<linearGradient id="SVGID_00000087387672632570024600000011704494802408155321_" gradientUnits="userSpaceOnUse" x1="246.3813" y1="389.1031" x2="246.3813" y2="560.3448" gradientTransform="matrix(1 0 0 -1 0 614)">
			<stop  offset="0" style="stop-color:#1F65AF"/>
			<stop  offset="1" style="stop-color:#292F6B"/>
		</linearGradient>
		<path style="fill:url(#SVGID_00000087387672632570024600000011704494802408155321_);" d="M137.3,194.4
			c8.6,37.1,169.3,41.3,208.5,7.5C385,168.2,328.5,48.5,241.4,53.8C162,58.6,122.8,133.6,137.3,194.4z"/>
		
			<linearGradient id="SVGID_00000177468933265113014860000014759911894369544340_" gradientUnits="userSpaceOnUse" x1="247.238" y1="324.1588" x2="247.238" y2="470.093" gradientTransform="matrix(1 0 0 -1 0 614)">
			<stop  offset="0" style="stop-color:#926AAB"/>
			<stop  offset="1" style="stop-color:#CDEAFC"/>
		</linearGradient>
		<path style="opacity:0.3;fill:url(#SVGID_00000177468933265113014860000014759911894369544340_);enable-background:new    ;" d="
			M369.7,249.6c-39,54.7-221.6,50.5-245.3,6.4c-15.6-28.7-13.9-72.2,1.1-112.1c-0.6,2.2-15.9,58.3-0.3,82.8
			c15.9,25.1,79.1,21.8,147,18.7c67.9-2.8,90.2-12.8,101.6-32.1c8.9-15.1,0-48.2-4.2-61.9l6.7,19.8
			C383.9,202.2,382.5,231.2,369.7,249.6z"/>
		
			<linearGradient id="SVGID_00000159438424173386829960000009521678982834107012_" gradientUnits="userSpaceOnUse" x1="149.064" y1="343.143" x2="338.869" y2="343.143" gradientTransform="matrix(1 0 0 -1 0 614)">
			<stop  offset="0" style="stop-color:#7975B5"/>
			<stop  offset="1" style="stop-color:#938AC2"/>
		</linearGradient>
		<path style="fill:url(#SVGID_00000159438424173386829960000009521678982834107012_);" d="M243.9,289.8c-37.9,0-65.4-4.2-80.7-10.6
			c-10-3.9-15-8.9-14.2-13.7c0.6-3.1,7.8-5.6,19.5-7.8c34.5-6.1,105.8-8.1,144.2-2.2c3.3,0.6,6.4,1.1,9.2,1.7c0.6,0,1.1,0.3,1.7,0.3
			h0.3c6.7,1.7,11.4,3.6,13.4,6.1c0.6,0.6,0.8,1.1,1.1,2C342.4,277.8,278.4,289.8,243.9,289.8z"/>
		
			<linearGradient id="SVGID_00000011714210934463602600000014395966646230797463_" gradientUnits="userSpaceOnUse" x1="243.5747" y1="334.643" x2="243.5747" y2="362.049" gradientTransform="matrix(1 0 0 -1 0 614)">
			<stop  offset="0" style="stop-color:#8FA3D4"/>
			<stop  offset="1" style="stop-color:#6E5CA4"/>
		</linearGradient>
		<path style="opacity:0.5;fill:url(#SVGID_00000011714210934463602600000014395966646230797463_);enable-background:new    ;" d="
			M338.3,262.4c0,0.3-0.3,0.8-0.6,1.1c-3.6,5.3-18.9,12-18.9,12s-57.9-23.7-105-13.1c-47.1,10.6-50.7,16.7-50.7,16.7
			c-10-3.9-15-8.9-14.2-13.7c0.6-3.1,7.8-5.6,19.5-7.8c34.5-6.1,105.8-8.1,144.2-2.2c3.9,0.8,7.8,1.4,10.9,2.2h0.3
			C333.2,259.6,338.8,261.3,338.3,262.4z"/>
		
			<linearGradient id="SVGID_00000118387579020618205830000009168915949096903098_" gradientUnits="userSpaceOnUse" x1="243.1387" y1="338.5296" x2="246.7137" y2="366.9426" gradientTransform="matrix(1 0 0 -1 0 614)">
			<stop  offset="0" style="stop-color:#4F4797"/>
			<stop  offset="1" style="stop-color:#6D4C98"/>
		</linearGradient>
		<path style="fill:url(#SVGID_00000118387579020618205830000009168915949096903098_);" d="M322.1,257.1
			c-8.9,8.6-52.1,15.9-76.6,15.9c-44,0-70.7-7-76.8-15.3C206.3,251,287,249.3,322.1,257.1z"/>
		
			<linearGradient id="SVGID_00000011729296741695563300000000945833088788062137_" gradientUnits="userSpaceOnUse" x1="234.6685" y1="132.7209" x2="261.4047" y2="345.2302" gradientTransform="matrix(1 0 0 -1 0 614)">
			<stop  offset="0" style="stop-color:#CABFE0"/>
			<stop  offset="1" style="stop-color:#E7DBED"/>
		</linearGradient>
		<path style="fill:url(#SVGID_00000011729296741695563300000000945833088788062137_);" d="M319.3,429.5
			c-5.3,31.2-33.4,52.2-73.5,52.2c-35.1,0-64.6-13.1-72.4-41.8c-7.8-28.7-4.7-82,5.6-114.9c1.7-5,3.3-9.8,5.6-14.2
			c1.9-4.2,4.2-8.1,6.7-11.7c12.8-19.2,31.5-31.8,52.6-31.8c22,0,38.7,8.9,50.4,22.6c5.3,6.1,9.5,13.4,12.5,20.9
			c3.3,8.6,6.4,18.1,8.6,27.6v0.3C322.7,368.7,324.1,401.3,319.3,429.5z"/>
		
			<linearGradient id="SVGID_00000044875223347684728660000005520497616732144774_" gradientUnits="userSpaceOnUse" x1="291.98" y1="297.0415" x2="317.238" y2="297.0415" gradientTransform="matrix(1 0 0 -1 0 614)">
			<stop  offset="0" style="stop-color:#7975B5"/>
			<stop  offset="1" style="stop-color:#938AC2"/>
		</linearGradient>
		<path style="fill:url(#SVGID_00000044875223347684728660000005520497616732144774_);" d="M292,287c0,0,3.3,37.4,25.3,60
			C317.4,346.9,311.3,312.1,292,287z"/>
		
			<linearGradient id="SVGID_00000093171046405470728450000014166451531668018064_" gradientUnits="userSpaceOnUse" x1="345.5245" y1="278.1629" x2="362.1867" y2="410.5953" gradientTransform="matrix(1 0 0 -1 0 614)">
			<stop  offset="0" style="stop-color:#CABFE0"/>
			<stop  offset="1" style="stop-color:#E7DBED"/>
		</linearGradient>
		<path style="fill:url(#SVGID_00000093171046405470728450000014166451531668018064_);" d="M415.4,241.5
			c-34.2,68-94.7,91.2-94.7,91.2c-16.7-10.9-31.2-46-25.3-52.7c0.3-0.3,0.6-0.6,1.1-0.8c73.5-35.4,95.8-72,95.8-72
			c10,0.8,15.6,6.4,18.9,13.1C415.9,230.1,415.4,241.5,415.4,241.5z"/>
		
			<linearGradient id="SVGID_00000063610591252800156970000002608737472672115092_" gradientUnits="userSpaceOnUse" x1="146.8977" y1="357.979" x2="146.8977" y2="396.431" gradientTransform="matrix(1 0 0 -1 0 614)">
			<stop  offset="0" style="stop-color:#8FA3D4"/>
			<stop  offset="1" style="stop-color:#6E5CA4"/>
		</linearGradient>
		<path style="opacity:0.5;fill:url(#SVGID_00000063610591252800156970000002608737472672115092_);enable-background:new    ;" d="
			M124.4,256c0,0,7.8-8.9,22.8-16.2c15-7.3,29-12.8,31.2-18.7c2.2-5.9-41.5-2.5-41.5-2.5l-21.7,9.5
			C115.3,228.1,118.6,245.7,124.4,256z"/>
		
			<linearGradient id="SVGID_00000157994182840769128790000008809053782918545849_" gradientUnits="userSpaceOnUse" x1="401.7411" y1="359.66" x2="401.7411" y2="407.353" gradientTransform="matrix(1 0 0 -1 0 614)">
			<stop  offset="0" style="stop-color:#B59CCA"/>
			<stop  offset="1" style="stop-color:#938AC2"/>
		</linearGradient>
		<path style="fill:url(#SVGID_00000157994182840769128790000008809053782918545849_);" d="M392.3,207.2c-6.1,1.7-5.6,42.4,2.2,46.6
			c7.8,4.2,20.9-12.3,20.9-12.3S414,201.4,392.3,207.2z"/>
		
			<linearGradient id="SVGID_00000057124908487492631400000017254826647216410037_" gradientUnits="userSpaceOnUse" x1="298.7803" y1="475.051" x2="298.7803" y2="516.129" gradientTransform="matrix(1 0 0 -1 0 614)">
			<stop  offset="0" style="stop-color:#7AC5B1"/>
			<stop  offset="1" style="stop-color:#61C5E6"/>
		</linearGradient>
		<path style="fill:url(#SVGID_00000057124908487492631400000017254826647216410037_);" d="M275.9,134.4c5.8,10.3,44.3,1.1,46.5-5
			c2.8-8.1-7.8-33.7-28.1-31.2C273.9,100.4,273.1,129.4,275.9,134.4z"/>
		
			<linearGradient id="SVGID_00000117637562705517729070000009088623803298317979_" gradientUnits="userSpaceOnUse" x1="193.1537" y1="475.051" x2="193.1537" y2="516.129" gradientTransform="matrix(1 0 0 -1 0 614)">
			<stop  offset="0" style="stop-color:#7AC5B1"/>
			<stop  offset="1" style="stop-color:#61C5E6"/>
		</linearGradient>
		<path style="fill:url(#SVGID_00000117637562705517729070000009088623803298317979_);" d="M216,134.4c-5.8,10.3-44.3,1.1-46.5-5
			c-2.8-8.1,7.8-33.7,28.1-31.2C218,100.4,218.8,129.4,216,134.4z"/>
		<path class="st38" d="M205.2,153.1c0,0,10.9,11.4,42,11.4s47-13.1,47-13.1s-13.6,18.7-47,18.7S205.2,153.1,205.2,153.1z"/>
		
			<linearGradient id="SVGID_00000088831465338684598380000005447114355111141543_" gradientUnits="userSpaceOnUse" x1="94.6712" y1="383.107" x2="108.7868" y2="495.303" gradientTransform="matrix(1 0 0 -1 0 614)">
			<stop  offset="0" style="stop-color:#B59CCA"/>
			<stop  offset="1" style="stop-color:#938AC2"/>
		</linearGradient>
		<path style="fill:url(#SVGID_00000088831465338684598380000005447114355111141543_);" d="M106.6,118.5c0,0,11.1,7.3,3.9,24
			c0,0-52.6,28.7-49.6,60c2.5,26.2,75.2,13.4,75.2,13.4l2.5,8.6c0,0-61.8,12-83-2.5c0,0-7.2-17.3,10.9-48.2
			C84.4,142.8,106.6,118.5,106.6,118.5z"/>
		
			<linearGradient id="SVGID_00000085213789400060997240000007452783800484879039_" gradientUnits="userSpaceOnUse" x1="149.3283" y1="382.4344" x2="156.5883" y2="413.2155" gradientTransform="matrix(1 0 0 -1 0 614)">
			<stop  offset="0" style="stop-color:#E62F2D"/>
			<stop  offset="1" style="stop-color:#751613"/>
		</linearGradient>
		<path style="fill:url(#SVGID_00000085213789400060997240000007452783800484879039_);" d="M127,213.6c-6.7,7.5,7.5,15.6,18.9,17
			c13.1,1.4,35.9-3.6,34.5-16.7C179,200.5,142.5,195.8,127,213.6z"/>
		
			<linearGradient id="SVGID_00000093870306174777379940000000830227718955979188_" gradientUnits="userSpaceOnUse" x1="163.3209" y1="520.1389" x2="338.2673" y2="520.1389" gradientTransform="matrix(1 0 0 -1 0 614)">
			<stop  offset="0" style="stop-color:#91D1FF"/>
			<stop  offset="1" style="stop-color:#7293CC"/>
		</linearGradient>
		<path style="opacity:0.5;fill:url(#SVGID_00000093870306174777379940000000830227718955979188_);enable-background:new    ;" d="
			M163.4,100.4c-1.9,12,24.8,11.4,61.2,10.3c43.7-1.4,87.7,36.3,113.3,9.2c4.2-4.5-37.6-63-88.3-61.9
			C199.1,59.7,165.1,90.1,163.4,100.4z"/>
		
			<linearGradient id="SVGID_00000025432425012899005660000009602463139971405441_" gradientUnits="userSpaceOnUse" x1="188.017" y1="404.7049" x2="312.321" y2="404.7049" gradientTransform="matrix(1 0 0 -1 0 614)">
			<stop  offset="0" style="stop-color:#85B6FF"/>
			<stop  offset="1" style="stop-color:#7293CC"/>
		</linearGradient>
		<path style="opacity:0.5;fill:url(#SVGID_00000025432425012899005660000009602463139971405441_);enable-background:new    ;" d="
			M188.2,205.3c-2.2,8.6,15.9,17.6,60.7,15.3c54.3-2.8,65.7-13.9,62.9-17.3c-1.7-2-17.8,8.4-62.4-1.4
			C220.2,195.5,190.7,196.1,188.2,205.3z"/>
		
			<linearGradient id="SVGID_00000109025081872982461700000012228044902445313211_" gradientUnits="userSpaceOnUse" x1="368.463" y1="463.391" x2="368.463" y2="467.345" gradientTransform="matrix(1 0 0 -1 0 614)">
			<stop  offset="0" style="stop-color:#926AAB"/>
			<stop  offset="1" style="stop-color:#CDEAFC"/>
		</linearGradient>
		<path style="opacity:0.3;fill:url(#SVGID_00000109025081872982461700000012228044902445313211_);enable-background:new    ;" d="
			M369.2,150.6l-1.4-3.9C368,147.5,368.6,148.6,369.2,150.6z"/>
		
			<linearGradient id="SVGID_00000116924325276328561590000007092157157499360410_" gradientUnits="userSpaceOnUse" x1="245.5731" y1="132.357" x2="245.5731" y2="303.317" gradientTransform="matrix(1 0 0 -1 0 614)">
			<stop  offset="0" style="stop-color:#926AAB"/>
			<stop  offset="1" style="stop-color:#CDEAFC"/>
		</linearGradient>
		<path style="opacity:0.3;fill:url(#SVGID_00000116924325276328561590000007092157157499360410_);enable-background:new    ;" d="
			M319.3,429.5c-5.3,31.2-33.4,52.2-73.5,52.2c-35.1,0-64.6-13.1-72.4-41.8c-7.8-28.7-4.7-82,5.6-114.9c1.7-5,3.3-9.8,5.6-14.2
			c0,0-21.2,70.3-4.2,115.2c17,44.9,95.8,43.8,122.5,13.9c25.3-28.2,13.6-94.8,12.5-101.2C322.7,368.7,324.1,401.3,319.3,429.5z"/>
		
			<linearGradient id="SVGID_00000106869355697690567250000014399187879872897408_" gradientUnits="userSpaceOnUse" x1="244.1038" y1="135.704" x2="244.1038" y2="270.4397" gradientTransform="matrix(1 0 0 -1 0 614)">
			<stop  offset="0" style="stop-color:#B59CCA"/>
			<stop  offset="1" style="stop-color:#938AC2"/>
		</linearGradient>
		<path style="fill:url(#SVGID_00000106869355697690567250000014399187879872897408_);" d="M175.1,410.8
			c5.8-42.1,39.8-70.6,77.1-66.9c40.4,3.9,62.1,42.4,61.5,75.6c-0.6,33.2-24.8,58.8-67.9,58.8C202.1,478.3,169.3,450.1,175.1,410.8z
			"/>
		
			<radialGradient id="SVGID_00000017497075185900516820000009031970973948768697_" cx="-251.5256" cy="844.7341" r="1" gradientTransform="matrix(102.65 0 0 -102.83 26065.7637 87324.7578)" gradientUnits="userSpaceOnUse">
			<stop  offset="0" style="stop-color:#7AC5B1"/>
			<stop  offset="1" style="stop-color:#61C5E6"/>
		</radialGradient>
		<path style="fill:url(#SVGID_00000017497075185900516820000009031970973948768697_);" d="M175.4,414.2
			c5.8-42.1,39.8-70.6,77.1-66.9c40.4,3.9,62.1,42.4,61.5,75.6c-0.6,33.2-24.8,58.8-67.9,58.8S169.8,453.8,175.4,414.2z"/>
		
			<linearGradient id="SVGID_00000022561420376717484350000005471296958635828620_" gradientUnits="userSpaceOnUse" x1="242.6662" y1="305.257" x2="242.6662" y2="346.9988" gradientTransform="matrix(1 0 0 -1 0 614)">
			<stop  offset="0" style="stop-color:#8FA3D4"/>
			<stop  offset="1" style="stop-color:#6E5CA4"/>
		</linearGradient>
		<path style="opacity:0.5;fill:url(#SVGID_00000022561420376717484350000005471296958635828620_);enable-background:new    ;" d="
			M294.3,289.5c-8.6,13.4-55.7,21.2-83,18.7c-23.7-2.2-20-8.6-20-9.5c12.8-19.2,31.5-31.8,52.6-31.8
			C265.9,266.9,282.9,276.1,294.3,289.5z"/>
		<path class="st2" d="M277.6,312.9c-2.2,0.8-2.2,18.4,0,21.2c2.2,2.8,5.8,2,7.2-2.2C285.9,327.7,280.9,311.8,277.6,312.9z"/>
		<path class="st2" d="M281.5,338.9c-1.9,0.6-1.9,4.7-1.1,6.4c0.8,1.7,3.9,1.1,4.5-0.6C285.4,342.8,283.4,338.3,281.5,338.9z"/>
		
			<linearGradient id="SVGID_00000031166872692794605680000011403632127672682415_" gradientUnits="userSpaceOnUse" x1="247.22" y1="139.858" x2="247.22" y2="163.201" gradientTransform="matrix(1 0 0 -1 0 614)">
			<stop  offset="0" style="stop-color:#D5E0F4"/>
			<stop  offset="1" style="stop-color:#71C5C3"/>
		</linearGradient>
		<path style="opacity:0.72;fill:url(#SVGID_00000031166872692794605680000011403632127672682415_);enable-background:new    ;" d="
			M199.1,457.1c0,0,9.7,16.7,45.7,17c35.9,0.3,50.7-21.5,50.7-21.5s-16.7,10.9-40.4,4.5C231.4,450.7,207.7,447.1,199.1,457.1z"/>
		<path class="st2" d="M274.8,53c-3.9,0.8,28.4,18.1,29.8,15.9C305.7,66.9,285.4,50.5,274.8,53z"/>
		<path class="st2" d="M336.6,65.5c-3.3,1.7-3.1,5.3,3.6,4.5c6.7-0.8,10.3-6.1,9.5-7.3C348.8,61.6,340.2,63.6,336.6,65.5z"/>
		
			<linearGradient id="SVGID_00000110448301266598540610000000094673966358400934_" gradientUnits="userSpaceOnUse" x1="354.7272" y1="281.284" x2="354.7272" y2="403.438" gradientTransform="matrix(1 0 0 -1 0 614)">
			<stop  offset="0" style="stop-color:#926AAB"/>
			<stop  offset="1" style="stop-color:#CDEAFC"/>
		</linearGradient>
		<path style="opacity:0.3;fill:url(#SVGID_00000110448301266598540610000000094673966358400934_);enable-background:new    ;" d="
			M415.4,241.5c-34.2,68-94.7,91.2-94.7,91.2c-16.7-10.9-31.2-46-25.3-52.7c0.3-0.3,0.6-0.6,1.1-0.8c0,0,10.9,39.6,42.3,28.7
			c37.3-13.1,52.6-78.1,52.6-78.1v-19.2l19.5,10C415.9,230.1,415.4,241.5,415.4,241.5z"/>
		
			<linearGradient id="SVGID_00000086673251805144413420000007547439168207040129_" gradientUnits="userSpaceOnUse" x1="411.1176" y1="369.0096" x2="423.5734" y2="468.014" gradientTransform="matrix(1 0 0 -1 0 614)">
			<stop  offset="0" style="stop-color:#CABFE0"/>
			<stop  offset="1" style="stop-color:#E7DBED"/>
		</linearGradient>
		<path style="fill:url(#SVGID_00000086673251805144413420000007547439168207040129_);" d="M390,218.6c0,0-0.3,21.5,12,25.1
			c12.2,3.3,27.3-19.2,33.1-28.7c5.6-9.5,14.2-51.9,6.1-62.2c-8.1-10-23.7-7.5-34.2,6.7C406.7,159.5,390.6,200.5,390,218.6z"/>
		
			<linearGradient id="SVGID_00000104697793729190277450000011731193945870048419_" gradientUnits="userSpaceOnUse" x1="409.388" y1="401.65" x2="409.388" y2="467.345" gradientTransform="matrix(1 0 0 -1 0 614)">
			<stop  offset="0" style="stop-color:#B59CCA"/>
			<stop  offset="1" style="stop-color:#938AC2"/>
		</linearGradient>
		<path style="fill:url(#SVGID_00000104697793729190277450000011731193945870048419_);" d="M390.6,212.2c0,0,14.2-10.9,17.3-27.3
			c3.1-16.5,20.3-38.5,20.3-38.5s-8.9-0.8-21.4,12.8C394.2,172.9,390.6,212.2,390.6,212.2z"/>
		
			<linearGradient id="SVGID_00000151503008713677299320000005979596551226870971_" gradientUnits="userSpaceOnUse" x1="407.4395" y1="413.631" x2="407.4395" y2="451.686" gradientTransform="matrix(1 0 0 -1 0 614)">
			<stop  offset="0" style="stop-color:#8FA3D4"/>
			<stop  offset="1" style="stop-color:#6E5CA4"/>
		</linearGradient>
		<path style="opacity:0.5;fill:url(#SVGID_00000151503008713677299320000005979596551226870971_);enable-background:new    ;" d="
			M404.5,162.3l10.9,4.2c0,0-4.7,8.1-6.7,15.9c-1.9,7.8-9.2,18.1-9.2,18.1L404.5,162.3z"/>
		
			<linearGradient id="SVGID_00000083046658250516296820000018071492485447815853_" gradientUnits="userSpaceOnUse" x1="392.8031" y1="405.4619" x2="399.7451" y2="460.6409" gradientTransform="matrix(1 0 0 -1 0 614)">
			<stop  offset="0" style="stop-color:#CABFE0"/>
			<stop  offset="1" style="stop-color:#E7DBED"/>
		</linearGradient>
		<path style="fill:url(#SVGID_00000083046658250516296820000018071492485447815853_);" d="M390.6,208.3c0,0-3.6-8.1-4.2-23.7
			c-0.6-15.6,3.3-27.9,5-30.1c1.7-2.2,7.8-2,10.9,1.7c3.1,3.6,5,20.6,5,20.6S403.1,204.4,390.6,208.3z"/>
		
			<linearGradient id="SVGID_00000143617971240949110340000015252896228178252928_" gradientUnits="userSpaceOnUse" x1="421.3595" y1="395.423" x2="421.3595" y2="431.839" gradientTransform="matrix(1 0 0 -1 0 614)">
			<stop  offset="0" style="stop-color:#B59CCA"/>
			<stop  offset="1" style="stop-color:#938AC2"/>
		</linearGradient>
		<path style="fill:url(#SVGID_00000143617971240949110340000015252896228178252928_);" d="M407.9,184.9c0,0,7.2,24,24.8,33.5
			l2.2-3.6c0,0-17.8-9.5-26.2-32.9L407.9,184.9z"/>
		<path class="st2" d="M395.3,165.9c-1.7-0.3-1.1,15.3,1.1,14.5C398.4,179.9,397.8,166.2,395.3,165.9z"/>
		
			<linearGradient id="SVGID_00000114753953839106690160000009264232188685299631_" gradientUnits="userSpaceOnUse" x1="151.3205" y1="397.756" x2="151.3205" y2="411.184" gradientTransform="matrix(1 0 0 -1 0 614)">
			<stop  offset="0" style="stop-color:#E62F2D"/>
			<stop  offset="1" style="stop-color:#ED6C6E"/>
		</linearGradient>
		<path style="fill:url(#SVGID_00000114753953839106690160000009264232188685299631_);" d="M127.8,215c-0.3,2.2,45.9,2.8,47-5.6
			C175.9,201.1,130.8,198.3,127.8,215z"/>
		
			<linearGradient id="SVGID_00000030451552310530894950000000405923528947814540_" gradientUnits="userSpaceOnUse" x1="189.4618" y1="233.5703" x2="306.4754" y2="233.5703" gradientTransform="matrix(1 0 0 -1 0 614)">
			<stop  offset="0" style="stop-color:#71C5C3"/>
			<stop  offset="1" style="stop-color:#D5E0F4"/>
		</linearGradient>
		<path style="opacity:0.72;fill:url(#SVGID_00000030451552310530894950000000405923528947814540_);enable-background:new    ;" d="
			M189.6,387.7c7.2,11.4,36.5,5.3,69.3,8.6c32.9,3.3,38.7,13.9,45.7,11.7c7-2.2-3.9-51.9-53.5-55.2
			C202.1,349.2,187.9,384.9,189.6,387.7z"/>
		
			<linearGradient id="SVGID_00000122690533267721422500000001986022611160950446_" gradientUnits="userSpaceOnUse" x1="460.2625" y1="494.0875" x2="468.8765" y2="615.2388" gradientTransform="matrix(1 0 0 -1 0 614)">
			<stop  offset="0" style="stop-color:#E62F2D"/>
			<stop  offset="1" style="stop-color:#ED6C6E"/>
		</linearGradient>
		<path style="fill:url(#SVGID_00000122690533267721422500000001986022611160950446_);" d="M416.8,3.3c0,0-0.3,65.5,4.7,97.3
			l50.7,20.1l-8.1-14.2l49.3-5.6c0,0,5.3-73.9,7-97.6C520.3,3.3,481.6-4.2,416.8,3.3z"/>
		
			<linearGradient id="SVGID_00000127728550834631717880000015509502394014859965_" gradientUnits="userSpaceOnUse" x1="351.333" y1="525.7462" x2="376.011" y2="525.7462" gradientTransform="matrix(1 0 0 -1 0 614)">
			<stop  offset="0" style="stop-color:#71C5C3"/>
			<stop  offset="1" style="stop-color:#D5E0F4"/>
		</linearGradient>
		<path style="opacity:0.72;fill:url(#SVGID_00000127728550834631717880000015509502394014859965_);enable-background:new    ;" d="
			M373.1,79.5c0,0-6.1-7.5-14.5-5.6c-8.4,2-8.9,28.4-3.9,29c5,0.6,7.2-14.5,10.9-17c3.9-2.5,10.6-1.4,10.6-1.4L373.1,79.5z"/>
		
			<linearGradient id="SVGID_00000037659376971317050320000007562578335960383877_" gradientUnits="userSpaceOnUse" x1="114.599" y1="529.5711" x2="141.7817" y2="529.5711" gradientTransform="matrix(1 0 0 -1 0 614)">
			<stop  offset="0" style="stop-color:#D5E0F4"/>
			<stop  offset="1" style="stop-color:#6DC5CC"/>
		</linearGradient>
		<path style="opacity:0.72;fill:url(#SVGID_00000037659376971317050320000007562578335960383877_);enable-background:new    ;" d="
			M114.7,88.7c0,0,3.3-3.6,10.6-2.5c7.2,1.1,11.4,16.2,15,14.5c3.6-1.4,1.1-25.7-8.9-32.6C131.4,68,118.9,78.9,114.7,88.7z"/>
		
			<linearGradient id="SVGID_00000072267390510172049660000008611763355737455252_" gradientUnits="userSpaceOnUse" x1="92.4501" y1="458.9339" x2="92.9691" y2="490.3279" gradientTransform="matrix(1 0 0 -1 0 614)">
			<stop  offset="0" style="stop-color:#CABFE0"/>
			<stop  offset="1" style="stop-color:#E7DBED"/>
		</linearGradient>
		<path style="fill:url(#SVGID_00000072267390510172049660000008611763355737455252_);" d="M104.7,123.8c0,0-25.6,28.7-23.9,31
			C82.1,156.7,106.3,126.9,104.7,123.8z"/>
		<path class="st2" d="M445.7,34c1.9,0,3.9,0.3,5.6,1.1c1.7,0.8,3.3,1.7,4.7,3.1c1.4,1.4,2.2,2.8,3.1,4.7c0.8,1.7,1.1,3.6,1.1,5.6
			c0,2-0.3,3.9-1.1,5.6c-0.8,1.7-1.7,3.3-3.1,4.7c-1.4,1.4-2.8,2.2-4.7,3.1c-1.7,0.8-3.6,1.1-5.6,1.1c-1.9,0-3.9-0.3-5.6-1.1
			c-1.7-0.8-3.3-1.7-4.5-3.1c-1.4-1.4-2.2-2.8-3.1-4.7c-0.8-1.7-1.1-3.6-1.1-5.6c0-2,0.3-3.9,1.1-5.6c0.8-1.7,1.7-3.3,3.1-4.7
			c1.4-1.4,2.8-2.2,4.5-3.1C441.8,34.3,443.5,34,445.7,34z M445.7,59.1c1.4,0,2.8-0.3,3.9-0.8c1.1-0.6,2.2-1.4,3.1-2.2
			c0.8-0.8,1.7-2,2.2-3.3c0.6-1.4,0.8-2.5,0.8-4.2c0-1.7-0.3-2.8-0.8-4.2c-0.6-1.4-1.1-2.5-2.2-3.3c-0.8-0.8-1.9-1.7-3.1-2.2
			c-1.1-0.6-2.5-0.8-3.9-0.8s-2.8,0.3-3.9,0.8c-1.1,0.6-2.2,1.4-3.1,2.2c-0.8,0.8-1.7,2-2.2,3.3c-0.6,1.4-0.8,2.8-0.8,4.2
			c0,1.4,0.3,2.8,0.8,4.2c0.6,1.4,1.1,2.5,2.2,3.3c0.8,0.8,1.9,1.7,3.1,2.2C442.9,58.8,444.3,59.1,445.7,59.1z"/>
		<path class="st2" d="M466.9,28.4h4.2V63h-4.2V28.4z"/>
		<path class="st2" d="M488,63l-0.3-2.5c-1.1,1.4-3.1,2.8-5.8,2.8c-3.9,0-5.8-2.8-5.8-5.6c0-4.7,4.2-7.3,11.4-7.3v-0.3
			c0-1.7-0.6-4.5-4.5-4.5c-1.7,0-3.6,0.6-5,1.4l-0.8-2.2c1.7-1.1,3.9-1.7,6.4-1.7c5.8,0,7.2,3.9,7.2,7.8v7.5c0,1.7,0,3.3,0.3,4.5
			H488z M487.8,53.3c-3.9,0-8.1,0.6-8.1,4.2c0,2.2,1.4,3.3,3.3,3.3c2.5,0,4.2-1.7,4.7-3.1c0-0.3,0.3-0.8,0.3-1.1v-3.3H487.8z
			 M489.4,35.7l-4.7,5.6h-2.5l3.3-5.6H489.4z"/>
		<path class="st2" d="M496.9,57.2V34h4.2v23.1H496.9z M501.1,58.8V63h-4.2v-4.2H501.1z"/>
	</g>
</g>
</svg>
