<svg width="403" height="42" viewBox="0 0 403 42" fill="none" xmlns="http://www.w3.org/2000/svg">
<path d="M9.85977 8.82937H12.2542C12.1903 9.67684 11.9552 10.4285 11.5489 11.0845C11.1426 11.7346 10.5766 12.2454 9.85106 12.6169C9.12548 12.9884 8.24608 13.1741 7.21285 13.1741C6.41762 13.1741 5.70074 13.0348 5.06223 12.7562C4.42953 12.4718 3.88679 12.0684 3.43403 11.5459C2.98707 11.0177 2.6446 10.385 2.40661 9.64782C2.16862 8.90483 2.04963 8.07186 2.04963 7.14892V6.18245C2.04963 5.25951 2.17152 4.42654 2.41532 3.68355C2.65911 2.94056 3.00739 2.30785 3.46015 1.78543C3.91872 1.25721 4.46726 0.850886 5.10577 0.566459C5.75008 0.282031 6.46986 0.139817 7.2651 0.139817C8.29832 0.139817 9.17192 0.331371 9.88589 0.714477C10.5999 1.09178 11.1542 1.61129 11.5489 2.27302C11.9436 2.93475 12.1816 3.69516 12.2629 4.55425H9.86848C9.82204 4.02022 9.70595 3.56746 9.5202 3.19596C9.34025 2.82446 9.06744 2.54294 8.70174 2.35139C8.34186 2.15403 7.86297 2.05535 7.2651 2.05535C6.80072 2.05535 6.3915 2.14242 6.03741 2.31656C5.68914 2.4907 5.3989 2.75191 5.16672 3.10018C4.93453 3.44266 4.76039 3.8722 4.6443 4.38881C4.52821 4.89962 4.47016 5.4917 4.47016 6.16504V7.14892C4.47016 7.79324 4.5224 8.3708 4.62689 8.88161C4.73137 9.39242 4.8939 9.82486 5.11448 10.1789C5.33505 10.533 5.61948 10.8029 5.96776 10.9887C6.31604 11.1744 6.73107 11.2673 7.21285 11.2673C7.79912 11.2673 8.2751 11.1744 8.6408 10.9887C9.01229 10.8029 9.29382 10.5301 9.48537 10.1702C9.68273 9.81035 9.80753 9.36339 9.85977 8.82937ZM24.3743 6.33917V6.9922C24.3743 7.94996 24.2466 8.81195 23.9912 9.57816C23.7358 10.3386 23.373 10.9858 22.9028 11.5198C22.4326 12.0538 21.8725 12.4631 21.2224 12.7475C20.5722 13.0319 19.8496 13.1741 19.0543 13.1741C18.2707 13.1741 17.5509 13.0319 16.895 12.7475C16.2449 12.4631 15.6818 12.0538 15.2058 11.5198C14.7299 10.9858 14.3613 10.3386 14.1001 9.57816C13.8389 8.81195 13.7082 7.94996 13.7082 6.9922V6.33917C13.7082 5.3756 13.8389 4.51361 14.1001 3.75321C14.3613 2.9928 14.727 2.34558 15.1971 1.81155C15.6673 1.27172 16.2275 0.859593 16.8776 0.575166C17.5335 0.290738 18.2533 0.148524 19.0369 0.148524C19.8321 0.148524 20.5548 0.290738 21.2049 0.575166C21.8551 0.859593 22.4152 1.27172 22.8854 1.81155C23.3614 2.34558 23.7271 2.9928 23.9825 3.75321C24.2437 4.51361 24.3743 5.3756 24.3743 6.33917ZM21.9537 6.9922V6.32176C21.9537 5.63101 21.8899 5.02442 21.7622 4.50201C21.6345 3.97378 21.4458 3.52973 21.1962 3.16984C20.9466 2.80995 20.639 2.54004 20.2733 2.36009C19.9076 2.17434 19.4955 2.08147 19.0369 2.08147C18.5725 2.08147 18.1604 2.17434 17.8005 2.36009C17.4464 2.54004 17.1446 2.80995 16.895 3.16984C16.6454 3.52973 16.4538 3.97378 16.3203 4.50201C16.1926 5.02442 16.1288 5.63101 16.1288 6.32176V6.9922C16.1288 7.67714 16.1926 8.28373 16.3203 8.81195C16.4538 9.34017 16.6454 9.78713 16.895 10.1528C17.1504 10.5127 17.458 10.7855 17.8179 10.9713C18.1778 11.157 18.59 11.2499 19.0543 11.2499C19.5187 11.2499 19.9308 11.157 20.2907 10.9713C20.6506 10.7855 20.9524 10.5127 21.1962 10.1528C21.4458 9.78713 21.6345 9.34017 21.7622 8.81195C21.8899 8.28373 21.9537 7.67714 21.9537 6.9922ZM36.5901 0.322664V13H34.187L28.7974 4.20597V13H26.403V0.322664H28.7974L34.2044 9.1254V0.322664H36.5901ZM44.2087 0.322664V13H41.823V0.322664H44.2087ZM48.1443 0.322664V2.21207H37.931V0.322664H48.1443ZM58.1399 11.1193V13H51.4007V11.1193H58.1399ZM52.1321 0.322664V13H49.7377V0.322664H52.1321ZM57.2605 5.55555V7.39272H51.4007V5.55555H57.2605ZM58.1138 0.322664V2.21207H51.4007V0.322664H58.1138ZM71.6618 8.82937H74.0562C73.9923 9.67684 73.7573 10.4285 73.3509 11.0845C72.9446 11.7346 72.3787 12.2454 71.6531 12.6169C70.9275 12.9884 70.0481 13.1741 69.0149 13.1741C68.2196 13.1741 67.5028 13.0348 66.8642 12.7562C66.2315 12.4718 65.6888 12.0684 65.236 11.5459C64.7891 11.0177 64.4466 10.385 64.2086 9.64782C63.9706 8.90483 63.8516 8.07186 63.8516 7.14892V6.18245C63.8516 5.25951 63.9735 4.42654 64.2173 3.68355C64.4611 2.94056 64.8094 2.30785 65.2622 1.78543C65.7207 1.25721 66.2693 0.850886 66.9078 0.566459C67.5521 0.282031 68.2719 0.139817 69.0671 0.139817C70.1003 0.139817 70.9739 0.331371 71.6879 0.714477C72.4019 1.09178 72.9562 1.61129 73.3509 2.27302C73.7456 2.93475 73.9836 3.69516 74.0649 4.55425H71.6705C71.6241 4.02022 71.508 3.56746 71.3222 3.19596C71.1423 2.82446 70.8694 2.54294 70.5038 2.35139C70.1439 2.15403 69.665 2.05535 69.0671 2.05535C68.6027 2.05535 68.1935 2.14242 67.8394 2.31656C67.4911 2.4907 67.2009 2.75191 66.9687 3.10018C66.7365 3.44266 66.5624 3.8722 66.4463 4.38881C66.3302 4.89962 66.2722 5.4917 66.2722 6.16504V7.14892C66.2722 7.79324 66.3244 8.3708 66.4289 8.88161C66.5334 9.39242 66.6959 9.82486 66.9165 10.1789C67.1371 10.533 67.4215 10.8029 67.7698 10.9887C68.118 11.1744 68.5331 11.2673 69.0149 11.2673C69.6011 11.2673 70.0771 11.1744 70.4428 10.9887C70.8143 10.8029 71.0958 10.5301 71.2874 10.1702C71.4847 9.81035 71.6095 9.36339 71.6618 8.82937ZM86.1763 6.33917V6.9922C86.1763 7.94996 86.0486 8.81195 85.7932 9.57816C85.5378 10.3386 85.175 10.9858 84.7048 11.5198C84.2346 12.0538 83.6745 12.4631 83.0244 12.7475C82.3743 13.0319 81.6516 13.1741 80.8563 13.1741C80.0727 13.1741 79.3529 13.0319 78.697 12.7475C78.0469 12.4631 77.4838 12.0538 77.0079 11.5198C76.5319 10.9858 76.1633 10.3386 75.9021 9.57816C75.6409 8.81195 75.5103 7.94996 75.5103 6.9922V6.33917C75.5103 5.3756 75.6409 4.51361 75.9021 3.75321C76.1633 2.9928 76.529 2.34558 76.9992 1.81155C77.4693 1.27172 78.0295 0.859593 78.6796 0.575166C79.3355 0.290738 80.0553 0.148524 80.8389 0.148524C81.6342 0.148524 82.3568 0.290738 83.007 0.575166C83.6571 0.859593 84.2172 1.27172 84.6874 1.81155C85.1634 2.34558 85.5291 2.9928 85.7845 3.75321C86.0457 4.51361 86.1763 5.3756 86.1763 6.33917ZM83.7558 6.9922V6.32176C83.7558 5.63101 83.6919 5.02442 83.5642 4.50201C83.4365 3.97378 83.2478 3.52973 82.9983 3.16984C82.7487 2.80995 82.441 2.54004 82.0753 2.36009C81.7096 2.17434 81.2975 2.08147 80.8389 2.08147C80.3746 2.08147 79.9624 2.17434 79.6025 2.36009C79.2485 2.54004 78.9466 2.80995 78.697 3.16984C78.4474 3.52973 78.2559 3.97378 78.1224 4.50201C77.9946 5.02442 77.9308 5.63101 77.9308 6.32176V6.9922C77.9308 7.67714 77.9946 8.28373 78.1224 8.81195C78.2559 9.34017 78.4474 9.78713 78.697 10.1528C78.9524 10.5127 79.2601 10.7855 79.6199 10.9713C79.9798 11.157 80.392 11.2499 80.8563 11.2499C81.3207 11.2499 81.7328 11.157 82.0927 10.9713C82.4526 10.7855 82.7545 10.5127 82.9983 10.1528C83.2478 9.78713 83.4365 9.34017 83.5642 8.81195C83.6919 8.28373 83.7558 7.67714 83.7558 6.9922ZM89.2498 0.322664H91.3221L94.7875 9.86549L98.2441 0.322664H100.325L95.6146 13H93.9516L89.2498 0.322664ZM88.205 0.322664H90.2337L90.5994 9.09057V13H88.205V0.322664ZM99.3325 0.322664H101.37V13H98.9755V9.09057L99.3325 0.322664ZM118.514 6.33917V6.9922C118.514 7.94996 118.386 8.81195 118.131 9.57816C117.875 10.3386 117.513 10.9858 117.042 11.5198C116.572 12.0538 116.012 12.4631 115.362 12.7475C114.712 13.0319 113.989 13.1741 113.194 13.1741C112.41 13.1741 111.691 13.0319 111.035 12.7475C110.385 12.4631 109.821 12.0538 109.346 11.5198C108.87 10.9858 108.501 10.3386 108.24 9.57816C107.979 8.81195 107.848 7.94996 107.848 6.9922V6.33917C107.848 5.3756 107.979 4.51361 108.24 3.75321C108.501 2.9928 108.867 2.34558 109.337 1.81155C109.807 1.27172 110.367 0.859593 111.017 0.575166C111.673 0.290738 112.393 0.148524 113.177 0.148524C113.972 0.148524 114.694 0.290738 115.345 0.575166C115.995 0.859593 116.555 1.27172 117.025 1.81155C117.501 2.34558 117.867 2.9928 118.122 3.75321C118.383 4.51361 118.514 5.3756 118.514 6.33917ZM116.093 6.9922V6.32176C116.093 5.63101 116.03 5.02442 115.902 4.50201C115.774 3.97378 115.586 3.52973 115.336 3.16984C115.086 2.80995 114.779 2.54004 114.413 2.36009C114.047 2.17434 113.635 2.08147 113.177 2.08147C112.712 2.08147 112.3 2.17434 111.94 2.36009C111.586 2.54004 111.284 2.80995 111.035 3.16984C110.785 3.52973 110.594 3.97378 110.46 4.50201C110.332 5.02442 110.268 5.63101 110.268 6.32176V6.9922C110.268 7.67714 110.332 8.28373 110.46 8.81195C110.594 9.34017 110.785 9.78713 111.035 10.1528C111.29 10.5127 111.598 10.7855 111.958 10.9713C112.317 11.157 112.73 11.2499 113.194 11.2499C113.658 11.2499 114.07 11.157 114.43 10.9713C114.79 10.7855 115.092 10.5127 115.336 10.1528C115.586 9.78713 115.774 9.34017 115.902 8.81195C116.03 8.28373 116.093 7.67714 116.093 6.9922ZM131.783 11.2151L135.162 13.8968L133.629 15.229L130.303 12.5647L131.783 11.2151ZM135.223 6.33917V6.9922C135.223 7.94996 135.095 8.81195 134.839 9.57816C134.584 10.3386 134.218 10.9858 133.742 11.5198C133.272 12.0538 132.712 12.4631 132.062 12.7475C131.412 13.0319 130.692 13.1741 129.903 13.1741C129.119 13.1741 128.399 13.0319 127.743 12.7475C127.093 12.4631 126.53 12.0538 126.054 11.5198C125.578 10.9858 125.21 10.3386 124.948 9.57816C124.687 8.81195 124.557 7.94996 124.557 6.9922V6.33917C124.557 5.3756 124.684 4.51361 124.94 3.75321C125.201 2.9928 125.567 2.34558 126.037 1.81155C126.513 1.27172 127.076 0.859593 127.726 0.575166C128.382 0.290738 129.102 0.148524 129.885 0.148524C130.675 0.148524 131.394 0.290738 132.045 0.575166C132.7 0.859593 133.264 1.27172 133.734 1.81155C134.21 2.34558 134.575 2.9928 134.831 3.75321C135.092 4.51361 135.223 5.3756 135.223 6.33917ZM132.802 6.9922V6.32176C132.802 5.63101 132.738 5.02442 132.611 4.50201C132.483 3.97378 132.291 3.52973 132.036 3.16984C131.786 2.80995 131.482 2.54004 131.122 2.36009C130.762 2.17434 130.35 2.08147 129.885 2.08147C129.427 2.08147 129.017 2.17434 128.658 2.36009C128.298 2.54004 127.993 2.80995 127.743 3.16984C127.494 3.52973 127.302 3.97378 127.169 4.50201C127.041 5.02442 126.977 5.63101 126.977 6.32176V6.9922C126.977 7.67714 127.041 8.28373 127.169 8.81195C127.302 9.34017 127.494 9.78713 127.743 10.1528C127.999 10.5127 128.306 10.7855 128.666 10.9713C129.032 11.157 129.444 11.2499 129.903 11.2499C130.367 11.2499 130.779 11.157 131.139 10.9713C131.499 10.7855 131.801 10.5127 132.045 10.1528C132.294 9.78713 132.483 9.34017 132.611 8.81195C132.738 8.28373 132.802 7.67714 132.802 6.9922ZM144.33 0.322664H146.725V8.7423C146.725 9.71167 146.516 10.5272 146.098 11.189C145.68 11.8449 145.111 12.3412 144.391 12.6778C143.671 13.0087 142.853 13.1741 141.936 13.1741C141.007 13.1741 140.18 13.0087 139.454 12.6778C138.729 12.3412 138.16 11.8449 137.748 11.189C137.335 10.5272 137.129 9.71167 137.129 8.7423V0.322664H139.524V8.7423C139.524 9.33437 139.623 9.81906 139.82 10.1964C140.017 10.5679 140.296 10.8436 140.656 11.0235C141.016 11.2035 141.442 11.2934 141.936 11.2934C142.435 11.2934 142.862 11.2035 143.216 11.0235C143.575 10.8436 143.851 10.5679 144.043 10.1964C144.234 9.81906 144.33 9.33437 144.33 8.7423V0.322664ZM157.399 11.1193V13H150.66V11.1193H157.399ZM151.391 0.322664V13H148.997V0.322664H151.391ZM156.52 5.55555V7.39272H150.66V5.55555H156.52ZM157.373 0.322664V2.21207H150.66V0.322664H157.373ZM168.544 2.2469L164.931 13H162.397L167.134 0.322664H168.753L168.544 2.2469ZM171.565 13L167.935 2.2469L167.717 0.322664H169.345L174.108 13H171.565ZM171.4 8.28953V10.1789H164.6V8.28953H171.4ZM183.642 13H180.908L180.925 11.1193H183.642C184.379 11.1193 184.997 10.9568 185.497 10.6317C185.996 10.3008 186.373 9.82776 186.629 9.21247C186.884 8.59138 187.012 7.84838 187.012 6.98349V6.33047C187.012 5.66293 186.939 5.07376 186.794 4.56295C186.649 4.05215 186.434 3.6226 186.15 3.27432C185.871 2.92605 185.526 2.66193 185.113 2.48199C184.701 2.30205 184.228 2.21207 183.694 2.21207H180.856V0.322664H183.694C184.542 0.322664 185.314 0.464877 186.01 0.749305C186.713 1.03373 187.319 1.44296 187.83 1.97699C188.347 2.50521 188.741 3.13791 189.014 3.8751C189.293 4.61229 189.432 5.43655 189.432 6.34788V6.98349C189.432 7.88901 189.293 8.71327 189.014 9.45627C188.741 10.1935 188.347 10.8262 187.83 11.3544C187.319 11.8826 186.71 12.2889 186.002 12.5734C185.293 12.8578 184.507 13 183.642 13ZM182.249 0.322664V13H179.854V0.322664H182.249ZM199.872 11.1193V13H193.133V11.1193H199.872ZM193.864 0.322664V13H191.47V0.322664H193.864ZM198.992 5.55555V7.39272H193.133V5.55555H198.992ZM199.846 0.322664V2.21207H193.133V0.322664H199.846ZM207.02 0.322664H209.092L212.558 9.86549L216.015 0.322664H218.095L213.385 13H211.722L207.02 0.322664ZM205.975 0.322664H208.004L208.37 9.09057V13H205.975V0.322664ZM217.103 0.322664H219.14V13H216.746V9.09057L217.103 0.322664ZM229.98 11.1193V13H223.241V11.1193H229.98ZM223.973 0.322664V13H221.578V0.322664H223.973ZM229.101 5.55555V7.39272H223.241V5.55555H229.101ZM229.954 0.322664V2.21207H223.241V0.322664H229.954ZM239.689 11.1193V13H233.315V11.1193H239.689ZM234.038 0.322664V13H231.643V0.322664H234.038ZM249.702 5.55555V7.43625H243.032V5.55555H249.702ZM243.685 0.322664V13H241.291V0.322664H243.685ZM251.478 0.322664V13H249.084V0.322664H251.478ZM264.181 6.33917V6.9922C264.181 7.94996 264.054 8.81195 263.798 9.57816C263.543 10.3386 263.18 10.9858 262.71 11.5198C262.24 12.0538 261.68 12.4631 261.029 12.7475C260.379 13.0319 259.657 13.1741 258.861 13.1741C258.078 13.1741 257.358 13.0319 256.702 12.7475C256.052 12.4631 255.489 12.0538 255.013 11.5198C254.537 10.9858 254.168 10.3386 253.907 9.57816C253.646 8.81195 253.515 7.94996 253.515 6.9922V6.33917C253.515 5.3756 253.646 4.51361 253.907 3.75321C254.168 2.9928 254.534 2.34558 255.004 1.81155C255.474 1.27172 256.035 0.859593 256.685 0.575166C257.341 0.290738 258.06 0.148524 258.844 0.148524C259.639 0.148524 260.362 0.290738 261.012 0.575166C261.662 0.859593 262.222 1.27172 262.693 1.81155C263.169 2.34558 263.534 2.9928 263.79 3.75321C264.051 4.51361 264.181 5.3756 264.181 6.33917ZM261.761 6.9922V6.32176C261.761 5.63101 261.697 5.02442 261.569 4.50201C261.442 3.97378 261.253 3.52973 261.003 3.16984C260.754 2.80995 260.446 2.54004 260.08 2.36009C259.715 2.17434 259.303 2.08147 258.844 2.08147C258.38 2.08147 257.968 2.17434 257.608 2.36009C257.254 2.54004 256.952 2.80995 256.702 3.16984C256.453 3.52973 256.261 3.97378 256.127 4.50201C256 5.02442 255.936 5.63101 255.936 6.32176V6.9922C255.936 7.67714 256 8.28373 256.127 8.81195C256.261 9.34017 256.453 9.78713 256.702 10.1528C256.958 10.5127 257.265 10.7855 257.625 10.9713C257.985 11.157 258.397 11.2499 258.861 11.2499C259.326 11.2499 259.738 11.157 260.098 10.9713C260.458 10.7855 260.76 10.5127 261.003 10.1528C261.253 9.78713 261.442 9.34017 261.569 8.81195C261.697 8.28373 261.761 7.67714 261.761 6.9922ZM266.21 0.322664H270.816C271.78 0.322664 272.607 0.46778 273.298 0.758012C273.988 1.04824 274.519 1.47779 274.891 2.04664C275.262 2.6155 275.448 3.31496 275.448 4.14502C275.448 4.80094 275.332 5.3698 275.1 5.85158C274.868 6.33337 274.54 6.73679 274.116 7.06185C273.698 7.38691 273.205 7.64232 272.636 7.82806L271.887 8.21117H267.821L267.804 6.32176H270.842C271.336 6.32176 271.745 6.23469 272.07 6.06055C272.395 5.88641 272.639 5.64552 272.801 5.33787C272.97 5.03023 273.054 4.67905 273.054 4.28433C273.054 3.86059 272.973 3.4949 272.81 3.18725C272.647 2.8738 272.401 2.63291 272.07 2.46458C271.739 2.29624 271.321 2.21207 270.816 2.21207H268.605V13H266.21V0.322664ZM273.367 13L270.433 7.32306L272.967 7.31435L275.936 12.8781V13H273.367ZM292.174 0.322664V13H289.771L284.382 4.20597V13H281.987V0.322664H284.382L289.789 9.1254V0.322664H292.174ZM304.878 6.33917V6.9922C304.878 7.94996 304.75 8.81195 304.495 9.57816C304.239 10.3386 303.876 10.9858 303.406 11.5198C302.936 12.0538 302.376 12.4631 301.726 12.7475C301.076 13.0319 300.353 13.1741 299.558 13.1741C298.774 13.1741 298.054 13.0319 297.398 12.7475C296.748 12.4631 296.185 12.0538 295.709 11.5198C295.233 10.9858 294.865 10.3386 294.604 9.57816C294.342 8.81195 294.212 7.94996 294.212 6.9922V6.33917C294.212 5.3756 294.342 4.51361 294.604 3.75321C294.865 2.9928 295.23 2.34558 295.701 1.81155C296.171 1.27172 296.731 0.859593 297.381 0.575166C298.037 0.290738 298.757 0.148524 299.54 0.148524C300.336 0.148524 301.058 0.290738 301.708 0.575166C302.359 0.859593 302.919 1.27172 303.389 1.81155C303.865 2.34558 304.231 2.9928 304.486 3.75321C304.747 4.51361 304.878 5.3756 304.878 6.33917ZM302.457 6.9922V6.32176C302.457 5.63101 302.393 5.02442 302.266 4.50201C302.138 3.97378 301.949 3.52973 301.7 3.16984C301.45 2.80995 301.142 2.54004 300.777 2.36009C300.411 2.17434 299.999 2.08147 299.54 2.08147C299.076 2.08147 298.664 2.17434 298.304 2.36009C297.95 2.54004 297.648 2.80995 297.398 3.16984C297.149 3.52973 296.957 3.97378 296.824 4.50201C296.696 5.02442 296.632 5.63101 296.632 6.32176V6.9922C296.632 7.67714 296.696 8.28373 296.824 8.81195C296.957 9.34017 297.149 9.78713 297.398 10.1528C297.654 10.5127 297.962 10.7855 298.321 10.9713C298.681 11.157 299.093 11.2499 299.558 11.2499C300.022 11.2499 300.434 11.157 300.794 10.9713C301.154 10.7855 301.456 10.5127 301.7 10.1528C301.949 9.78713 302.138 9.34017 302.266 8.81195C302.393 8.28373 302.457 7.67714 302.457 6.9922ZM312.392 0.322664H314.464L317.929 9.86549L321.386 0.322664H323.467L318.757 13H317.094L312.392 0.322664ZM311.347 0.322664H313.376L313.741 9.09057V13H311.347V0.322664ZM322.475 0.322664H324.512V13H322.118V9.09057L322.475 0.322664ZM334.003 0.322664H336.397V8.7423C336.397 9.71167 336.188 10.5272 335.77 11.189C335.352 11.8449 334.783 12.3412 334.063 12.6778C333.344 13.0087 332.525 13.1741 331.608 13.1741C330.679 13.1741 329.852 13.0087 329.127 12.6778C328.401 12.3412 327.832 11.8449 327.42 11.189C327.008 10.5272 326.802 9.71167 326.802 8.7423V0.322664H329.196V8.7423C329.196 9.33437 329.295 9.81906 329.492 10.1964C329.69 10.5679 329.968 10.8436 330.328 11.0235C330.688 11.2035 331.115 11.2934 331.608 11.2934C332.107 11.2934 332.534 11.2035 332.888 11.0235C333.248 10.8436 333.524 10.5679 333.715 10.1964C333.907 9.81906 334.003 9.33437 334.003 8.7423V0.322664ZM348.857 0.322664V13H346.453L341.064 4.20597V13H338.669V0.322664H341.064L346.471 9.1254V0.322664H348.857ZM355.082 13H352.348L352.366 11.1193H355.082C355.819 11.1193 356.437 10.9568 356.937 10.6317C357.436 10.3008 357.813 9.82776 358.069 9.21247C358.324 8.59138 358.452 7.84838 358.452 6.98349V6.33047C358.452 5.66293 358.379 5.07376 358.234 4.56295C358.089 4.05215 357.874 3.6226 357.59 3.27432C357.311 2.92605 356.966 2.66193 356.554 2.48199C356.141 2.30205 355.668 2.21207 355.134 2.21207H352.296V0.322664H355.134C355.982 0.322664 356.754 0.464877 357.45 0.749305C358.153 1.03373 358.759 1.44296 359.27 1.97699C359.787 2.50521 360.181 3.13791 360.454 3.8751C360.733 4.61229 360.872 5.43655 360.872 6.34788V6.98349C360.872 7.88901 360.733 8.71327 360.454 9.45627C360.181 10.1935 359.787 10.8262 359.27 11.3544C358.759 11.8826 358.15 12.2889 357.442 12.5734C356.734 12.8578 355.947 13 355.082 13ZM353.689 0.322664V13H351.295V0.322664H353.689ZM373.175 6.33917V6.9922C373.175 7.94996 373.047 8.81195 372.792 9.57816C372.537 10.3386 372.174 10.9858 371.704 11.5198C371.233 12.0538 370.673 12.4631 370.023 12.7475C369.373 13.0319 368.65 13.1741 367.855 13.1741C367.072 13.1741 366.352 13.0319 365.696 12.7475C365.046 12.4631 364.483 12.0538 364.007 11.5198C363.531 10.9858 363.162 10.3386 362.901 9.57816C362.64 8.81195 362.509 7.94996 362.509 6.9922V6.33917C362.509 5.3756 362.64 4.51361 362.901 3.75321C363.162 2.9928 363.528 2.34558 363.998 1.81155C364.468 1.27172 365.028 0.859593 365.678 0.575166C366.334 0.290738 367.054 0.148524 367.838 0.148524C368.633 0.148524 369.356 0.290738 370.006 0.575166C370.656 0.859593 371.216 1.27172 371.686 1.81155C372.162 2.34558 372.528 2.9928 372.783 3.75321C373.045 4.51361 373.175 5.3756 373.175 6.33917ZM370.755 6.9922V6.32176C370.755 5.63101 370.691 5.02442 370.563 4.50201C370.435 3.97378 370.247 3.52973 369.997 3.16984C369.748 2.80995 369.44 2.54004 369.074 2.36009C368.708 2.17434 368.296 2.08147 367.838 2.08147C367.373 2.08147 366.961 2.17434 366.601 2.36009C366.247 2.54004 365.945 2.80995 365.696 3.16984C365.446 3.52973 365.255 3.97378 365.121 4.50201C364.994 5.02442 364.93 5.63101 364.93 6.32176V6.9922C364.93 7.67714 364.994 8.28373 365.121 8.81195C365.255 9.34017 365.446 9.78713 365.696 10.1528C365.951 10.5127 366.259 10.7855 366.619 10.9713C366.979 11.157 367.391 11.2499 367.855 11.2499C368.32 11.2499 368.732 11.157 369.092 10.9713C369.451 10.7855 369.753 10.5127 369.997 10.1528C370.247 9.78713 370.435 9.34017 370.563 8.81195C370.691 8.28373 370.755 7.67714 370.755 6.9922ZM383.432 13H380.698L380.715 11.1193H383.432C384.169 11.1193 384.787 10.9568 385.287 10.6317C385.786 10.3008 386.163 9.82776 386.418 9.21247C386.674 8.59138 386.802 7.84838 386.802 6.98349V6.33047C386.802 5.66293 386.729 5.07376 386.584 4.56295C386.439 4.05215 386.224 3.6226 385.94 3.27432C385.661 2.92605 385.316 2.66193 384.903 2.48199C384.491 2.30205 384.018 2.21207 383.484 2.21207H380.646V0.322664H383.484C384.332 0.322664 385.104 0.464877 385.8 0.749305C386.503 1.03373 387.109 1.44296 387.62 1.97699C388.137 2.50521 388.531 3.13791 388.804 3.8751C389.083 4.61229 389.222 5.43655 389.222 6.34788V6.98349C389.222 7.88901 389.083 8.71327 388.804 9.45627C388.531 10.1935 388.137 10.8262 387.62 11.3544C387.109 11.8826 386.5 12.2889 385.792 12.5734C385.083 12.8578 384.297 13 383.432 13ZM382.039 0.322664V13H379.644V0.322664H382.039ZM396.109 2.2469L392.496 13H389.962L394.699 0.322664H396.318L396.109 2.2469ZM399.131 13L395.5 2.2469L395.282 0.322664H396.91L401.673 13H399.131ZM398.965 8.28953V10.1789H392.165V8.28953H398.965Z" fill="#3399F5"/>
<path d="M9.21557 23.9279V41H6.00282V23.9279H9.21557ZM14.5154 23.9279V26.4723H0.761576V23.9279H14.5154ZM27.9762 38.4673V41H18.9007V38.4673H27.9762ZM19.8857 23.9279V41H16.6612V23.9279H19.8857ZM26.7919 30.9748V33.4489H18.9007V30.9748H26.7919ZM27.941 23.9279V26.4723H18.9007V23.9279H27.941ZM40.2057 35.3835H43.4302C43.3442 36.5248 43.0276 37.5371 42.4805 38.4204C41.9333 39.2959 41.1711 39.9838 40.194 40.4841C39.2169 40.9844 38.0326 41.2345 36.6412 41.2345C35.5703 41.2345 34.6049 41.0469 33.7451 40.6717C32.893 40.2887 32.1621 39.7454 31.5524 39.0419C30.9505 38.3305 30.4893 37.4785 30.1688 36.4857C29.8483 35.4852 29.6881 34.3634 29.6881 33.1205V31.819C29.6881 30.5761 29.8522 29.4544 30.1805 28.4538C30.5089 27.4533 30.9779 26.6012 31.5876 25.8977C32.2051 25.1864 32.9438 24.6392 33.8037 24.2562C34.6714 23.8731 35.6407 23.6816 36.7116 23.6816C38.103 23.6816 39.2794 23.9396 40.2409 24.4555C41.2024 24.9636 41.9489 25.6632 42.4805 26.5543C43.012 27.4455 43.3325 28.4695 43.4419 29.6264H40.2175C40.1549 28.9072 39.9986 28.2975 39.7484 27.7972C39.5061 27.2969 39.1387 26.9178 38.6463 26.6599C38.1616 26.3941 37.5167 26.2612 36.7116 26.2612C36.0862 26.2612 35.5351 26.3785 35.0583 26.613C34.5893 26.8475 34.1984 27.1992 33.8858 27.6682C33.5731 28.1294 33.3386 28.7079 33.1822 29.4036C33.0259 30.0915 32.9477 30.8888 32.9477 31.7956V33.1205C32.9477 33.9882 33.0181 34.766 33.1588 35.4539C33.2995 36.1418 33.5184 36.7241 33.8154 37.201C34.1125 37.6778 34.4955 38.0413 34.9645 38.2914C35.4335 38.5416 35.9924 38.6667 36.6412 38.6667C37.4307 38.6667 38.0717 38.5416 38.5642 38.2914C39.0645 38.0413 39.4436 37.6739 39.7015 37.1893C39.9673 36.7046 40.1354 36.1027 40.2057 35.3835ZM59.6464 23.9279V41H56.4102L49.1522 29.1574V41H45.9277V23.9279H49.1522L56.4337 35.7822V23.9279H59.6464ZM76.7537 32.0301V32.9095C76.7537 34.1993 76.5818 35.3601 76.2378 36.3919C75.8939 37.4159 75.4053 38.2875 74.7721 39.0067C74.139 39.7258 73.3846 40.2769 72.5091 40.66C71.6337 41.043 70.6604 41.2345 69.5895 41.2345C68.5342 41.2345 67.5649 41.043 66.6816 40.66C65.8061 40.2769 65.0479 39.7258 64.4069 39.0067C63.7659 38.2875 63.2696 37.4159 62.9178 36.3919C62.566 35.3601 62.3902 34.1993 62.3902 32.9095V32.0301C62.3902 30.7325 62.566 29.5717 62.9178 28.5477C63.2696 27.5236 63.762 26.652 64.3952 25.9329C65.0284 25.2059 65.7827 24.6509 66.6582 24.2679C67.5415 23.8849 68.5108 23.6933 69.5661 23.6933C70.637 23.6933 71.6102 23.8849 72.4857 24.2679C73.3612 24.6509 74.1155 25.2059 74.7487 25.9329C75.3897 26.652 75.8821 27.5236 76.2261 28.5477C76.5779 29.5717 76.7537 30.7325 76.7537 32.0301ZM73.4941 32.9095V32.0066C73.4941 31.0764 73.4081 30.2596 73.2361 29.556C73.0642 28.8447 72.8101 28.2467 72.474 27.7621C72.1378 27.2774 71.7235 26.9139 71.2311 26.6716C70.7386 26.4214 70.1836 26.2964 69.5661 26.2964C68.9407 26.2964 68.3857 26.4214 67.9011 26.6716C67.4242 26.9139 67.0178 27.2774 66.6816 27.7621C66.3455 28.2467 66.0876 28.8447 65.9078 29.556C65.7358 30.2596 65.6498 31.0764 65.6498 32.0066V32.9095C65.6498 33.8319 65.7358 34.6488 65.9078 35.3601C66.0876 36.0714 66.3455 36.6733 66.6816 37.1658C67.0256 37.6505 67.4399 38.0178 67.9245 38.268C68.4092 38.5181 68.9642 38.6432 69.5895 38.6432C70.2149 38.6432 70.7699 38.5181 71.2545 38.268C71.7392 38.0178 72.1457 37.6505 72.474 37.1658C72.8101 36.6733 73.0642 36.0714 73.2361 35.3601C73.4081 34.6488 73.4941 33.8319 73.4941 32.9095ZM90.32 38.4673V41H81.737V38.4673H90.32ZM82.7102 23.9279V41H79.4857V23.9279H82.7102ZM105.528 32.0301V32.9095C105.528 34.1993 105.356 35.3601 105.012 36.3919C104.668 37.4159 104.179 38.2875 103.546 39.0067C102.913 39.7258 102.159 40.2769 101.283 40.66C100.408 41.043 99.4345 41.2345 98.3636 41.2345C97.3083 41.2345 96.339 41.043 95.4557 40.66C94.5802 40.2769 93.822 39.7258 93.181 39.0067C92.54 38.2875 92.0436 37.4159 91.6919 36.3919C91.3401 35.3601 91.1642 34.1993 91.1642 32.9095V32.0301C91.1642 30.7325 91.3401 29.5717 91.6919 28.5477C92.0436 27.5236 92.5361 26.652 93.1693 25.9329C93.8024 25.2059 94.5568 24.6509 95.4323 24.2679C96.3156 23.8849 97.2849 23.6933 98.3402 23.6933C99.4111 23.6933 100.384 23.8849 101.26 24.2679C102.135 24.6509 102.89 25.2059 103.523 25.9329C104.164 26.652 104.656 27.5236 105 28.5477C105.352 29.5717 105.528 30.7325 105.528 32.0301ZM102.268 32.9095V32.0066C102.268 31.0764 102.182 30.2596 102.01 29.556C101.838 28.8447 101.584 28.2467 101.248 27.7621C100.912 27.2774 100.498 26.9139 100.005 26.6716C99.5127 26.4214 98.9577 26.2964 98.3402 26.2964C97.7148 26.2964 97.1598 26.4214 96.6751 26.6716C96.1983 26.9139 95.7918 27.2774 95.4557 27.7621C95.1196 28.2467 94.8616 28.8447 94.6818 29.556C94.5099 30.2596 94.4239 31.0764 94.4239 32.0066V32.9095C94.4239 33.8319 94.5099 34.6488 94.6818 35.3601C94.8616 36.0714 95.1196 36.6733 95.4557 37.1658C95.7997 37.6505 96.2139 38.0178 96.6986 38.268C97.1832 38.5181 97.7382 38.6432 98.3636 38.6432C98.989 38.6432 99.544 38.5181 100.029 38.268C100.513 38.0178 100.92 37.6505 101.248 37.1658C101.584 36.6733 101.838 36.0714 102.01 35.3601C102.182 34.6488 102.268 33.8319 102.268 32.9095ZM121.58 32.1708V38.8191C121.33 39.1396 120.935 39.4874 120.396 39.8626C119.864 40.2379 119.168 40.5623 118.308 40.8358C117.449 41.1016 116.393 41.2345 115.143 41.2345C114.056 41.2345 113.063 41.0547 112.164 40.6951C111.265 40.3277 110.492 39.7923 109.843 39.0888C109.194 38.3852 108.694 37.5254 108.342 36.5092C107.99 35.493 107.814 34.3322 107.814 33.0267V31.9011C107.814 30.5957 107.978 29.4349 108.307 28.4187C108.643 27.4025 109.12 26.5426 109.737 25.8391C110.363 25.1356 111.109 24.6001 111.977 24.2327C112.852 23.8653 113.829 23.6816 114.908 23.6816C116.354 23.6816 117.542 23.92 118.473 24.3969C119.411 24.8737 120.13 25.5303 120.63 26.3667C121.13 27.1953 121.443 28.149 121.568 29.2277H118.426C118.34 28.6336 118.168 28.1138 117.91 27.6682C117.652 27.2149 117.284 26.8631 116.808 26.613C116.339 26.355 115.729 26.226 114.978 26.226C114.345 26.226 113.786 26.3511 113.302 26.6012C112.817 26.8514 112.411 27.2149 112.082 27.6917C111.754 28.1685 111.504 28.7587 111.332 29.4622C111.168 30.1658 111.086 30.9709 111.086 31.8777V33.0267C111.086 33.9413 111.179 34.7543 111.367 35.4656C111.555 36.1691 111.824 36.7632 112.176 37.2479C112.536 37.7247 112.977 38.0882 113.501 38.3383C114.033 38.5807 114.635 38.7018 115.307 38.7018C115.916 38.7018 116.421 38.651 116.819 38.5494C117.226 38.44 117.55 38.311 117.793 38.1625C118.035 38.0139 118.222 37.8693 118.355 37.7286V34.5276H114.967V32.1708H121.58ZM128.064 23.9279V41H124.84V23.9279H128.064ZM138.546 26.5192L133.68 41H130.268L136.647 23.9279H138.828L138.546 26.5192ZM142.615 41L137.726 26.5192L137.433 23.9279H139.625L146.039 41H142.615ZM142.392 34.6566V37.201H133.235V34.6566H142.392ZM160.344 34.7738H155.947V32.2411H160.344C161.063 32.2411 161.645 32.1239 162.091 31.8894C162.544 31.6471 162.877 31.3187 163.088 30.9045C163.299 30.4823 163.404 30.0016 163.404 29.4622C163.404 28.9385 163.299 28.4499 163.088 27.9966C162.877 27.5432 162.544 27.1758 162.091 26.8944C161.645 26.613 161.063 26.4723 160.344 26.4723H157.002V41H153.778V23.9279H160.344C161.673 23.9279 162.806 24.1663 163.744 24.6431C164.69 25.1121 165.409 25.7648 165.902 26.6012C166.402 27.4298 166.652 28.3757 166.652 29.4388C166.652 30.541 166.402 31.4907 165.902 32.288C165.409 33.0854 164.69 33.699 163.744 34.1289C162.806 34.5589 161.673 34.7738 160.344 34.7738ZM174.121 26.5192L169.255 41H165.843L172.222 23.9279H174.403L174.121 26.5192ZM178.19 41L173.3 26.5192L173.007 23.9279H175.2L181.614 41H178.19ZM177.967 34.6566V37.201H168.81V34.6566H177.967ZM183.373 23.9279H189.575C190.873 23.9279 191.987 24.1233 192.917 24.5141C193.847 24.905 194.562 25.4834 195.063 26.2495C195.563 27.0155 195.813 27.9575 195.813 29.0753C195.813 29.9586 195.657 30.7247 195.344 31.3735C195.032 32.0223 194.59 32.5655 194.019 33.0033C193.456 33.441 192.792 33.785 192.026 34.0351L191.018 34.551H185.542L185.518 32.0066H189.61C190.275 32.0066 190.826 31.8894 191.264 31.6549C191.702 31.4204 192.03 31.096 192.249 30.6817C192.475 30.2674 192.589 29.7944 192.589 29.2629C192.589 28.6923 192.479 28.1998 192.26 27.7855C192.042 27.3634 191.709 27.039 191.264 26.8123C190.818 26.5856 190.255 26.4723 189.575 26.4723H186.597V41H183.373V23.9279ZM193.011 41L189.059 33.3551L192.471 33.3433L196.47 40.8358V41H193.011ZM205.428 26.5192L200.562 41H197.15L203.528 23.9279H205.709L205.428 26.5192ZM209.497 41L204.607 26.5192L204.314 23.9279H206.507L212.921 41H209.497ZM209.274 34.6566V37.201H200.116V34.6566H209.274ZM227.448 26.5192L222.582 41H219.17L225.549 23.9279H227.73L227.448 26.5192ZM231.517 41L226.627 26.5192L226.334 23.9279H228.527L234.941 41H231.517ZM231.294 34.6566V37.201H222.137V34.6566H231.294ZM251.614 36.5678C251.614 36.2395 251.563 35.9464 251.462 35.6884C251.368 35.4226 251.192 35.1842 250.934 34.9732C250.684 34.7543 250.328 34.5432 249.867 34.34C249.414 34.1289 248.828 33.9101 248.108 33.6834C247.311 33.4332 246.568 33.1518 245.881 32.8391C245.193 32.5265 244.587 32.163 244.063 31.7487C243.547 31.3344 243.145 30.8576 242.855 30.3182C242.566 29.771 242.422 29.1378 242.422 28.4187C242.422 27.7151 242.57 27.0742 242.867 26.4957C243.172 25.9173 243.602 25.4209 244.157 25.0066C244.712 24.5845 245.365 24.2601 246.115 24.0334C246.873 23.8067 247.71 23.6933 248.624 23.6933C249.891 23.6933 250.985 23.9239 251.907 24.3851C252.838 24.8463 253.557 25.4717 254.065 26.2612C254.573 27.0507 254.827 27.9379 254.827 28.9229H251.614C251.614 28.3913 251.501 27.9223 251.274 27.5158C251.055 27.1093 250.719 26.7888 250.266 26.5543C249.82 26.3198 249.257 26.2026 248.577 26.2026C247.921 26.2026 247.374 26.3003 246.936 26.4957C246.506 26.6911 246.182 26.9569 245.963 27.293C245.752 27.6292 245.646 28.0044 245.646 28.4187C245.646 28.7313 245.72 29.0128 245.869 29.2629C246.017 29.5052 246.24 29.7358 246.537 29.9547C246.834 30.1658 247.202 30.3651 247.639 30.5527C248.085 30.7325 248.601 30.9123 249.187 31.0921C250.125 31.3735 250.946 31.6861 251.649 32.0301C252.361 32.374 252.951 32.7649 253.42 33.2026C253.897 33.6404 254.252 34.1328 254.487 34.68C254.729 35.2272 254.85 35.8487 254.85 36.5444C254.85 37.2791 254.706 37.9358 254.417 38.5142C254.127 39.0927 253.713 39.5851 253.174 39.9916C252.634 40.3981 251.986 40.7069 251.227 40.9179C250.477 41.129 249.637 41.2345 248.706 41.2345C247.878 41.2345 247.057 41.1251 246.244 40.9062C245.439 40.6795 244.708 40.3434 244.051 39.8978C243.395 39.4444 242.871 38.8738 242.48 38.1859C242.089 37.4902 241.894 36.6772 241.894 35.747H245.13C245.13 36.2864 245.216 36.7476 245.388 37.1306C245.568 37.5058 245.818 37.8146 246.139 38.0569C246.467 38.2914 246.85 38.4634 247.288 38.5728C247.725 38.6823 248.198 38.737 248.706 38.737C249.363 38.737 249.902 38.6471 250.324 38.4673C250.754 38.2797 251.075 38.0218 251.286 37.6934C251.505 37.3651 251.614 36.9899 251.614 36.5678ZM266.834 23.9279H270.058V35.2663C270.058 36.5717 269.777 37.67 269.214 38.5611C268.651 39.4444 267.885 40.1128 266.916 40.5662C265.947 41.0117 264.844 41.2345 263.609 41.2345C262.359 41.2345 261.245 41.0117 260.268 40.5662C259.29 40.1128 258.524 39.4444 257.969 38.5611C257.414 37.67 257.137 36.5717 257.137 35.2663V23.9279H260.361V35.2663C260.361 36.0636 260.494 36.7163 260.76 37.2244C261.026 37.7247 261.401 38.096 261.886 38.3383C262.37 38.5807 262.945 38.7018 263.609 38.7018C264.282 38.7018 264.856 38.5807 265.333 38.3383C265.818 38.096 266.189 37.7247 266.447 37.2244C266.705 36.7163 266.834 36.0636 266.834 35.2663V23.9279ZM279.65 26.5192L274.784 41H271.372L277.75 23.9279H279.931L279.65 26.5192ZM283.718 41L278.829 26.5192L278.536 23.9279H280.728L287.142 41H283.718ZM283.496 34.6566V37.201H274.338V34.6566H283.496ZM306.196 38.4673V41H297.12V38.4673H306.196ZM298.105 23.9279V41H294.881V23.9279H298.105ZM305.012 30.9748V33.4489H297.12V30.9748H305.012ZM306.161 23.9279V26.4723H297.12V23.9279H306.161ZM309.842 23.9279H312.633L317.3 36.7789L321.955 23.9279H324.757L318.414 41H316.174L309.842 23.9279ZM308.435 23.9279H311.167L311.66 35.7353V41H308.435V23.9279ZM323.42 23.9279H326.164V41H322.94V35.7353L323.42 23.9279ZM336.014 34.7738H331.616V32.2411H336.014C336.733 32.2411 337.315 32.1239 337.761 31.8894C338.214 31.6471 338.546 31.3187 338.757 30.9045C338.968 30.4823 339.074 30.0016 339.074 29.4622C339.074 28.9385 338.968 28.4499 338.757 27.9966C338.546 27.5432 338.214 27.1758 337.761 26.8944C337.315 26.613 336.733 26.4723 336.014 26.4723H332.672V41H329.447V23.9279H336.014C337.342 23.9279 338.476 24.1663 339.414 24.6431C340.36 25.1121 341.079 25.7648 341.571 26.6012C342.072 27.4298 342.322 28.3757 342.322 29.4388C342.322 30.541 342.072 31.4907 341.571 32.288C341.079 33.0854 340.36 33.699 339.414 34.1289C338.476 34.5589 337.342 34.7738 336.014 34.7738ZM344.854 23.9279H351.057C352.355 23.9279 353.469 24.1233 354.399 24.5141C355.329 24.905 356.044 25.4834 356.545 26.2495C357.045 27.0155 357.295 27.9575 357.295 29.0753C357.295 29.9586 357.139 30.7247 356.826 31.3735C356.513 32.0223 356.072 32.5655 355.501 33.0033C354.938 33.441 354.274 33.785 353.508 34.0351L352.499 34.551H347.024L347 32.0066H351.092C351.757 32.0066 352.308 31.8894 352.746 31.6549C353.183 31.4204 353.512 31.096 353.731 30.6817C353.957 30.2674 354.071 29.7944 354.071 29.2629C354.071 28.6923 353.961 28.1998 353.742 27.7855C353.523 27.3634 353.191 27.039 352.746 26.8123C352.3 26.5856 351.737 26.4723 351.057 26.4723H348.079V41H344.854V23.9279ZM354.493 41L350.541 33.3551L353.953 33.3433L357.952 40.8358V41H354.493ZM371.436 38.4673V41H362.36V38.4673H371.436ZM363.345 23.9279V41H360.121V23.9279H363.345ZM370.252 30.9748V33.4489H362.36V30.9748H370.252ZM371.401 23.9279V26.4723H362.36V23.9279H371.401ZM382.61 36.5678C382.61 36.2395 382.559 35.9464 382.458 35.6884C382.364 35.4226 382.188 35.1842 381.93 34.9732C381.68 34.7543 381.324 34.5432 380.863 34.34C380.41 34.1289 379.823 33.9101 379.104 33.6834C378.307 33.4332 377.564 33.1518 376.876 32.8391C376.189 32.5265 375.583 32.163 375.059 31.7487C374.543 31.3344 374.141 30.8576 373.851 30.3182C373.562 29.771 373.417 29.1378 373.417 28.4187C373.417 27.7151 373.566 27.0742 373.863 26.4957C374.168 25.9173 374.598 25.4209 375.153 25.0066C375.708 24.5845 376.361 24.2601 377.111 24.0334C377.869 23.8067 378.706 23.6933 379.62 23.6933C380.887 23.6933 381.981 23.9239 382.903 24.3851C383.834 24.8463 384.553 25.4717 385.061 26.2612C385.569 27.0507 385.823 27.9379 385.823 28.9229H382.61C382.61 28.3913 382.497 27.9223 382.27 27.5158C382.051 27.1093 381.715 26.7888 381.262 26.5543C380.816 26.3198 380.253 26.2026 379.573 26.2026C378.917 26.2026 378.369 26.3003 377.932 26.4957C377.502 26.6911 377.177 26.9569 376.959 27.293C376.747 27.6292 376.642 28.0044 376.642 28.4187C376.642 28.7313 376.716 29.0128 376.865 29.2629C377.013 29.5052 377.236 29.7358 377.533 29.9547C377.83 30.1658 378.198 30.3651 378.635 30.5527C379.081 30.7325 379.597 30.9123 380.183 31.0921C381.121 31.3735 381.942 31.6861 382.645 32.0301C383.357 32.374 383.947 32.7649 384.416 33.2026C384.893 33.6404 385.248 34.1328 385.483 34.68C385.725 35.2272 385.846 35.8487 385.846 36.5444C385.846 37.2791 385.702 37.9358 385.413 38.5142C385.123 39.0927 384.709 39.5851 384.17 39.9916C383.63 40.3981 382.981 40.7069 382.223 40.9179C381.473 41.129 380.632 41.2345 379.702 41.2345C378.874 41.2345 378.053 41.1251 377.24 40.9062C376.435 40.6795 375.704 40.3434 375.047 39.8978C374.391 39.4444 373.867 38.8738 373.476 38.1859C373.085 37.4902 372.89 36.6772 372.89 35.747H376.126C376.126 36.2864 376.212 36.7476 376.384 37.1306C376.564 37.5058 376.814 37.8146 377.134 38.0569C377.463 38.2914 377.846 38.4634 378.283 38.5728C378.721 38.6823 379.194 38.737 379.702 38.737C380.359 38.737 380.898 38.6471 381.32 38.4673C381.75 38.2797 382.071 38.0218 382.282 37.6934C382.501 37.3651 382.61 36.9899 382.61 36.5678ZM395.121 26.5192L390.255 41H386.843L393.222 23.9279H395.403L395.121 26.5192ZM399.19 41L394.3 26.5192L394.007 23.9279H396.2L402.614 41H399.19ZM398.967 34.6566V37.201H389.81V34.6566H398.967Z" fill="#F5544D"/>
</svg>
