<svg width="58" height="84" viewBox="0 0 58 84" fill="none" xmlns="http://www.w3.org/2000/svg">
<path d="M23.7107 69.8593H24.5984C24.5522 70.2847 24.4304 70.6653 24.2332 71.0013C24.0359 71.3373 23.7569 71.6039 23.3963 71.8012C23.0357 71.9954 22.5857 72.0925 22.0462 72.0925C21.6517 72.0925 21.2926 72.0185 20.969 71.8705C20.6484 71.7226 20.3725 71.513 20.1414 71.2417C19.9102 70.9674 19.7314 70.6391 19.605 70.2569C19.4817 69.8716 19.4201 69.4432 19.4201 68.9716V68.3012C19.4201 67.8296 19.4817 67.4027 19.605 67.0205C19.7314 66.6352 19.9117 66.3054 20.146 66.0311C20.3833 65.7567 20.6684 65.5456 21.0013 65.3976C21.3342 65.2497 21.7087 65.1757 22.1248 65.1757C22.6334 65.1757 23.0634 65.2713 23.4148 65.4624C23.7662 65.6535 24.039 65.9186 24.2332 66.2576C24.4304 66.5936 24.5522 66.9835 24.5984 67.4274H23.7107C23.6676 67.113 23.5874 66.8433 23.4703 66.6182C23.3532 66.3901 23.1867 66.2145 22.971 66.0912C22.7552 65.9679 22.4732 65.9062 22.1248 65.9062C21.8259 65.9062 21.5623 65.9632 21.3342 66.0773C21.1092 66.1913 20.9197 66.3532 20.7655 66.5628C20.6145 66.7724 20.5005 67.0236 20.4234 67.3164C20.3463 67.6092 20.3078 67.9344 20.3078 68.2919V68.9716C20.3078 69.3014 20.3417 69.6112 20.4095 69.9009C20.4804 70.1907 20.5868 70.445 20.7286 70.6638C20.8703 70.8827 21.0507 71.0553 21.2695 71.1816C21.4883 71.3049 21.7473 71.3666 22.0462 71.3666C22.4254 71.3666 22.7274 71.3065 22.9525 71.1863C23.1775 71.0661 23.347 70.8934 23.461 70.6684C23.5782 70.4434 23.6614 70.1737 23.7107 69.8593ZM25.8144 65.2682H28.0429C28.5484 65.2682 28.9753 65.3452 29.3236 65.4994C29.675 65.6535 29.9417 65.8816 30.1235 66.1836C30.3085 66.4826 30.4009 66.851 30.4009 67.2886C30.4009 67.5969 30.3377 67.8789 30.2114 68.1348C30.0881 68.3875 29.9093 68.6033 29.675 68.782C29.4439 68.9577 29.1664 69.0887 28.8428 69.175L28.5931 69.2721H26.4987L26.4894 68.5462H28.0707C28.3912 68.5462 28.6579 68.4908 28.8705 68.3798C29.0832 68.2657 29.2435 68.1132 29.3514 67.9221C29.4593 67.731 29.5132 67.5198 29.5132 67.2886C29.5132 67.0297 29.4624 66.8032 29.3606 66.609C29.2589 66.4148 29.0986 66.2653 28.8798 66.1605C28.664 66.0526 28.3851 65.9987 28.0429 65.9987H26.7067V72H25.8144V65.2682ZM29.749 72L28.1123 68.9485L29.0416 68.9439L30.7014 71.9445V72H29.749ZM31.9313 65.2682H32.7959L35.0013 70.7563L37.2021 65.2682H38.0713L35.3342 72H34.6592L31.9313 65.2682ZM31.6493 65.2682H32.4121L32.537 69.3738V72H31.6493V65.2682ZM37.5858 65.2682H38.3487V72H37.461V69.3738L37.5858 65.2682ZM6.72396 78.716H5.05025V77.463H6.72396C6.95205 77.463 7.13699 77.4245 7.27878 77.3474C7.42057 77.2704 7.52382 77.164 7.58855 77.0284C7.65636 76.8897 7.69027 76.734 7.69027 76.5614C7.69027 76.3765 7.65636 76.2054 7.58855 76.0482C7.52382 75.891 7.42057 75.7647 7.27878 75.6691C7.13699 75.5705 6.95205 75.5211 6.72396 75.5211H5.66055V81H4.0377V74.2682H6.72396C7.26337 74.2682 7.72726 74.3668 8.11563 74.5641C8.50709 74.7614 8.80762 75.0326 9.01722 75.3778C9.22681 75.72 9.33161 76.1114 9.33161 76.5522C9.33161 76.9868 9.22681 77.3659 9.01722 77.6896C8.80762 78.0132 8.50709 78.266 8.11563 78.4478C7.72726 78.6266 7.26337 78.716 6.72396 78.716ZM11.7035 77.2365V81H10.1454V75.9974H11.6018L11.7035 77.2365ZM13.183 75.9604L13.1553 77.4075C13.0936 77.4014 13.0104 77.3937 12.9056 77.3844C12.8008 77.3752 12.7129 77.3705 12.642 77.3705C12.4602 77.3705 12.303 77.3921 12.1704 77.4353C12.041 77.4753 11.9331 77.537 11.8468 77.6202C11.7636 77.7004 11.7019 77.8021 11.6619 77.9254C11.6249 78.0487 11.6079 78.192 11.611 78.3554L11.329 78.1704C11.329 77.8344 11.3613 77.5293 11.4261 77.255C11.4939 76.9776 11.5894 76.7387 11.7127 76.5383C11.836 76.3349 11.9855 76.1792 12.1612 76.0713C12.3369 75.9604 12.5342 75.9049 12.753 75.9049C12.8301 75.9049 12.9056 75.9095 12.9796 75.9188C13.0566 75.928 13.1244 75.9419 13.183 75.9604ZM13.3587 78.5495V78.4524C13.3587 78.0857 13.4111 77.7481 13.5159 77.4399C13.6207 77.1286 13.7748 76.8589 13.9782 76.6308C14.1817 76.4027 14.4329 76.2255 14.7319 76.0991C15.0309 75.9696 15.3761 75.9049 15.7675 75.9049C16.1621 75.9049 16.5088 75.9696 16.8078 76.0991C17.1099 76.2255 17.3626 76.4027 17.5661 76.6308C17.7695 76.8589 17.9236 77.1286 18.0284 77.4399C18.1332 77.7481 18.1856 78.0857 18.1856 78.4524V78.5495C18.1856 78.9133 18.1332 79.2508 18.0284 79.5621C17.9236 79.8703 17.7695 80.14 17.5661 80.3712C17.3626 80.5993 17.1114 80.7765 16.8124 80.9029C16.5135 81.0293 16.1682 81.0925 15.7768 81.0925C15.3853 81.0925 15.0386 81.0293 14.7365 80.9029C14.4344 80.7765 14.1817 80.5993 13.9782 80.3712C13.7748 80.14 13.6207 79.8703 13.5159 79.5621C13.4111 79.2508 13.3587 78.9133 13.3587 78.5495ZM14.9168 78.4524V78.5495C14.9168 78.7376 14.9307 78.9133 14.9584 79.0766C14.9862 79.24 15.0324 79.3833 15.0971 79.5066C15.1619 79.6268 15.2497 79.7208 15.3607 79.7886C15.4716 79.8565 15.6103 79.8904 15.7768 79.8904C15.9401 79.8904 16.0758 79.8565 16.1836 79.7886C16.2946 79.7208 16.3825 79.6268 16.4472 79.5066C16.5119 79.3833 16.5582 79.24 16.5859 79.0766C16.6136 78.9133 16.6275 78.7376 16.6275 78.5495V78.4524C16.6275 78.2706 16.6136 78.0995 16.5859 77.9392C16.5582 77.7759 16.5119 77.6325 16.4472 77.5093C16.3825 77.3829 16.2946 77.2842 16.1836 77.2133C16.0727 77.1425 15.934 77.107 15.7675 77.107C15.6042 77.107 15.467 77.1425 15.356 77.2133C15.2482 77.2842 15.1619 77.3829 15.0971 77.5093C15.0324 77.6325 14.9862 77.7759 14.9584 77.9392C14.9307 78.0995 14.9168 78.2706 14.9168 78.4524ZM15.0648 75.3501L15.9802 73.8983H17.6262L16.3362 75.3501H15.0648ZM21.9214 77.4954V78.7021H19.1427V77.4954H21.9214ZM25.7635 79.4141L27.1645 74.2682H28.9815L26.7114 81H25.537L25.7635 79.4141ZM24.4921 74.2682L25.893 79.4141L26.1288 81H24.9406L22.6843 74.2682H24.4921ZM31.6215 81.0925C31.2147 81.0925 30.8509 81.0293 30.5304 80.9029C30.2098 80.7734 29.9386 80.5962 29.7166 80.3712C29.4978 80.1462 29.3298 79.8873 29.2127 79.5945C29.0986 79.3016 29.0416 78.9919 29.0416 78.6651V78.4894C29.0416 78.1226 29.0925 77.7836 29.1942 77.4723C29.2959 77.1579 29.4469 76.8835 29.6473 76.6493C29.8476 76.415 30.0989 76.2332 30.4009 76.1037C30.703 75.9712 31.0544 75.9049 31.4551 75.9049C31.8096 75.9049 32.127 75.9619 32.4075 76.076C32.688 76.19 32.9254 76.3534 33.1195 76.5661C33.3168 76.7787 33.4663 77.0361 33.568 77.3382C33.6728 77.6403 33.7252 77.9793 33.7252 78.3554V78.9888H29.638V78.0132H32.2041V77.893C32.2072 77.7266 32.1779 77.5848 32.1162 77.4676C32.0577 77.3505 31.9714 77.2611 31.8573 77.1995C31.7433 77.1378 31.6046 77.107 31.4412 77.107C31.2717 77.107 31.1314 77.144 31.0205 77.218C30.9126 77.2919 30.8278 77.3937 30.7662 77.5231C30.7076 77.6495 30.666 77.7959 30.6413 77.9624C30.6167 78.1288 30.6044 78.3045 30.6044 78.4894V78.6651C30.6044 78.8501 30.629 79.0181 30.6783 79.1691C30.7307 79.3201 30.8047 79.4496 30.9003 79.5575C30.9989 79.6623 31.116 79.7439 31.2516 79.8025C31.3904 79.8611 31.5476 79.8904 31.7232 79.8904C31.9359 79.8904 32.1455 79.8503 32.352 79.7701C32.5586 79.69 32.7358 79.5575 32.8837 79.3725L33.5911 80.214C33.4894 80.3589 33.3446 80.4991 33.1565 80.6347C32.9716 80.7704 32.7497 80.8813 32.4907 80.9676C32.2318 81.0509 31.9421 81.0925 31.6215 81.0925ZM35.889 77.0654V81H34.3309V75.9974H35.7919L35.889 77.0654ZM35.7041 78.3276L35.3388 78.3369C35.3388 77.9547 35.3851 77.6141 35.4775 77.3151C35.57 77.013 35.701 76.7572 35.8705 76.5476C36.0401 76.338 36.242 76.1792 36.4762 76.0713C36.7135 75.9604 36.9771 75.9049 37.2668 75.9049C37.498 75.9049 37.7091 75.9388 37.9002 76.0066C38.0944 76.0744 38.2609 76.1838 38.3996 76.3349C38.5414 76.4859 38.6493 76.6863 38.7232 76.9359C38.8003 77.1825 38.8388 77.4877 38.8388 77.8514V81H37.2715V77.8468C37.2715 77.6464 37.2437 77.4938 37.1882 77.389C37.1327 77.2812 37.0526 77.2072 36.9478 77.1671C36.843 77.127 36.7151 77.107 36.5641 77.107C36.4038 77.107 36.2682 77.1378 36.1572 77.1995C36.0462 77.2611 35.9568 77.3474 35.889 77.4584C35.8243 77.5663 35.7765 77.6942 35.7457 77.8421C35.718 77.9901 35.7041 78.1519 35.7041 78.3276ZM42.5792 79.8534V73.8983H44.1466V81H42.7411L42.5792 79.8534ZM39.5092 78.5588V78.4617C39.5092 78.0826 39.5508 77.7373 39.6341 77.426C39.7173 77.1116 39.8406 76.8419 40.0039 76.6169C40.1673 76.3888 40.3707 76.2131 40.6142 76.0898C40.8578 75.9665 41.1382 75.9049 41.4557 75.9049C41.7393 75.9049 41.9874 75.9712 42.2001 76.1037C42.4128 76.2332 42.5946 76.415 42.7457 76.6493C42.8967 76.8835 43.02 77.1579 43.1156 77.4723C43.2111 77.7836 43.2835 78.1196 43.3329 78.4802V78.5958C43.2835 78.9348 43.2111 79.2554 43.1156 79.5575C43.02 79.8565 42.8967 80.1215 42.7457 80.3527C42.5946 80.5839 42.4112 80.7657 42.1955 80.8983C41.9828 81.0277 41.7331 81.0925 41.4465 81.0925C41.129 81.0925 40.8485 81.0293 40.605 80.9029C40.3646 80.7765 40.1627 80.5993 39.9993 80.3712C39.839 80.1431 39.7173 79.8749 39.6341 79.5667C39.5508 79.2585 39.5092 78.9225 39.5092 78.5588ZM41.0673 78.4617V78.5588C41.0673 78.7468 41.0797 78.921 41.1043 79.0812C41.129 79.2415 41.1706 79.3833 41.2292 79.5066C41.2908 79.6268 41.371 79.7208 41.4696 79.7886C41.5713 79.8565 41.6961 79.8904 41.8441 79.8904C42.0445 79.8904 42.2094 79.8426 42.3388 79.747C42.4714 79.6515 42.5684 79.5159 42.6301 79.3402C42.6948 79.1645 42.7226 78.958 42.7133 78.7206V78.3554C42.7195 78.1519 42.7056 77.9731 42.6717 77.819C42.6378 77.6618 42.5839 77.5308 42.5099 77.426C42.439 77.3212 42.3481 77.2426 42.2371 77.1902C42.1292 77.1348 42.0013 77.107 41.8533 77.107C41.7085 77.107 41.5852 77.1409 41.4835 77.2087C41.3848 77.2765 41.3047 77.3721 41.243 77.4954C41.1814 77.6156 41.1367 77.7589 41.109 77.9254C41.0812 78.0887 41.0673 78.2675 41.0673 78.4617ZM47.6281 79.7424V77.6803C47.6281 77.5385 47.6081 77.4168 47.568 77.3151C47.5279 77.2133 47.4647 77.1348 47.3784 77.0793C47.2921 77.0207 47.1765 76.9914 47.0317 76.9914C46.9145 76.9914 46.8144 77.0115 46.7311 77.0515C46.6479 77.0916 46.5847 77.1517 46.5416 77.2318C46.4984 77.312 46.4768 77.4137 46.4768 77.537H44.9187C44.9187 77.3058 44.9696 77.0916 45.0713 76.8943C45.1761 76.694 45.3241 76.5198 45.5152 76.3719C45.7093 76.2239 45.9405 76.1099 46.2087 76.0297C46.4799 75.9465 46.782 75.9049 47.1149 75.9049C47.5125 75.9049 47.867 75.9712 48.1783 76.1037C48.4927 76.2362 48.7408 76.4351 48.9227 76.7001C49.1045 76.9621 49.1955 77.2919 49.1955 77.6896V79.7378C49.1955 80.0645 49.214 80.3126 49.2509 80.4822C49.2879 80.6486 49.3403 80.795 49.4081 80.9214V81H47.8454C47.7714 80.8459 47.7159 80.6579 47.679 80.4359C47.645 80.2109 47.6281 79.9797 47.6281 79.7424ZM47.8177 77.9439L47.8269 78.7761H47.138C46.9931 78.7761 46.8698 78.7961 46.7681 78.8362C46.6695 78.8763 46.5893 78.9318 46.5277 79.0026C46.4691 79.0705 46.426 79.1475 46.3982 79.2338C46.3736 79.3201 46.3613 79.4111 46.3613 79.5066C46.3613 79.5991 46.3828 79.6823 46.426 79.7563C46.4722 79.8272 46.5339 79.8827 46.6109 79.9227C46.688 79.9628 46.7743 79.9828 46.8698 79.9828C47.0425 79.9828 47.1889 79.9505 47.3091 79.8857C47.4324 79.8179 47.5264 79.7362 47.5911 79.6407C47.6558 79.5451 47.6882 79.4557 47.6882 79.3725L48.0303 80.0106C47.9687 80.1339 47.8978 80.2587 47.8177 80.3851C47.7406 80.5114 47.6435 80.6286 47.5264 80.7365C47.4123 80.8413 47.2721 80.9276 47.1056 80.9954C46.9392 81.0601 46.7373 81.0925 46.5 81.0925C46.1917 81.0925 45.9082 81.0293 45.6492 80.9029C45.3934 80.7765 45.1884 80.6008 45.0343 80.3758C44.8802 80.1477 44.8031 79.8857 44.8031 79.5898C44.8031 79.3309 44.8494 79.0997 44.9418 78.8963C45.0374 78.6929 45.1807 78.5203 45.3718 78.3785C45.5629 78.2367 45.8064 78.1288 46.1023 78.0548C46.3982 77.9809 46.7465 77.9439 47.1473 77.9439H47.8177ZM52.6816 79.5945C52.6816 79.5081 52.6523 79.4342 52.5937 79.3725C52.5383 79.3078 52.4396 79.2492 52.2978 79.1968C52.156 79.1414 51.9572 79.0859 51.7014 79.0304C51.4579 78.978 51.2283 78.9086 51.0125 78.8223C50.7998 78.736 50.6133 78.6312 50.4531 78.5079C50.2928 78.3846 50.1664 78.2382 50.0739 78.0687C49.9845 77.8992 49.9398 77.705 49.9398 77.4861C49.9398 77.2735 49.9845 77.0731 50.0739 76.8851C50.1664 76.694 50.3005 76.526 50.4762 76.3811C50.655 76.2332 50.8723 76.1176 51.1281 76.0344C51.3839 75.9481 51.6752 75.9049 52.0019 75.9049C52.452 75.9049 52.8403 75.9743 53.1671 76.113C53.4938 76.2486 53.745 76.4397 53.9207 76.6863C54.0995 76.9298 54.1888 77.2118 54.1888 77.5324H52.6307C52.6307 77.406 52.6092 77.2981 52.566 77.2087C52.5259 77.1193 52.4597 77.0515 52.3672 77.0053C52.2747 76.956 52.1514 76.9313 51.9973 76.9313C51.8894 76.9313 51.7908 76.9514 51.7014 76.9914C51.6151 77.0315 51.5457 77.087 51.4933 77.1579C51.4409 77.2288 51.4147 77.312 51.4147 77.4075C51.4147 77.4753 51.4302 77.537 51.461 77.5925C51.4949 77.6449 51.5457 77.6942 51.6136 77.7404C51.6814 77.7836 51.7677 77.8237 51.8725 77.8606C51.9773 77.8945 52.1036 77.9254 52.2516 77.9531C52.5876 78.0148 52.902 78.1026 53.1948 78.2167C53.4876 78.3307 53.725 78.4925 53.9068 78.7021C54.0918 78.9117 54.1842 79.1938 54.1842 79.5482C54.1842 79.7701 54.1334 79.9751 54.0316 80.1631C53.9299 80.3481 53.7835 80.5114 53.5924 80.6532C53.4013 80.7919 53.1717 80.8998 52.9035 80.9769C52.6354 81.0539 52.3333 81.0925 51.9973 81.0925C51.5195 81.0925 51.1158 81.0077 50.7859 80.8382C50.4561 80.6656 50.2065 80.4498 50.0369 80.1909C49.8705 79.9289 49.7873 79.6638 49.7873 79.3956H51.2391C51.2452 79.5498 51.2822 79.6761 51.35 79.7748C51.4209 79.8734 51.5149 79.9458 51.6321 79.9921C51.7492 80.0383 51.8848 80.0614 52.0389 80.0614C52.1807 80.0614 52.2978 80.0414 52.3903 80.0013C52.4859 79.9613 52.5583 79.9073 52.6076 79.8395C52.6569 79.7686 52.6816 79.6869 52.6816 79.5945Z" fill="#3C3C3C"/>
<path d="M29.4949 30.6687H25.478V27.6615H29.4949C30.0423 27.6615 30.4861 27.5691 30.8264 27.3841C31.1667 27.1992 31.4145 26.944 31.5699 26.6185C31.7326 26.2856 31.814 25.912 31.814 25.4977C31.814 25.0539 31.7326 24.6433 31.5699 24.266C31.4145 23.8888 31.1667 23.5855 30.8264 23.3561C30.4861 23.1194 30.0423 23.0011 29.4949 23.0011H26.9427V36.1503H23.0478V19.9939H29.4949C30.7894 19.9939 31.9028 20.2307 32.8349 20.7041C33.7744 21.1775 34.4956 21.8285 34.9987 22.6571C35.5017 23.4782 35.7532 24.4177 35.7532 25.4756C35.7532 26.5186 35.5017 27.4285 34.9987 28.2053C34.4956 28.982 33.7744 29.5886 32.8349 30.0251C31.9028 30.4541 30.7894 30.6687 29.4949 30.6687Z" fill="#3C3C3C"/>
<circle cx="29.4068" cy="28.4068" r="26.8918" stroke="#467CCE" stroke-width="3.03006"/>
</svg>
