<svg width="57" height="84" viewBox="0 0 57 84" fill="none" xmlns="http://www.w3.org/2000/svg">
<path d="M15.5812 70.6873C15.5812 70.5301 15.5565 70.3914 15.5072 70.2712C15.461 70.1479 15.3778 70.0369 15.2575 69.9383C15.1404 69.8397 14.9771 69.7457 14.7675 69.6563C14.5609 69.5669 14.2989 69.476 13.9815 69.3835C13.6486 69.2849 13.348 69.1754 13.0799 69.0552C12.8117 68.9319 12.5821 68.7917 12.391 68.6345C12.1999 68.4773 12.0535 68.297 11.9517 68.0935C11.85 67.8901 11.7992 67.6574 11.7992 67.3954C11.7992 67.1334 11.8531 66.8914 11.961 66.6695C12.0689 66.4476 12.223 66.2549 12.4233 66.0916C12.6268 65.9251 12.8687 65.7956 13.1492 65.7032C13.4297 65.6107 13.7426 65.5645 14.0878 65.5645C14.5933 65.5645 15.0217 65.6616 15.3731 65.8558C15.7276 66.0469 15.9973 66.2981 16.1822 66.6094C16.3672 66.9176 16.4597 67.2474 16.4597 67.5988H15.5719C15.5719 67.3461 15.518 67.1226 15.4101 66.9284C15.3022 66.7311 15.1389 66.577 14.92 66.4661C14.7012 66.352 14.4238 66.295 14.0878 66.295C13.7703 66.295 13.5083 66.3428 13.3018 66.4383C13.0953 66.5339 12.9412 66.6633 12.8395 66.8267C12.7408 66.9901 12.6915 67.1765 12.6915 67.3861C12.6915 67.5279 12.7208 67.6574 12.7793 67.7745C12.841 67.8886 12.935 67.9949 13.0614 68.0935C13.1908 68.1922 13.3542 68.2831 13.5515 68.3663C13.7518 68.4495 13.9907 68.5297 14.2681 68.6067C14.6503 68.7146 14.9801 68.8348 15.2575 68.9674C15.535 69.0999 15.7631 69.2494 15.9418 69.4159C16.1237 69.5792 16.2578 69.7657 16.3441 69.9753C16.4335 70.1818 16.4782 70.4161 16.4782 70.6781C16.4782 70.9524 16.4227 71.2005 16.3117 71.4225C16.2007 71.6444 16.042 71.8339 15.8355 71.9911C15.629 72.1483 15.3808 72.2701 15.0911 72.3564C14.8044 72.4396 14.4839 72.4812 14.1294 72.4812C13.8181 72.4812 13.5114 72.4381 13.2093 72.3518C12.9103 72.2655 12.6376 72.136 12.391 71.9634C12.1475 71.7908 11.9517 71.5781 11.8038 71.3254C11.6589 71.0695 11.5865 70.7736 11.5865 70.4376H12.4742C12.4742 70.6688 12.5189 70.8676 12.6083 71.0341C12.6977 71.1974 12.8194 71.3331 12.9735 71.4409C13.1307 71.5488 13.308 71.629 13.5052 71.6814C13.7056 71.7307 13.9136 71.7553 14.1294 71.7553C14.4407 71.7553 14.7043 71.7122 14.92 71.6259C15.1358 71.5396 15.2992 71.4163 15.4101 71.256C15.5242 71.0957 15.5812 70.9062 15.5812 70.6873ZM18.4154 67.3861V72.3888H17.5554V67.3861H18.4154ZM17.4907 66.0592C17.4907 65.9205 17.5323 65.8034 17.6155 65.7078C17.7018 65.6122 17.8282 65.5645 17.9947 65.5645C18.158 65.5645 18.2829 65.6122 18.3692 65.7078C18.4586 65.8034 18.5032 65.9205 18.5032 66.0592C18.5032 66.1917 18.4586 66.3058 18.3692 66.4013C18.2829 66.4938 18.158 66.54 17.9947 66.54C17.8282 66.54 17.7018 66.4938 17.6155 66.4013C17.5323 66.3058 17.4907 66.1917 17.4907 66.0592ZM22.7014 71.0618C22.7014 70.9385 22.6736 70.8245 22.6182 70.7197C22.5658 70.6118 22.4563 70.5147 22.2899 70.4284C22.1265 70.339 21.8799 70.262 21.5501 70.1972C21.2727 70.1387 21.0215 70.0693 20.7965 69.9892C20.5746 69.909 20.385 69.8119 20.2278 69.6979C20.0737 69.5838 19.955 69.4498 19.8718 69.2956C19.7886 69.1415 19.747 68.9612 19.747 68.7547C19.747 68.5574 19.7901 68.3709 19.8764 68.1952C19.9658 68.0196 20.0907 67.8639 20.2509 67.7283C20.4143 67.5926 20.61 67.4863 20.8381 67.4092C21.0662 67.3322 21.3205 67.2937 21.601 67.2937C22.0017 67.2937 22.3438 67.3646 22.6274 67.5063C22.911 67.6481 23.1283 67.8377 23.2793 68.075C23.4304 68.3093 23.5059 68.5697 23.5059 68.8564H22.6505C22.6505 68.7177 22.6089 68.5836 22.5257 68.4542C22.4456 68.3216 22.3269 68.2122 22.1697 68.1259C22.0156 68.0396 21.826 67.9964 21.601 67.9964C21.3637 67.9964 21.171 68.0334 21.0231 68.1074C20.8782 68.1783 20.7718 68.2692 20.704 68.3802C20.6393 68.4911 20.6069 68.6083 20.6069 68.7316C20.6069 68.824 20.6224 68.9073 20.6532 68.9812C20.6871 69.0521 20.7456 69.1184 20.8289 69.1801C20.9121 69.2386 21.0292 69.2941 21.1803 69.3465C21.3313 69.3989 21.5239 69.4513 21.7582 69.5037C22.1681 69.5962 22.5057 69.7071 22.7707 69.8366C23.0358 69.966 23.2331 70.1248 23.3626 70.3128C23.492 70.5008 23.5567 70.7289 23.5567 70.9971C23.5567 71.2159 23.5105 71.4163 23.418 71.5981C23.3286 71.78 23.1976 71.9372 23.025 72.0697C22.8555 72.1992 22.6521 72.3009 22.4147 72.3749C22.1805 72.4458 21.9169 72.4812 21.6241 72.4812C21.1833 72.4812 20.8104 72.4026 20.5052 72.2454C20.2001 72.0882 19.9689 71.8848 19.8117 71.6351C19.6545 71.3855 19.5759 71.1219 19.5759 70.8445H20.4359C20.4482 71.0788 20.516 71.2653 20.6393 71.404C20.7626 71.5396 20.9136 71.6367 21.0924 71.6952C21.2712 71.7507 21.4484 71.7785 21.6241 71.7785C21.8584 71.7785 22.0541 71.7476 22.2113 71.686C22.3716 71.6243 22.4933 71.5396 22.5766 71.4317C22.6598 71.3238 22.7014 71.2005 22.7014 71.0618ZM26.7747 67.3861V68.0427H24.0699V67.3861H26.7747ZM24.9854 66.1702H25.8407V71.1497C25.8407 71.3192 25.8669 71.4471 25.9193 71.5334C25.9717 71.6197 26.0396 71.6767 26.1228 71.7045C26.206 71.7322 26.2954 71.7461 26.3909 71.7461C26.4618 71.7461 26.5358 71.7399 26.6129 71.7276C26.693 71.7122 26.7531 71.6999 26.7932 71.6906L26.7978 72.3888C26.73 72.4103 26.6406 72.4304 26.5297 72.4489C26.4218 72.4704 26.2908 72.4812 26.1367 72.4812C25.9271 72.4812 25.7344 72.4396 25.5587 72.3564C25.383 72.2732 25.2428 72.1345 25.138 71.9403C25.0363 71.743 24.9854 71.4779 24.9854 71.145V66.1702ZM29.854 72.4812C29.5056 72.4812 29.1897 72.4227 28.9061 72.3055C28.6256 72.1853 28.3837 72.0173 28.1802 71.8016C27.9799 71.5858 27.8258 71.33 27.7179 71.0341C27.61 70.7382 27.5561 70.4145 27.5561 70.0631V69.869C27.5561 69.4621 27.6162 69.0999 27.7364 68.7824C27.8566 68.4619 28.02 68.1906 28.2265 67.9687C28.433 67.7468 28.6673 67.5788 28.9293 67.4647C29.1912 67.3507 29.4625 67.2937 29.743 67.2937C30.1005 67.2937 30.4088 67.3553 30.6677 67.4786C30.9297 67.6019 31.1439 67.7745 31.3104 67.9964C31.4768 68.2153 31.6001 68.4742 31.6802 68.7732C31.7604 69.0691 31.8004 69.3927 31.8004 69.7441V70.1279H28.0647V69.4297H30.9451V69.365C30.9328 69.1431 30.8865 68.9273 30.8064 68.7177C30.7293 68.5081 30.606 68.3355 30.4365 68.1999C30.267 68.0642 30.0358 67.9964 29.743 67.9964C29.5488 67.9964 29.37 68.038 29.2067 68.1213C29.0433 68.2014 28.9031 68.3216 28.7859 68.4819C28.6688 68.6422 28.5779 68.8379 28.5131 69.0691C28.4484 69.3003 28.416 69.5669 28.416 69.869V70.0631C28.416 70.3005 28.4484 70.524 28.5131 70.7335C28.5809 70.9401 28.678 71.1219 28.8044 71.2791C28.9339 71.4363 29.0895 71.5596 29.2714 71.649C29.4563 71.7384 29.6659 71.7831 29.9002 71.7831C30.2023 71.7831 30.4581 71.7214 30.6677 71.5981C30.8773 71.4749 31.0607 71.3099 31.2179 71.1034L31.7357 71.5149C31.6278 71.6783 31.4907 71.8339 31.3242 71.9819C31.1578 72.1298 30.9528 72.2501 30.7093 72.3425C30.4689 72.435 30.1838 72.4812 29.854 72.4812ZM33.6498 68.3802V72.3888H32.7899V67.3861H33.6036L33.6498 68.3802ZM33.4742 69.6979L33.0765 69.684C33.0796 69.3419 33.1243 69.0259 33.2106 68.7362C33.2969 68.4434 33.4248 68.1891 33.5944 67.9733C33.7639 67.7576 33.975 67.5911 34.2278 67.474C34.4805 67.3538 34.7734 67.2937 35.1063 67.2937C35.3405 67.2937 35.5563 67.3276 35.7535 67.3954C35.9508 67.4601 36.1219 67.5634 36.2668 67.7052C36.4116 67.8469 36.5241 68.0288 36.6043 68.2507C36.6844 68.4727 36.7245 68.7408 36.7245 69.0552V72.3888H35.8691V69.0968C35.8691 68.8348 35.8244 68.6252 35.735 68.468C35.6487 68.3108 35.5254 68.1968 35.3652 68.1259C35.2049 68.0519 35.0169 68.0149 34.8011 68.0149C34.5483 68.0149 34.3372 68.0596 34.1677 68.149C33.9982 68.2384 33.8625 68.3617 33.7608 68.5189C33.6591 68.6761 33.5851 68.8564 33.5389 69.0598C33.4957 69.2602 33.4742 69.4729 33.4742 69.6979ZM36.7152 69.2263L36.1419 69.402C36.145 69.1277 36.1897 68.8641 36.276 68.6114C36.3654 68.3586 36.4933 68.1336 36.6597 67.9363C36.8293 67.7391 37.0373 67.5834 37.2839 67.4694C37.5305 67.3522 37.8125 67.2937 38.13 67.2937C38.3982 67.2937 38.6355 67.3291 38.842 67.4C39.0516 67.4709 39.2273 67.5803 39.3691 67.7283C39.514 67.8731 39.6234 68.0596 39.6974 68.2877C39.7714 68.5158 39.8084 68.7871 39.8084 69.1015V72.3888H38.9484V69.0922C38.9484 68.8117 38.9037 68.5944 38.8143 68.4403C38.728 68.2831 38.6047 68.1737 38.4444 68.112C38.2872 68.0473 38.0992 68.0149 37.8804 68.0149C37.6923 68.0149 37.5259 68.0473 37.381 68.112C37.2361 68.1768 37.1144 68.2661 37.0158 68.3802C36.9171 68.4911 36.8416 68.6191 36.7892 68.7639C36.7399 68.9088 36.7152 69.0629 36.7152 69.2263ZM44.0527 71.5334V68.9581C44.0527 68.7609 44.0127 68.5898 43.9325 68.4449C43.8555 68.297 43.7383 68.1829 43.5811 68.1028C43.4239 68.0226 43.2297 67.9826 42.9986 67.9826C42.7828 67.9826 42.5932 68.0196 42.4299 68.0935C42.2696 68.1675 42.1432 68.2646 42.0508 68.3848C41.9614 68.505 41.9167 68.6345 41.9167 68.7732H41.0613C41.0613 68.5944 41.1076 68.4172 41.2 68.2415C41.2925 68.0658 41.425 67.907 41.5977 67.7653C41.7733 67.6204 41.9829 67.5063 42.2264 67.4231C42.473 67.3368 42.7474 67.2937 43.0494 67.2937C43.4131 67.2937 43.7337 67.3553 44.0111 67.4786C44.2916 67.6019 44.5105 67.7884 44.6677 68.038C44.8279 68.2846 44.9081 68.5944 44.9081 68.9674V71.2976C44.9081 71.4641 44.922 71.6413 44.9497 71.8293C44.9805 72.0173 45.0252 72.1792 45.0838 72.3148V72.3888H44.1914C44.1483 72.2901 44.1144 72.1591 44.0897 71.9958C44.0651 71.8293 44.0527 71.6752 44.0527 71.5334ZM44.2007 69.3557L44.2099 69.9568H43.3453C43.1018 69.9568 42.8845 69.9768 42.6934 70.0169C42.5023 70.0539 42.342 70.1109 42.2126 70.188C42.0831 70.265 41.9845 70.3621 41.9167 70.4793C41.8489 70.5933 41.815 70.7274 41.815 70.8815C41.815 71.0387 41.8504 71.182 41.9213 71.3115C41.9922 71.4409 42.0985 71.5442 42.2403 71.6213C42.3852 71.6952 42.5624 71.7322 42.772 71.7322C43.034 71.7322 43.2652 71.6767 43.4655 71.5658C43.6659 71.4548 43.8246 71.3192 43.9418 71.1589C44.062 70.9986 44.1267 70.843 44.136 70.6919L44.5012 71.1034C44.4796 71.2329 44.4211 71.3762 44.3255 71.5334C44.23 71.6906 44.1021 71.8416 43.9418 71.9865C43.7846 72.1283 43.5965 72.247 43.3777 72.3425C43.1619 72.435 42.9184 72.4812 42.6472 72.4812C42.3081 72.4812 42.0107 72.415 41.7549 72.2824C41.5021 72.1499 41.3048 71.9726 41.163 71.7507C41.0243 71.5257 40.955 71.2745 40.955 70.9971C40.955 70.7289 41.0074 70.4931 41.1122 70.2897C41.217 70.0832 41.368 69.9121 41.5653 69.7765C41.7626 69.6378 41.9999 69.533 42.2773 69.4621C42.5547 69.3912 42.8645 69.3557 43.2066 69.3557H44.2007ZM16.21 80.1404V81.3888H12.6222V80.1404H16.21ZM13.2001 74.6569V81.3888H11.5772V74.6569H13.2001ZM15.7476 77.3293V78.5361H12.6222V77.3293H15.7476ZM16.2239 74.6569V75.9099H12.6222V74.6569H16.2239ZM18.3738 77.4449V81.3888H16.8157V76.3861H18.2767L18.3738 77.4449ZM18.1842 78.7164L17.8282 78.7256C17.8282 78.3742 17.8698 78.0506 17.9531 77.7547C18.0363 77.4588 18.1596 77.2014 18.3229 76.9826C18.4863 76.7637 18.6866 76.5942 18.924 76.474C19.1644 76.3538 19.4418 76.2937 19.7562 76.2937C19.9751 76.2937 20.1739 76.3276 20.3526 76.3954C20.5314 76.4601 20.6855 76.5634 20.815 76.7052C20.9445 76.8439 21.0431 77.0257 21.1109 77.2507C21.1818 77.4727 21.2172 77.7393 21.2172 78.0506V81.3888H19.6591V78.2494C19.6591 78.0367 19.6345 77.8764 19.5851 77.7686C19.5389 77.6607 19.4711 77.5882 19.3817 77.5513C19.2923 77.5143 19.1829 77.4958 19.0534 77.4958C18.9178 77.4958 18.7961 77.5266 18.6882 77.5882C18.5803 77.6499 18.4878 77.7362 18.4108 77.8472C18.3368 77.955 18.2798 78.083 18.2397 78.2309C18.2027 78.3789 18.1842 78.5407 18.1842 78.7164ZM21.0416 78.7164L20.6069 78.7256C20.6069 78.3742 20.6455 78.0506 20.7225 77.7547C20.8027 77.4588 20.9213 77.2014 21.0785 76.9826C21.2388 76.7637 21.4376 76.5942 21.675 76.474C21.9123 76.3538 22.1882 76.2937 22.5026 76.2937C22.7307 76.2937 22.9403 76.3276 23.1314 76.3954C23.3225 76.4632 23.4874 76.5726 23.6261 76.7236C23.7648 76.8747 23.8727 77.075 23.9497 77.3247C24.0268 77.5713 24.0653 77.8764 24.0653 78.2402V81.3888H22.5026V78.2402C22.5026 78.0336 22.4779 77.878 22.4286 77.7732C22.3824 77.6653 22.3146 77.5929 22.2252 77.5559C22.1358 77.5158 22.0294 77.4958 21.9061 77.4958C21.7582 77.4958 21.6303 77.5266 21.5224 77.5882C21.4145 77.6499 21.3236 77.7362 21.2496 77.8472C21.1787 77.955 21.1263 78.083 21.0924 78.2309C21.0585 78.3789 21.0416 78.5407 21.0416 78.7164ZM26.6036 76.3861V81.3888H25.0409V76.3861H26.6036ZM24.9484 75.0962C24.9484 74.8742 25.0286 74.6924 25.1888 74.5506C25.3491 74.4088 25.5572 74.3379 25.813 74.3379C26.0688 74.3379 26.2769 74.4088 26.4372 74.5506C26.5975 74.6924 26.6776 74.8742 26.6776 75.0962C26.6776 75.3181 26.5975 75.5 26.4372 75.6417C26.2769 75.7835 26.0688 75.8544 25.813 75.8544C25.5572 75.8544 25.3491 75.7835 25.1888 75.6417C25.0286 75.5 24.9484 75.3181 24.9484 75.0962ZM30.1868 79.9832C30.1868 79.8969 30.1576 79.8229 30.099 79.7613C30.0435 79.6966 29.9449 79.638 29.8031 79.5856C29.6613 79.5301 29.4625 79.4746 29.2067 79.4192C28.9632 79.3668 28.7335 79.2974 28.5178 79.2111C28.3051 79.1248 28.1186 79.02 27.9583 78.8967C27.798 78.7734 27.6717 78.627 27.5792 78.4575C27.4898 78.2879 27.4451 78.0937 27.4451 77.8749C27.4451 77.6622 27.4898 77.4619 27.5792 77.2738C27.6717 77.0827 27.8057 76.9148 27.9814 76.7699C28.1602 76.6219 28.3775 76.5063 28.6333 76.4231C28.8892 76.3368 29.1805 76.2937 29.5072 76.2937C29.9572 76.2937 30.3456 76.363 30.6723 76.5017C30.999 76.6373 31.2502 76.8284 31.4259 77.075C31.6047 77.3185 31.6941 77.6006 31.6941 77.9211H30.136C30.136 77.7948 30.1144 77.6869 30.0713 77.5975C30.0312 77.5081 29.9649 77.4403 29.8724 77.3941C29.78 77.3447 29.6567 77.3201 29.5026 77.3201C29.3947 77.3201 29.296 77.3401 29.2067 77.3802C29.1204 77.4203 29.051 77.4757 28.9986 77.5466C28.9462 77.6175 28.92 77.7007 28.92 77.7963C28.92 77.8641 28.9354 77.9258 28.9662 77.9812C29.0001 78.0336 29.051 78.083 29.1188 78.1292C29.1866 78.1723 29.2729 78.2124 29.3777 78.2494C29.4825 78.2833 29.6089 78.3141 29.7569 78.3419C30.0928 78.4035 30.4072 78.4914 30.7001 78.6054C30.9929 78.7195 31.2302 78.8813 31.4121 79.0909C31.597 79.3005 31.6895 79.5825 31.6895 79.937C31.6895 80.1589 31.6386 80.3639 31.5369 80.5519C31.4352 80.7368 31.2888 80.9002 31.0977 81.042C30.9066 81.1807 30.6769 81.2886 30.4088 81.3656C30.1406 81.4427 29.8385 81.4812 29.5026 81.4812C29.0248 81.4812 28.621 81.3965 28.2912 81.2269C27.9614 81.0543 27.7117 80.8386 27.5422 80.5797C27.3758 80.3177 27.2925 80.0526 27.2925 79.7844H28.7443C28.7505 79.9385 28.7875 80.0649 28.8553 80.1635C28.9262 80.2622 29.0202 80.3346 29.1373 80.3808C29.2544 80.4271 29.3901 80.4502 29.5442 80.4502C29.686 80.4502 29.8031 80.4302 29.8956 80.3901C29.9911 80.35 30.0635 80.2961 30.1129 80.2283C30.1622 80.1574 30.1868 80.0757 30.1868 79.9832ZM35.0415 79.9832C35.0415 79.8969 35.0122 79.8229 34.9537 79.7613C34.8982 79.6966 34.7996 79.638 34.6578 79.5856C34.516 79.5301 34.3172 79.4746 34.0613 79.4192C33.8178 79.3668 33.5882 79.2974 33.3724 79.2111C33.1598 79.1248 32.9733 79.02 32.813 78.8967C32.6527 78.7734 32.5263 78.627 32.4339 78.4575C32.3445 78.2879 32.2998 78.0937 32.2998 77.8749C32.2998 77.6622 32.3445 77.4619 32.4339 77.2738C32.5263 77.0827 32.6604 76.9148 32.8361 76.7699C33.0149 76.6219 33.2322 76.5063 33.488 76.4231C33.7439 76.3368 34.0351 76.2937 34.3619 76.2937C34.8119 76.2937 35.2003 76.363 35.527 76.5017C35.8537 76.6373 36.1049 76.8284 36.2806 77.075C36.4594 77.3185 36.5488 77.6006 36.5488 77.9211H34.9907C34.9907 77.7948 34.9691 77.6869 34.9259 77.5975C34.8859 77.5081 34.8196 77.4403 34.7271 77.3941C34.6347 77.3447 34.5114 77.3201 34.3572 77.3201C34.2494 77.3201 34.1507 77.3401 34.0613 77.3802C33.975 77.4203 33.9057 77.4757 33.8533 77.5466C33.8009 77.6175 33.7747 77.7007 33.7747 77.7963C33.7747 77.8641 33.7901 77.9258 33.8209 77.9812C33.8548 78.0336 33.9057 78.083 33.9735 78.1292C34.0413 78.1723 34.1276 78.2124 34.2324 78.2494C34.3372 78.2833 34.4636 78.3141 34.6115 78.3419C34.9475 78.4035 35.2619 78.4914 35.5547 78.6054C35.8476 78.7195 36.0849 78.8813 36.2668 79.0909C36.4517 79.3005 36.5442 79.5825 36.5442 79.937C36.5442 80.1589 36.4933 80.3639 36.3916 80.5519C36.2899 80.7368 36.1435 80.9002 35.9524 81.042C35.7612 81.1807 35.5316 81.2886 35.2635 81.3656C34.9953 81.4427 34.6932 81.4812 34.3572 81.4812C33.8795 81.4812 33.4757 81.3965 33.1459 81.2269C32.8161 81.0543 32.5664 80.8386 32.3969 80.5797C32.2304 80.3177 32.1472 80.0526 32.1472 79.7844H33.599C33.6052 79.9385 33.6421 80.0649 33.71 80.1635C33.7808 80.2622 33.8749 80.3346 33.992 80.3808C34.1091 80.4271 34.2447 80.4502 34.3989 80.4502C34.5406 80.4502 34.6578 80.4302 34.7502 80.3901C34.8458 80.35 34.9182 80.2961 34.9675 80.2283C35.0169 80.1574 35.0415 80.0757 35.0415 79.9832ZM37.0805 78.9383V78.8412C37.0805 78.4744 37.1329 78.1369 37.2377 77.8287C37.3425 77.5173 37.4966 77.2476 37.7 77.0196C37.9035 76.7915 38.1547 76.6142 38.4537 76.4878C38.7527 76.3584 39.0979 76.2937 39.4893 76.2937C39.8839 76.2937 40.2306 76.3584 40.5296 76.4878C40.8317 76.6142 41.0844 76.7915 41.2879 77.0196C41.4913 77.2476 41.6454 77.5173 41.7502 77.8287C41.855 78.1369 41.9074 78.4744 41.9074 78.8412V78.9383C41.9074 79.302 41.855 79.6395 41.7502 79.9509C41.6454 80.2591 41.4913 80.5288 41.2879 80.76C41.0844 80.9881 40.8332 81.1653 40.5342 81.2917C40.2353 81.418 39.89 81.4812 39.4986 81.4812C39.1071 81.4812 38.7604 81.418 38.4583 81.2917C38.1562 81.1653 37.9035 80.9881 37.7 80.76C37.4966 80.5288 37.3425 80.2591 37.2377 79.9509C37.1329 79.6395 37.0805 79.302 37.0805 78.9383ZM38.6386 78.8412V78.9383C38.6386 79.1263 38.6525 79.302 38.6802 79.4654C38.708 79.6287 38.7542 79.7721 38.8189 79.8954C38.8837 80.0156 38.9715 80.1096 39.0825 80.1774C39.1934 80.2452 39.3321 80.2791 39.4986 80.2791C39.6619 80.2791 39.7976 80.2452 39.9055 80.1774C40.0164 80.1096 40.1043 80.0156 40.169 79.8954C40.2337 79.7721 40.28 79.6287 40.3077 79.4654C40.3354 79.302 40.3493 79.1263 40.3493 78.9383V78.8412C40.3493 78.6594 40.3354 78.4883 40.3077 78.328C40.28 78.1646 40.2337 78.0213 40.169 77.898C40.1043 77.7716 40.0164 77.673 39.9055 77.6021C39.7945 77.5312 39.6558 77.4958 39.4893 77.4958C39.326 77.4958 39.1888 77.5312 39.0778 77.6021C38.97 77.673 38.8837 77.7716 38.8189 77.898C38.7542 78.0213 38.708 78.1646 38.6802 78.328C38.6525 78.4883 38.6386 78.6594 38.6386 78.8412ZM44.1729 77.6252V81.3888H42.6148V76.3861H44.0712L44.1729 77.6252ZM45.6525 76.3491L45.6247 77.7963C45.5631 77.7901 45.4799 77.7824 45.3751 77.7732C45.2703 77.7639 45.1824 77.7593 45.1115 77.7593C44.9297 77.7593 44.7725 77.7809 44.6399 77.824C44.5105 77.8641 44.4026 77.9258 44.3163 78.009C44.2331 78.0891 44.1714 78.1908 44.1313 78.3141C44.0943 78.4374 44.0774 78.5808 44.0805 78.7441L43.7984 78.5592C43.7984 78.2232 43.8308 77.9181 43.8955 77.6437C43.9633 77.3663 44.0589 77.1274 44.1822 76.9271C44.3055 76.7236 44.455 76.568 44.6307 76.4601C44.8064 76.3491 45.0036 76.2937 45.2225 76.2937C45.2995 76.2937 45.3751 76.2983 45.449 76.3075C45.5261 76.3168 45.5939 76.3306 45.6525 76.3491Z" fill="#3C3C3C"/>
<path d="M28.7501 19.9939V36.1503H24.8663L19.1517 26.097V36.1503H15.2568V19.9939H19.1517L24.8663 30.0473V19.9939H28.7501ZM35.1083 19.9939V36.1503H31.2135V19.9939H35.1083ZM41.3889 26.7184V29.7144H33.9987V26.7184H41.3889ZM42.0214 19.9939V23.0011H33.9987V19.9939H42.0214Z" fill="#3C3C3C"/>
<circle cx="28.4068" cy="28.4068" r="26.8918" stroke="#91B6FF" stroke-width="3.03006"/>
</svg>
