<svg width="57" height="84" viewBox="0 0 57 84" fill="none" xmlns="http://www.w3.org/2000/svg">
<path d="M15.5782 70.6873C15.5782 70.5301 15.5536 70.3914 15.5042 70.2712C15.458 70.1479 15.3748 70.0369 15.2546 69.9383C15.1374 69.8397 14.9741 69.7457 14.7645 69.6563C14.558 69.5669 14.296 69.476 13.9785 69.3835C13.6456 69.2849 13.3451 69.1754 13.0769 69.0552C12.8087 68.9319 12.5791 68.7917 12.388 68.6345C12.1969 68.4773 12.0505 68.297 11.9488 68.0935C11.847 67.8901 11.7962 67.6574 11.7962 67.3954C11.7962 67.1334 11.8501 66.8914 11.958 66.6695C12.0659 66.4476 12.22 66.2549 12.4204 66.0916C12.6238 65.9251 12.8658 65.7956 13.1463 65.7032C13.4267 65.6107 13.7396 65.5645 14.0848 65.5645C14.5903 65.5645 15.0188 65.6616 15.3702 65.8558C15.7246 66.0469 15.9943 66.2981 16.1793 66.6094C16.3642 66.9176 16.4567 67.2474 16.4567 67.5988H15.569C15.569 67.3461 15.515 67.1226 15.4071 66.9284C15.2993 66.7311 15.1359 66.577 14.9171 66.4661C14.6982 66.352 14.4208 66.295 14.0848 66.295C13.7673 66.295 13.5053 66.3428 13.2988 66.4383C13.0923 66.5339 12.9382 66.6633 12.8365 66.8267C12.7378 66.9901 12.6885 67.1765 12.6885 67.3861C12.6885 67.5279 12.7178 67.6574 12.7764 67.7745C12.838 67.8886 12.932 67.9949 13.0584 68.0935C13.1879 68.1922 13.3512 68.2831 13.5485 68.3663C13.7488 68.4495 13.9877 68.5297 14.2651 68.6067C14.6473 68.7146 14.9772 68.8348 15.2546 68.9674C15.532 69.0999 15.7601 69.2494 15.9388 69.4159C16.1207 69.5792 16.2548 69.7657 16.3411 69.9753C16.4305 70.1818 16.4752 70.4161 16.4752 70.6781C16.4752 70.9524 16.4197 71.2005 16.3087 71.4225C16.1978 71.6444 16.039 71.8339 15.8325 71.9911C15.626 72.1483 15.3779 72.2701 15.0881 72.3564C14.8015 72.4396 14.4809 72.4812 14.1264 72.4812C13.8151 72.4812 13.5084 72.4381 13.2064 72.3518C12.9074 72.2655 12.6346 72.136 12.388 71.9634C12.1445 71.7908 11.9488 71.5781 11.8008 71.3254C11.6559 71.0695 11.5835 70.7736 11.5835 70.4376H12.4712C12.4712 70.6688 12.5159 70.8676 12.6053 71.0341C12.6947 71.1974 12.8164 71.3331 12.9706 71.4409C13.1278 71.5488 13.305 71.629 13.5023 71.6814C13.7026 71.7307 13.9107 71.7553 14.1264 71.7553C14.4378 71.7553 14.7013 71.7122 14.9171 71.6259C15.1328 71.5396 15.2962 71.4163 15.4071 71.256C15.5212 71.0957 15.5782 70.9062 15.5782 70.6873ZM18.4124 67.3861V72.3888H17.5525V67.3861H18.4124ZM17.4877 66.0592C17.4877 65.9205 17.5293 65.8034 17.6126 65.7078C17.6989 65.6122 17.8252 65.5645 17.9917 65.5645C18.155 65.5645 18.2799 65.6122 18.3662 65.7078C18.4556 65.8034 18.5003 65.9205 18.5003 66.0592C18.5003 66.1917 18.4556 66.3058 18.3662 66.4013C18.2799 66.4938 18.155 66.54 17.9917 66.54C17.8252 66.54 17.6989 66.4938 17.6126 66.4013C17.5293 66.3058 17.4877 66.1917 17.4877 66.0592ZM22.6984 71.0618C22.6984 70.9385 22.6707 70.8245 22.6152 70.7197C22.5628 70.6118 22.4534 70.5147 22.2869 70.4284C22.1236 70.339 21.877 70.262 21.5472 70.1972C21.2697 70.1387 21.0185 70.0693 20.7935 69.9892C20.5716 69.909 20.382 69.8119 20.2248 69.6979C20.0707 69.5838 19.9521 69.4498 19.8688 69.2956C19.7856 69.1415 19.744 68.9612 19.744 68.7547C19.744 68.5574 19.7871 68.3709 19.8735 68.1952C19.9628 68.0196 20.0877 67.8639 20.248 67.7283C20.4113 67.5926 20.607 67.4863 20.8351 67.4092C21.0632 67.3322 21.3175 67.2937 21.598 67.2937C21.9987 67.2937 22.3409 67.3646 22.6244 67.5063C22.908 67.6481 23.1253 67.8377 23.2763 68.075C23.4274 68.3093 23.5029 68.5697 23.5029 68.8564H22.6476C22.6476 68.7177 22.6059 68.5836 22.5227 68.4542C22.4426 68.3216 22.3239 68.2122 22.1667 68.1259C22.0126 68.0396 21.823 67.9964 21.598 67.9964C21.3607 67.9964 21.168 68.0334 21.0201 68.1074C20.8752 68.1783 20.7689 68.2692 20.7011 68.3802C20.6363 68.4911 20.604 68.6083 20.604 68.7316C20.604 68.824 20.6194 68.9073 20.6502 68.9812C20.6841 69.0521 20.7427 69.1184 20.8259 69.1801C20.9091 69.2386 21.0262 69.2941 21.1773 69.3465C21.3283 69.3989 21.521 69.4513 21.7552 69.5037C22.1652 69.5962 22.5027 69.7071 22.7678 69.8366C23.0328 69.966 23.2301 70.1248 23.3596 70.3128C23.489 70.5008 23.5538 70.7289 23.5538 70.9971C23.5538 71.2159 23.5075 71.4163 23.4151 71.5981C23.3257 71.78 23.1947 71.9372 23.0221 72.0697C22.8525 72.1992 22.6491 72.3009 22.4118 72.3749C22.1775 72.4458 21.914 72.4812 21.6211 72.4812C21.1804 72.4812 20.8074 72.4026 20.5022 72.2454C20.1971 72.0882 19.9659 71.8848 19.8087 71.6351C19.6515 71.3855 19.5729 71.1219 19.5729 70.8445H20.4329C20.4452 71.0788 20.513 71.2653 20.6363 71.404C20.7596 71.5396 20.9107 71.6367 21.0894 71.6952C21.2682 71.7507 21.4454 71.7785 21.6211 71.7785C21.8554 71.7785 22.0511 71.7476 22.2083 71.686C22.3686 71.6243 22.4904 71.5396 22.5736 71.4317C22.6568 71.3238 22.6984 71.2005 22.6984 71.0618ZM26.7717 67.3861V68.0427H24.067V67.3861H26.7717ZM24.9824 66.1702H25.8378V71.1497C25.8378 71.3192 25.864 71.4471 25.9164 71.5334C25.9688 71.6197 26.0366 71.6767 26.1198 71.7045C26.203 71.7322 26.2924 71.7461 26.388 71.7461C26.4589 71.7461 26.5328 71.7399 26.6099 71.7276C26.69 71.7122 26.7501 71.6999 26.7902 71.6906L26.7948 72.3888C26.727 72.4103 26.6376 72.4304 26.5267 72.4489C26.4188 72.4704 26.2878 72.4812 26.1337 72.4812C25.9241 72.4812 25.7314 72.4396 25.5557 72.3564C25.38 72.2732 25.2398 72.1345 25.135 71.9403C25.0333 71.743 24.9824 71.4779 24.9824 71.145V66.1702ZM29.851 72.4812C29.5027 72.4812 29.1867 72.4227 28.9032 72.3055C28.6227 72.1853 28.3807 72.0173 28.1773 71.8016C27.9769 71.5858 27.8228 71.33 27.7149 71.0341C27.607 70.7382 27.5531 70.4145 27.5531 70.0631V69.869C27.5531 69.4621 27.6132 69.0999 27.7334 68.7824C27.8536 68.4619 28.017 68.1906 28.2235 67.9687C28.43 67.7468 28.6643 67.5788 28.9263 67.4647C29.1883 67.3507 29.4595 67.2937 29.74 67.2937C30.0976 67.2937 30.4058 67.3553 30.6647 67.4786C30.9267 67.6019 31.1409 67.7745 31.3074 67.9964C31.4738 68.2153 31.5971 68.4742 31.6773 68.7732C31.7574 69.0691 31.7975 69.3927 31.7975 69.7441V70.1279H28.0617V69.4297H30.9421V69.365C30.9298 69.1431 30.8836 68.9273 30.8034 68.7177C30.7264 68.5081 30.6031 68.3355 30.4335 68.1999C30.264 68.0642 30.0328 67.9964 29.74 67.9964C29.5458 67.9964 29.367 68.038 29.2037 68.1213C29.0403 68.2014 28.9001 68.3216 28.7829 68.4819C28.6658 68.6422 28.5749 68.8379 28.5102 69.0691C28.4454 69.3003 28.4131 69.5669 28.4131 69.869V70.0631C28.4131 70.3005 28.4454 70.524 28.5102 70.7335C28.578 70.9401 28.6751 71.1219 28.8014 71.2791C28.9309 71.4363 29.0866 71.5596 29.2684 71.649C29.4534 71.7384 29.663 71.7831 29.8972 71.7831C30.1993 71.7831 30.4551 71.7214 30.6647 71.5981C30.8743 71.4749 31.0577 71.3099 31.2149 71.1034L31.7327 71.5149C31.6249 71.6783 31.4877 71.8339 31.3212 71.9819C31.1548 72.1298 30.9498 72.2501 30.7063 72.3425C30.4659 72.435 30.1808 72.4812 29.851 72.4812ZM33.6469 68.3802V72.3888H32.7869V67.3861H33.6006L33.6469 68.3802ZM33.4712 69.6979L33.0736 69.684C33.0766 69.3419 33.1213 69.0259 33.2076 68.7362C33.2939 68.4434 33.4219 68.1891 33.5914 67.9733C33.7609 67.7576 33.9721 67.5911 34.2248 67.474C34.4776 67.3538 34.7704 67.2937 35.1033 67.2937C35.3375 67.2937 35.5533 67.3276 35.7506 67.3954C35.9478 67.4601 36.1189 67.5634 36.2638 67.7052C36.4086 67.8469 36.5211 68.0288 36.6013 68.2507C36.6814 68.4727 36.7215 68.7408 36.7215 69.0552V72.3888H35.8662V69.0968C35.8662 68.8348 35.8215 68.6252 35.7321 68.468C35.6458 68.3108 35.5225 68.1968 35.3622 68.1259C35.2019 68.0519 35.0139 68.0149 34.7981 68.0149C34.5454 68.0149 34.3342 68.0596 34.1647 68.149C33.9952 68.2384 33.8596 68.3617 33.7578 68.5189C33.6561 68.6761 33.5821 68.8564 33.5359 69.0598C33.4928 69.2602 33.4712 69.4729 33.4712 69.6979ZM36.7123 69.2263L36.1389 69.402C36.142 69.1277 36.1867 68.8641 36.273 68.6114C36.3624 68.3586 36.4903 68.1336 36.6568 67.9363C36.8263 67.7391 37.0344 67.5834 37.2809 67.4694C37.5275 67.3522 37.8096 67.2937 38.127 67.2937C38.3952 67.2937 38.6325 67.3291 38.8391 67.4C39.0487 67.4709 39.2244 67.5803 39.3661 67.7283C39.511 67.8731 39.6204 68.0596 39.6944 68.2877C39.7684 68.5158 39.8054 68.7871 39.8054 69.1015V72.3888H38.9454V69.0922C38.9454 68.8117 38.9007 68.5944 38.8113 68.4403C38.725 68.2831 38.6017 68.1737 38.4414 68.112C38.2842 68.0473 38.0962 68.0149 37.8774 68.0149C37.6894 68.0149 37.5229 68.0473 37.378 68.112C37.2332 68.1768 37.1114 68.2661 37.0128 68.3802C36.9141 68.4911 36.8386 68.6191 36.7862 68.7639C36.7369 68.9088 36.7123 69.0629 36.7123 69.2263ZM44.0498 71.5334V68.9581C44.0498 68.7609 44.0097 68.5898 43.9295 68.4449C43.8525 68.297 43.7354 68.1829 43.5782 68.1028C43.421 68.0226 43.2268 67.9826 42.9956 67.9826C42.7798 67.9826 42.5903 68.0196 42.4269 68.0935C42.2666 68.1675 42.1402 68.2646 42.0478 68.3848C41.9584 68.505 41.9137 68.6345 41.9137 68.7732H41.0583C41.0583 68.5944 41.1046 68.4172 41.1971 68.2415C41.2895 68.0658 41.4221 67.907 41.5947 67.7653C41.7704 67.6204 41.98 67.5063 42.2235 67.4231C42.4701 67.3368 42.7444 67.2937 43.0465 67.2937C43.4102 67.2937 43.7307 67.3553 44.0081 67.4786C44.2886 67.6019 44.5075 67.7884 44.6647 68.038C44.825 68.2846 44.9051 68.5944 44.9051 68.9674V71.2976C44.9051 71.4641 44.919 71.6413 44.9467 71.8293C44.9775 72.0173 45.0222 72.1792 45.0808 72.3148V72.3888H44.1885C44.1453 72.2901 44.1114 72.1591 44.0867 71.9958C44.0621 71.8293 44.0498 71.6752 44.0498 71.5334ZM44.1977 69.3557L44.207 69.9568H43.3424C43.0989 69.9568 42.8816 69.9768 42.6904 70.0169C42.4993 70.0539 42.3391 70.1109 42.2096 70.188C42.0801 70.265 41.9815 70.3621 41.9137 70.4793C41.8459 70.5933 41.812 70.7274 41.812 70.8815C41.812 71.0387 41.8474 71.182 41.9183 71.3115C41.9892 71.4409 42.0956 71.5442 42.2373 71.6213C42.3822 71.6952 42.5594 71.7322 42.769 71.7322C43.031 71.7322 43.2622 71.6767 43.4626 71.5658C43.6629 71.4548 43.8217 71.3192 43.9388 71.1589C44.059 70.9986 44.1237 70.843 44.133 70.6919L44.4982 71.1034C44.4767 71.2329 44.4181 71.3762 44.3225 71.5334C44.227 71.6906 44.0991 71.8416 43.9388 71.9865C43.7816 72.1283 43.5936 72.247 43.3747 72.3425C43.159 72.435 42.9155 72.4812 42.6442 72.4812C42.3052 72.4812 42.0077 72.415 41.7519 72.2824C41.4991 72.1499 41.3019 71.9726 41.1601 71.7507C41.0214 71.5257 40.952 71.2745 40.952 70.9971C40.952 70.7289 41.0044 70.4931 41.1092 70.2897C41.214 70.0832 41.365 69.9121 41.5623 69.7765C41.7596 69.6378 41.9969 69.533 42.2743 69.4621C42.5517 69.3912 42.8615 69.3557 43.2037 69.3557H44.1977ZM15.7816 77.7917V80.5565C15.6676 80.6829 15.4919 80.8185 15.2546 80.9634C15.0203 81.1052 14.7244 81.2269 14.3669 81.3287C14.0093 81.4304 13.5886 81.4812 13.1046 81.4812C12.6577 81.4812 12.2524 81.4103 11.8887 81.2686C11.5249 81.1237 11.2121 80.9125 10.9501 80.6351C10.6912 80.3546 10.4908 80.0125 10.349 79.6087C10.2103 79.2018 10.141 78.7364 10.141 78.2124V77.8379C10.141 77.3139 10.2119 76.8485 10.3537 76.4416C10.4954 76.0347 10.6943 75.6926 10.9501 75.4152C11.209 75.1347 11.5126 74.922 11.8609 74.7772C12.2123 74.6323 12.5976 74.5598 13.0168 74.5598C13.6363 74.5598 14.1403 74.6585 14.5287 74.8558C14.9171 75.0499 15.2114 75.3196 15.4118 75.6649C15.6121 76.007 15.7339 76.4031 15.777 76.8531H14.2189C14.1881 76.6312 14.1295 76.4432 14.0432 76.289C13.96 76.1318 13.8398 76.0132 13.6826 75.933C13.5254 75.8498 13.3219 75.8082 13.0723 75.8082C12.8781 75.8082 12.7009 75.8498 12.5406 75.933C12.3834 76.0163 12.2493 76.1426 12.1383 76.3122C12.0274 76.4786 11.9411 76.6882 11.8794 76.941C11.8208 77.1937 11.7916 77.4896 11.7916 77.8287V78.2124C11.7916 78.5484 11.8193 78.8428 11.8748 79.0955C11.9334 79.3483 12.0197 79.5594 12.1337 79.7289C12.2508 79.8954 12.3988 80.0217 12.5776 80.1081C12.7594 80.1913 12.9736 80.2329 13.2202 80.2329C13.3928 80.2329 13.5408 80.219 13.6641 80.1913C13.7874 80.1605 13.8891 80.1235 13.9692 80.0803C14.0525 80.0341 14.1156 79.9909 14.1588 79.9509V78.9059H13.0307V77.7917H15.7816ZM16.4613 78.9383V78.8412C16.4613 78.4744 16.5137 78.1369 16.6185 77.8287C16.7233 77.5173 16.8774 77.2476 17.0809 77.0196C17.2843 76.7915 17.5355 76.6142 17.8345 76.4878C18.1335 76.3584 18.4787 76.2937 18.8702 76.2937C19.2647 76.2937 19.6115 76.3584 19.9104 76.4878C20.2125 76.6142 20.4653 76.7915 20.6687 77.0196C20.8721 77.2476 21.0262 77.5173 21.131 77.8287C21.2358 78.1369 21.2882 78.4744 21.2882 78.8412V78.9383C21.2882 79.302 21.2358 79.6395 21.131 79.9509C21.0262 80.2591 20.8721 80.5288 20.6687 80.76C20.4653 80.9881 20.214 81.1653 19.9151 81.2917C19.6161 81.418 19.2709 81.4812 18.8794 81.4812C18.4879 81.4812 18.1412 81.418 17.8391 81.2917C17.537 81.1653 17.2843 80.9881 17.0809 80.76C16.8774 80.5288 16.7233 80.2591 16.6185 79.9509C16.5137 79.6395 16.4613 79.302 16.4613 78.9383ZM18.0194 78.8412V78.9383C18.0194 79.1263 18.0333 79.302 18.061 79.4654C18.0888 79.6287 18.135 79.7721 18.1997 79.8954C18.2645 80.0156 18.3523 80.1096 18.4633 80.1774C18.5742 80.2452 18.713 80.2791 18.8794 80.2791C19.0428 80.2791 19.1784 80.2452 19.2863 80.1774C19.3972 80.1096 19.4851 80.0156 19.5498 79.8954C19.6145 79.7721 19.6608 79.6287 19.6885 79.4654C19.7163 79.302 19.7301 79.1263 19.7301 78.9383V78.8412C19.7301 78.6594 19.7163 78.4883 19.6885 78.328C19.6608 78.1646 19.6145 78.0213 19.5498 77.898C19.4851 77.7716 19.3972 77.673 19.2863 77.6021C19.1753 77.5312 19.0366 77.4958 18.8702 77.4958C18.7068 77.4958 18.5696 77.5312 18.4587 77.6021C18.3508 77.673 18.2645 77.7716 18.1997 77.898C18.135 78.0213 18.0888 78.1646 18.061 78.328C18.0333 78.4883 18.0194 78.6594 18.0194 78.8412ZM24.9038 80.1728V76.3861H26.4666V81.3888H25.0055L24.9038 80.1728ZM25.0518 79.1556L25.4586 79.1464C25.4586 79.4823 25.4186 79.7937 25.3384 80.0803C25.2583 80.3639 25.1396 80.6105 24.9824 80.8201C24.8283 81.0297 24.6372 81.193 24.4091 81.3102C24.1841 81.4242 23.9236 81.4812 23.6277 81.4812C23.3811 81.4812 23.1546 81.4473 22.9481 81.3795C22.7446 81.3086 22.569 81.1992 22.421 81.0512C22.273 80.9002 22.1575 80.7076 22.0742 80.4733C21.9941 80.236 21.954 79.9524 21.954 79.6226V76.3861H23.5121V79.6318C23.5121 79.7428 23.526 79.8383 23.5538 79.9185C23.5815 79.9986 23.6216 80.0664 23.674 80.1219C23.7264 80.1743 23.7911 80.2144 23.8682 80.2421C23.9483 80.2668 24.0392 80.2791 24.1409 80.2791C24.3752 80.2791 24.5586 80.2298 24.6911 80.1312C24.8237 80.0325 24.9162 79.8985 24.9686 79.7289C25.024 79.5594 25.0518 79.3683 25.0518 79.1556ZM28.8985 77.6252V81.3888H27.3404V76.3861H28.7968L28.8985 77.6252ZM30.3781 76.3491L30.3503 77.7963C30.2887 77.7901 30.2054 77.7824 30.1006 77.7732C29.9958 77.7639 29.908 77.7593 29.8371 77.7593C29.6552 77.7593 29.498 77.7809 29.3655 77.824C29.236 77.8641 29.1282 77.9258 29.0419 78.009C28.9586 78.0891 28.897 78.1908 28.8569 78.3141C28.8199 78.4374 28.803 78.5808 28.8061 78.7441L28.524 78.5592C28.524 78.2232 28.5564 77.9181 28.6211 77.6437C28.6889 77.3663 28.7845 77.1274 28.9078 76.9271C29.0311 76.7236 29.1806 76.568 29.3563 76.4601C29.532 76.3491 29.7292 76.2937 29.9481 76.2937C30.0251 76.2937 30.1006 76.2983 30.1746 76.3075C30.2517 76.3168 30.3195 76.3306 30.3781 76.3491ZM32.4864 77.4449V81.3888H30.9282V76.3861H32.3893L32.4864 77.4449ZM32.2968 78.7164L31.9408 78.7256C31.9408 78.3742 31.9824 78.0506 32.0656 77.7547C32.1489 77.4588 32.2721 77.2014 32.4355 76.9826C32.5989 76.7637 32.7992 76.5942 33.0366 76.474C33.277 76.3538 33.5544 76.2937 33.8688 76.2937C34.0876 76.2937 34.2865 76.3276 34.4652 76.3954C34.644 76.4601 34.7981 76.5634 34.9276 76.7052C35.057 76.8439 35.1557 77.0257 35.2235 77.2507C35.2944 77.4727 35.3298 77.7393 35.3298 78.0506V81.3888H33.7717V78.2494C33.7717 78.0367 33.747 77.8764 33.6977 77.7686C33.6515 77.6607 33.5837 77.5882 33.4943 77.5513C33.4049 77.5143 33.2955 77.4958 33.166 77.4958C33.0304 77.4958 32.9086 77.5266 32.8008 77.5882C32.6929 77.6499 32.6004 77.7362 32.5234 77.8472C32.4494 77.955 32.3924 78.083 32.3523 78.2309C32.3153 78.3789 32.2968 78.5407 32.2968 78.7164ZM35.1541 78.7164L34.7195 78.7256C34.7195 78.3742 34.7581 78.0506 34.8351 77.7547C34.9153 77.4588 35.0339 77.2014 35.1911 76.9826C35.3514 76.7637 35.5502 76.5942 35.7876 76.474C36.0249 76.3538 36.3008 76.2937 36.6152 76.2937C36.8433 76.2937 37.0529 76.3276 37.244 76.3954C37.4351 76.4632 37.6 76.5726 37.7387 76.7236C37.8774 76.8747 37.9853 77.075 38.0623 77.3247C38.1394 77.5713 38.1779 77.8764 38.1779 78.2402V81.3888H36.6152V78.2402C36.6152 78.0336 36.5905 77.878 36.5412 77.7732C36.4949 77.6653 36.4271 77.5929 36.3377 77.5559C36.2484 77.5158 36.142 77.4958 36.0187 77.4958C35.8708 77.4958 35.7429 77.5266 35.635 77.5882C35.5271 77.6499 35.4362 77.7362 35.3622 77.8472C35.2913 77.955 35.2389 78.083 35.205 78.2309C35.1711 78.3789 35.1541 78.5407 35.1541 78.7164ZM41.493 81.4812C41.0861 81.4812 40.7224 81.418 40.4018 81.2917C40.0812 81.1622 39.81 80.985 39.5881 80.76C39.3692 80.535 39.2012 80.276 39.0841 79.9832C38.9701 79.6904 38.913 79.3806 38.913 79.0539V78.8782C38.913 78.5114 38.9639 78.1723 39.0656 77.861C39.1673 77.5466 39.3184 77.2723 39.5187 77.038C39.7191 76.8038 39.9703 76.6219 40.2724 76.4925C40.5744 76.3599 40.9258 76.2937 41.3265 76.2937C41.681 76.2937 41.9985 76.3507 42.279 76.4647C42.5594 76.5788 42.7968 76.7421 42.991 76.9548C43.1882 77.1675 43.3377 77.4249 43.4395 77.7269C43.5443 78.029 43.5967 78.3681 43.5967 78.7441V79.3775H39.5095V78.402H42.0755V78.2818C42.0786 78.1153 42.0493 77.9735 41.9877 77.8564C41.9291 77.7393 41.8428 77.6499 41.7288 77.5882C41.6147 77.5266 41.476 77.4958 41.3126 77.4958C41.1431 77.4958 41.0029 77.5328 40.8919 77.6067C40.784 77.6807 40.6993 77.7824 40.6376 77.9119C40.579 78.0383 40.5374 78.1847 40.5128 78.3511C40.4881 78.5176 40.4758 78.6933 40.4758 78.8782V79.0539C40.4758 79.2388 40.5004 79.4068 40.5498 79.5579C40.6022 79.7089 40.6761 79.8383 40.7717 79.9462C40.8703 80.051 40.9875 80.1327 41.1231 80.1913C41.2618 80.2498 41.419 80.2791 41.5947 80.2791C41.8074 80.2791 42.017 80.2391 42.2235 80.1589C42.43 80.0788 42.6072 79.9462 42.7552 79.7613L43.4626 80.6028C43.3609 80.7476 43.216 80.8879 43.028 81.0235C42.843 81.1591 42.6211 81.2701 42.3622 81.3564C42.1033 81.4396 41.8135 81.4812 41.493 81.4812ZM46.8655 76.3861V77.468H43.8509V76.3861H46.8655ZM44.4844 75.1424H46.0425V79.7567C46.0425 79.8892 46.0579 79.9925 46.0887 80.0664C46.1195 80.1373 46.1719 80.1882 46.2459 80.219C46.323 80.2468 46.4247 80.2606 46.5511 80.2606C46.6405 80.2606 46.7144 80.2591 46.773 80.256C46.8316 80.2498 46.887 80.2421 46.9394 80.2329V81.3472C46.8069 81.3903 46.6682 81.4227 46.5233 81.4442C46.3785 81.4689 46.2243 81.4812 46.061 81.4812C45.7281 81.4812 45.443 81.4288 45.2056 81.324C44.9714 81.2192 44.7926 81.0543 44.6693 80.8293C44.546 80.6043 44.4844 80.3115 44.4844 79.9509V75.1424Z" fill="#3C3C3C"/>
<path d="M35.1061 27.5173V34.1529C34.8323 34.4563 34.4107 34.7817 33.8411 35.1294C33.2789 35.4697 32.5687 35.7619 31.7106 36.006C30.8524 36.2502 29.8427 36.3722 28.6812 36.3722C27.6086 36.3722 26.6358 36.2021 25.7629 35.8618C24.89 35.5141 24.1391 35.0074 23.5103 34.3416C22.8889 33.6684 22.4081 32.8473 22.0678 31.8782C21.7349 30.9017 21.5684 29.7847 21.5684 28.5271V27.6283C21.5684 26.3707 21.7386 25.2536 22.0789 24.2771C22.4192 23.3007 22.8963 22.4795 23.5103 21.8137C24.1317 21.1406 24.8604 20.6301 25.6963 20.2824C26.5396 19.9347 27.4643 19.7609 28.4704 19.7609C29.9573 19.7609 31.1668 19.9976 32.0989 20.4711C33.031 20.9371 33.7375 21.5844 34.2183 22.4129C34.6992 23.2341 34.9914 24.1847 35.095 25.2647H31.3555C31.2815 24.7321 31.1409 24.2808 30.9338 23.911C30.7341 23.5337 30.4456 23.2489 30.0683 23.0565C29.691 22.8568 29.2028 22.7569 28.6036 22.7569C28.1375 22.7569 27.7122 22.8568 27.3275 23.0565C26.9502 23.2563 26.6284 23.5596 26.3621 23.9664C26.0958 24.3659 25.8886 24.869 25.7407 25.4756C25.6001 26.0822 25.5299 26.7923 25.5299 27.6061V28.5271C25.5299 29.3334 25.5964 30.0399 25.7296 30.6465C25.8701 31.2531 26.0773 31.7598 26.351 32.1667C26.6321 32.5662 26.9872 32.8695 27.4162 33.0766C27.8527 33.2763 28.3668 33.3762 28.9586 33.3762C29.3729 33.3762 29.728 33.3429 30.0239 33.2763C30.3198 33.2024 30.5639 33.1136 30.7563 33.01C30.956 32.8991 31.1077 32.7955 31.2112 32.6993V30.1915H28.5037V27.5173H35.1061Z" fill="#3C3C3C"/>
<circle cx="28.5932" cy="28.4068" r="26.8918" stroke="#FFC998" stroke-width="3.03006"/>
</svg>
