<svg width="58" height="84" viewBox="0 0 58 84" fill="none" xmlns="http://www.w3.org/2000/svg">
<path d="M15.6884 70.6873C15.6884 70.5301 15.6638 70.3914 15.6144 70.2712C15.5682 70.1479 15.485 70.0369 15.3648 69.9383C15.2476 69.8397 15.0843 69.7457 14.8747 69.6563C14.6682 69.5669 14.4062 69.476 14.0887 69.3835C13.7558 69.2849 13.4553 69.1754 13.1871 69.0552C12.9189 68.9319 12.6893 68.7917 12.4982 68.6345C12.3071 68.4773 12.1607 68.297 12.059 68.0935C11.9572 67.8901 11.9064 67.6574 11.9064 67.3954C11.9064 67.1334 11.9603 66.8914 12.0682 66.6695C12.1761 66.4476 12.3302 66.2549 12.5306 66.0916C12.734 65.9251 12.976 65.7956 13.2564 65.7032C13.5369 65.6107 13.8498 65.5645 14.195 65.5645C14.7005 65.5645 15.129 65.6616 15.4804 65.8558C15.8348 66.0469 16.1045 66.2981 16.2895 66.6094C16.4744 66.9176 16.5669 67.2474 16.5669 67.5988H15.6792C15.6792 67.3461 15.6252 67.1226 15.5173 66.9284C15.4095 66.7311 15.2461 66.577 15.0273 66.4661C14.8084 66.352 14.531 66.295 14.195 66.295C13.8775 66.295 13.6155 66.3428 13.409 66.4383C13.2025 66.5339 13.0484 66.6633 12.9467 66.8267C12.848 66.9901 12.7987 67.1765 12.7987 67.3861C12.7987 67.5279 12.828 67.6574 12.8866 67.7745C12.9482 67.8886 13.0422 67.9949 13.1686 68.0935C13.2981 68.1922 13.4614 68.2831 13.6587 68.3663C13.859 68.4495 14.0979 68.5297 14.3753 68.6067C14.7575 68.7146 15.0874 68.8348 15.3648 68.9674C15.6422 69.0999 15.8703 69.2494 16.049 69.4159C16.2309 69.5792 16.365 69.7657 16.4513 69.9753C16.5407 70.1818 16.5854 70.4161 16.5854 70.6781C16.5854 70.9524 16.5299 71.2005 16.4189 71.4225C16.308 71.6444 16.1492 71.8339 15.9427 71.9911C15.7362 72.1483 15.4881 72.2701 15.1983 72.3564C14.9117 72.4396 14.5911 72.4812 14.2366 72.4812C13.9253 72.4812 13.6186 72.4381 13.3166 72.3518C13.0176 72.2655 12.7448 72.136 12.4982 71.9634C12.2547 71.7908 12.059 71.5781 11.911 71.3254C11.7661 71.0695 11.6937 70.7736 11.6937 70.4376H12.5814C12.5814 70.6688 12.6261 70.8676 12.7155 71.0341C12.8049 71.1974 12.9266 71.3331 13.0808 71.4409C13.238 71.5488 13.4152 71.629 13.6125 71.6814C13.8128 71.7307 14.0209 71.7553 14.2366 71.7553C14.5479 71.7553 14.8115 71.7122 15.0273 71.6259C15.243 71.5396 15.4064 71.4163 15.5173 71.256C15.6314 71.0957 15.6884 70.9062 15.6884 70.6873ZM18.5226 67.3861V72.3888H17.6626V67.3861H18.5226ZM17.5979 66.0592C17.5979 65.9205 17.6395 65.8034 17.7228 65.7078C17.8091 65.6122 17.9354 65.5645 18.1019 65.5645C18.2652 65.5645 18.3901 65.6122 18.4764 65.7078C18.5658 65.8034 18.6105 65.9205 18.6105 66.0592C18.6105 66.1917 18.5658 66.3058 18.4764 66.4013C18.3901 66.4938 18.2652 66.54 18.1019 66.54C17.9354 66.54 17.8091 66.4938 17.7228 66.4013C17.6395 66.3058 17.5979 66.1917 17.5979 66.0592ZM22.8086 71.0618C22.8086 70.9385 22.7809 70.8245 22.7254 70.7197C22.673 70.6118 22.5636 70.5147 22.3971 70.4284C22.2338 70.339 21.9872 70.262 21.6574 70.1972C21.3799 70.1387 21.1287 70.0693 20.9037 69.9892C20.6818 69.909 20.4922 69.8119 20.335 69.6979C20.1809 69.5838 20.0622 69.4498 19.979 69.2956C19.8958 69.1415 19.8542 68.9612 19.8542 68.7547C19.8542 68.5574 19.8973 68.3709 19.9836 68.1952C20.073 68.0196 20.1979 67.8639 20.3582 67.7283C20.5215 67.5926 20.7172 67.4863 20.9453 67.4092C21.1734 67.3322 21.4277 67.2937 21.7082 67.2937C22.1089 67.2937 22.4511 67.3646 22.7346 67.5063C23.0182 67.6481 23.2355 67.8377 23.3865 68.075C23.5376 68.3093 23.6131 68.5697 23.6131 68.8564H22.7578C22.7578 68.7177 22.7161 68.5836 22.6329 68.4542C22.5528 68.3216 22.4341 68.2122 22.2769 68.1259C22.1228 68.0396 21.9332 67.9964 21.7082 67.9964C21.4709 67.9964 21.2782 68.0334 21.1303 68.1074C20.9854 68.1783 20.8791 68.2692 20.8113 68.3802C20.7465 68.4911 20.7142 68.6083 20.7142 68.7316C20.7142 68.824 20.7296 68.9073 20.7604 68.9812C20.7943 69.0521 20.8529 69.1184 20.9361 69.1801C21.0193 69.2386 21.1364 69.2941 21.2875 69.3465C21.4385 69.3989 21.6312 69.4513 21.8654 69.5037C22.2754 69.5962 22.6129 69.7071 22.878 69.8366C23.143 69.966 23.3403 70.1248 23.4698 70.3128C23.5992 70.5008 23.664 70.7289 23.664 70.9971C23.664 71.2159 23.6177 71.4163 23.5253 71.5981C23.4359 71.78 23.3049 71.9372 23.1323 72.0697C22.9627 72.1992 22.7593 72.3009 22.522 72.3749C22.2877 72.4458 22.0242 72.4812 21.7313 72.4812C21.2906 72.4812 20.9176 72.4026 20.6124 72.2454C20.3073 72.0882 20.0761 71.8848 19.9189 71.6351C19.7617 71.3855 19.6831 71.1219 19.6831 70.8445H20.5431C20.5554 71.0788 20.6232 71.2653 20.7465 71.404C20.8698 71.5396 21.0209 71.6367 21.1996 71.6952C21.3784 71.7507 21.5556 71.7785 21.7313 71.7785C21.9656 71.7785 22.1613 71.7476 22.3185 71.686C22.4788 71.6243 22.6006 71.5396 22.6838 71.4317C22.767 71.3238 22.8086 71.2005 22.8086 71.0618ZM26.8819 67.3861V68.0427H24.1772V67.3861H26.8819ZM25.0926 66.1702H25.948V71.1497C25.948 71.3192 25.9742 71.4471 26.0266 71.5334C26.079 71.6197 26.1468 71.6767 26.23 71.7045C26.3132 71.7322 26.4026 71.7461 26.4982 71.7461C26.5691 71.7461 26.643 71.7399 26.7201 71.7276C26.8002 71.7122 26.8603 71.6999 26.9004 71.6906L26.905 72.3888C26.8372 72.4103 26.7478 72.4304 26.6369 72.4489C26.529 72.4704 26.398 72.4812 26.2439 72.4812C26.0343 72.4812 25.8416 72.4396 25.6659 72.3564C25.4902 72.2732 25.35 72.1345 25.2452 71.9403C25.1435 71.743 25.0926 71.4779 25.0926 71.145V66.1702ZM29.9612 72.4812C29.6129 72.4812 29.2969 72.4227 29.0134 72.3055C28.7329 72.1853 28.4909 72.0173 28.2875 71.8016C28.0871 71.5858 27.933 71.33 27.8251 71.0341C27.7172 70.7382 27.6633 70.4145 27.6633 70.0631V69.869C27.6633 69.4621 27.7234 69.0999 27.8436 68.7824C27.9638 68.4619 28.1272 68.1906 28.3337 67.9687C28.5402 67.7468 28.7745 67.5788 29.0365 67.4647C29.2985 67.3507 29.5697 67.2937 29.8502 67.2937C30.2078 67.2937 30.516 67.3553 30.7749 67.4786C31.0369 67.6019 31.2511 67.7745 31.4176 67.9964C31.584 68.2153 31.7073 68.4742 31.7875 68.7732C31.8676 69.0691 31.9077 69.3927 31.9077 69.7441V70.1279H28.1719V69.4297H31.0523V69.365C31.04 69.1431 30.9938 68.9273 30.9136 68.7177C30.8366 68.5081 30.7133 68.3355 30.5437 68.1999C30.3742 68.0642 30.143 67.9964 29.8502 67.9964C29.656 67.9964 29.4772 68.038 29.3139 68.1213C29.1505 68.2014 29.0103 68.3216 28.8931 68.4819C28.776 68.6422 28.6851 68.8379 28.6204 69.0691C28.5556 69.3003 28.5233 69.5669 28.5233 69.869V70.0631C28.5233 70.3005 28.5556 70.524 28.6204 70.7335C28.6882 70.9401 28.7853 71.1219 28.9116 71.2791C29.0411 71.4363 29.1968 71.5596 29.3786 71.649C29.5635 71.7384 29.7731 71.7831 30.0074 71.7831C30.3095 71.7831 30.5653 71.7214 30.7749 71.5981C30.9845 71.4749 31.1679 71.3099 31.3251 71.1034L31.8429 71.5149C31.7351 71.6783 31.5979 71.8339 31.4314 71.9819C31.265 72.1298 31.06 72.2501 30.8165 72.3425C30.5761 72.435 30.291 72.4812 29.9612 72.4812ZM33.7571 68.3802V72.3888H32.8971V67.3861H33.7108L33.7571 68.3802ZM33.5814 69.6979L33.1838 69.684C33.1868 69.3419 33.2315 69.0259 33.3178 68.7362C33.4041 68.4434 33.5321 68.1891 33.7016 67.9733C33.8711 67.7576 34.0823 67.5911 34.335 67.474C34.5878 67.3538 34.8806 67.2937 35.2135 67.2937C35.4477 67.2937 35.6635 67.3276 35.8608 67.3954C36.058 67.4601 36.2291 67.5634 36.374 67.7052C36.5188 67.8469 36.6313 68.0288 36.7115 68.2507C36.7916 68.4727 36.8317 68.7408 36.8317 69.0552V72.3888H35.9763V69.0968C35.9763 68.8348 35.9317 68.6252 35.8423 68.468C35.756 68.3108 35.6327 68.1968 35.4724 68.1259C35.3121 68.0519 35.1241 68.0149 34.9083 68.0149C34.6556 68.0149 34.4444 68.0596 34.2749 68.149C34.1054 68.2384 33.9697 68.3617 33.868 68.5189C33.7663 68.6761 33.6923 68.8564 33.6461 69.0598C33.603 69.2602 33.5814 69.4729 33.5814 69.6979ZM36.8225 69.2263L36.2491 69.402C36.2522 69.1277 36.2969 68.8641 36.3832 68.6114C36.4726 68.3586 36.6005 68.1336 36.767 67.9363C36.9365 67.7391 37.1446 67.5834 37.3911 67.4694C37.6377 67.3522 37.9198 67.2937 38.2372 67.2937C38.5054 67.2937 38.7427 67.3291 38.9493 67.4C39.1589 67.4709 39.3346 67.5803 39.4763 67.7283C39.6212 67.8731 39.7306 68.0596 39.8046 68.2877C39.8786 68.5158 39.9156 68.7871 39.9156 69.1015V72.3888H39.0556V69.0922C39.0556 68.8117 39.0109 68.5944 38.9215 68.4403C38.8352 68.2831 38.7119 68.1737 38.5516 68.112C38.3944 68.0473 38.2064 68.0149 37.9876 68.0149C37.7996 68.0149 37.6331 68.0473 37.4882 68.112C37.3434 68.1768 37.2216 68.2661 37.123 68.3802C37.0243 68.4911 36.9488 68.6191 36.8964 68.7639C36.8471 68.9088 36.8225 69.0629 36.8225 69.2263ZM44.16 71.5334V68.9581C44.16 68.7609 44.1199 68.5898 44.0397 68.4449C43.9627 68.297 43.8456 68.1829 43.6884 68.1028C43.5312 68.0226 43.337 67.9826 43.1058 67.9826C42.89 67.9826 42.7005 68.0196 42.5371 68.0935C42.3768 68.1675 42.2504 68.2646 42.158 68.3848C42.0686 68.505 42.0239 68.6345 42.0239 68.7732H41.1685C41.1685 68.5944 41.2148 68.4172 41.3073 68.2415C41.3997 68.0658 41.5323 67.907 41.7049 67.7653C41.8806 67.6204 42.0902 67.5063 42.3337 67.4231C42.5803 67.3368 42.8546 67.2937 43.1567 67.2937C43.5204 67.2937 43.8409 67.3553 44.1183 67.4786C44.3988 67.6019 44.6177 67.7884 44.7749 68.038C44.9352 68.2846 45.0153 68.5944 45.0153 68.9674V71.2976C45.0153 71.4641 45.0292 71.6413 45.0569 71.8293C45.0877 72.0173 45.1324 72.1792 45.191 72.3148V72.3888H44.2987C44.2555 72.2901 44.2216 72.1591 44.1969 71.9958C44.1723 71.8293 44.16 71.6752 44.16 71.5334ZM44.3079 69.3557L44.3172 69.9568H43.4526C43.2091 69.9568 42.9917 69.9768 42.8006 70.0169C42.6095 70.0539 42.4493 70.1109 42.3198 70.188C42.1903 70.265 42.0917 70.3621 42.0239 70.4793C41.9561 70.5933 41.9222 70.7274 41.9222 70.8815C41.9222 71.0387 41.9576 71.182 42.0285 71.3115C42.0994 71.4409 42.2058 71.5442 42.3475 71.6213C42.4924 71.6952 42.6696 71.7322 42.8792 71.7322C43.1412 71.7322 43.3724 71.6767 43.5728 71.5658C43.7731 71.4548 43.9319 71.3192 44.049 71.1589C44.1692 70.9986 44.2339 70.843 44.2432 70.6919L44.6084 71.1034C44.5869 71.2329 44.5283 71.3762 44.4327 71.5334C44.3372 71.6906 44.2093 71.8416 44.049 71.9865C43.8918 72.1283 43.7038 72.247 43.4849 72.3425C43.2692 72.435 43.0257 72.4812 42.7544 72.4812C42.4154 72.4812 42.1179 72.415 41.8621 72.2824C41.6093 72.1499 41.412 71.9726 41.2703 71.7507C41.1316 71.5257 41.0622 71.2745 41.0622 70.9971C41.0622 70.7289 41.1146 70.4931 41.2194 70.2897C41.3242 70.0832 41.4752 69.9121 41.6725 69.7765C41.8698 69.6378 42.1071 69.533 42.3845 69.4621C42.6619 69.3912 42.9717 69.3557 43.3139 69.3557H44.3079ZM22.5774 80.1404V81.3888H19.1745V80.1404H22.5774ZM19.7525 74.6569V81.3888H18.1296V74.6569H19.7525ZM24.8337 76.3861V81.3888H23.271V76.3861H24.8337ZM23.1785 75.0962C23.1785 74.8742 23.2586 74.6924 23.4189 74.5506C23.5792 74.4088 23.7873 74.3379 24.0431 74.3379C24.2989 74.3379 24.507 74.4088 24.6673 74.5506C24.8275 74.6924 24.9077 74.8742 24.9077 75.0962C24.9077 75.3181 24.8275 75.5 24.6673 75.6417C24.507 75.7835 24.2989 75.8544 24.0431 75.8544C23.7873 75.8544 23.5792 75.7835 23.4189 75.6417C23.2586 75.5 23.1785 75.3181 23.1785 75.0962ZM28.9394 76.3861H30.3542V81.1946C30.3542 81.6569 30.2478 82.0484 30.0351 82.3689C29.8225 82.6926 29.525 82.9376 29.1428 83.1041C28.7637 83.2736 28.3198 83.3584 27.8112 83.3584C27.5862 83.3584 27.3566 83.3291 27.1223 83.2705C26.8881 83.215 26.6692 83.1318 26.4658 83.0209C26.2624 82.9099 26.0913 82.7727 25.9526 82.6094L26.6045 81.6939C26.7309 81.8357 26.8896 81.9559 27.0807 82.0545C27.2718 82.1563 27.4968 82.2071 27.7558 82.2071C27.9808 82.2071 28.1688 82.1671 28.3198 82.0869C28.4739 82.0068 28.5911 81.8896 28.6712 81.7355C28.7514 81.5845 28.7914 81.4011 28.7914 81.1853V77.5697L28.9394 76.3861ZM25.6151 78.9476V78.8505C25.6151 78.4713 25.6613 78.1261 25.7538 77.8148C25.8493 77.5004 25.985 77.2307 26.1606 77.0057C26.3394 76.7776 26.5552 76.6019 26.8079 76.4786C27.0607 76.3553 27.3458 76.2937 27.6633 76.2937C28.0054 76.2937 28.2859 76.3599 28.5048 76.4925C28.7267 76.6219 28.9039 76.8038 29.0365 77.038C29.1721 77.2723 29.2769 77.5466 29.3509 77.861C29.4279 78.1723 29.4927 78.5083 29.5451 78.869V78.9845C29.4927 79.3236 29.4202 79.6442 29.3277 79.9462C29.2384 80.2452 29.1212 80.5103 28.9764 80.7415C28.8315 80.9726 28.6496 81.1545 28.4308 81.287C28.215 81.4165 27.9561 81.4812 27.654 81.4812C27.3396 81.4812 27.0561 81.418 26.8033 81.2917C26.5536 81.1653 26.3394 80.9881 26.1606 80.76C25.985 80.5319 25.8493 80.2637 25.7538 79.9555C25.6613 79.6472 25.6151 79.3113 25.6151 78.9476ZM27.1732 78.8505V78.9476C27.1732 79.1356 27.1901 79.3097 27.2241 79.47C27.261 79.6303 27.3165 79.7721 27.3905 79.8954C27.4645 80.0156 27.5554 80.1096 27.6633 80.1774C27.7743 80.2452 27.9037 80.2791 28.0517 80.2791C28.2767 80.2791 28.4585 80.2313 28.5972 80.1358C28.7359 80.0402 28.8361 79.9046 28.8978 79.7289C28.9594 79.5532 28.9856 79.3467 28.9764 79.1094V78.7441C28.9825 78.5407 28.9687 78.3619 28.9348 78.2078C28.9008 78.0506 28.8469 77.9196 28.7729 77.8148C28.702 77.71 28.6065 77.6314 28.4863 77.579C28.3691 77.5235 28.2274 77.4958 28.0609 77.4958C27.916 77.4958 27.7881 77.5297 27.6772 77.5975C27.5662 77.6653 27.4737 77.7609 27.3997 77.8841C27.3258 78.0044 27.2687 78.1477 27.2287 78.3141C27.1917 78.4775 27.1732 78.6563 27.1732 78.8505ZM32.7769 74.2871V81.3888H31.2188V74.2871H32.7769ZM32.5919 78.7164L32.2267 78.7256C32.2267 78.3742 32.2698 78.0506 32.3561 77.7547C32.4424 77.4588 32.5657 77.2014 32.726 76.9826C32.8863 76.7637 33.079 76.5942 33.304 76.474C33.529 76.3538 33.7786 76.2937 34.053 76.2937C34.2996 76.2937 34.5246 76.3291 34.728 76.4C34.9345 76.4709 35.1118 76.5849 35.2597 76.7421C35.4107 76.8993 35.5263 77.1043 35.6065 77.3571C35.6897 77.6098 35.7313 77.9181 35.7313 78.2818V81.3888H34.1639V78.2725C34.1639 78.0691 34.1347 77.9119 34.0761 77.8009C34.0206 77.6869 33.9405 77.6083 33.8357 77.5651C33.7309 77.5189 33.6029 77.4958 33.4519 77.4958C33.2701 77.4958 33.1221 77.5266 33.0081 77.5882C32.894 77.6499 32.8062 77.7362 32.7445 77.8472C32.686 77.955 32.6459 78.083 32.6243 78.2309C32.6027 78.3789 32.5919 78.5407 32.5919 78.7164ZM39.2313 76.3861V77.468H36.2168V76.3861H39.2313ZM36.8502 75.1424H38.4083V79.7567C38.4083 79.8892 38.4237 79.9925 38.4545 80.0664C38.4854 80.1373 38.5378 80.1882 38.6117 80.219C38.6888 80.2468 38.7905 80.2606 38.9169 80.2606C39.0063 80.2606 39.0803 80.2591 39.1388 80.256C39.1974 80.2498 39.2529 80.2421 39.3053 80.2329V81.3472C39.1727 81.3903 39.034 81.4227 38.8892 81.4442C38.7443 81.4689 38.5902 81.4812 38.4268 81.4812C38.0939 81.4812 37.8088 81.4288 37.5715 81.324C37.3372 81.2192 37.1584 81.0543 37.0351 80.8293C36.9118 80.6043 36.8502 80.3115 36.8502 79.9509V75.1424Z" fill="#3C3C3C"/>
<path d="M34.262 33.1543V36.1503H26.095V33.1543H34.262ZM27.4821 19.9939V36.1503H23.5872V19.9939H27.4821Z" fill="#3C3C3C"/>
<circle cx="28.7034" cy="28.4068" r="26.8918" stroke="#99CEFF" stroke-width="3.03006"/>
</svg>
