<svg width="58" height="84" viewBox="0 0 58 84" fill="none" xmlns="http://www.w3.org/2000/svg">
<path d="M25.2736 71.6629V72.3888H21.7089V71.6629H25.2736ZM21.8892 65.6569V72.3888H20.9969V65.6569H21.8892ZM24.802 68.5513V69.2771H21.7089V68.5513H24.802ZM25.2274 65.6569V66.3875H21.7089V65.6569H25.2274ZM26.3786 65.6569H28.6072C29.1127 65.6569 29.5396 65.734 29.8879 65.8881C30.2393 66.0422 30.5059 66.2703 30.6877 66.5724C30.8727 66.8714 30.9652 67.2397 30.9652 67.6774C30.9652 67.9856 30.902 68.2677 30.7756 68.5235C30.6523 68.7763 30.4735 68.992 30.2393 69.1708C30.0081 69.3465 29.7307 69.4775 29.407 69.5638L29.1574 69.6609H27.0629L27.0537 68.935H28.6349C28.9555 68.935 29.2221 68.8795 29.4348 68.7686C29.6475 68.6545 29.8077 68.5019 29.9156 68.3108C30.0235 68.1197 30.0774 67.9086 30.0774 67.6774C30.0774 67.4185 30.0266 67.1919 29.9249 66.9978C29.8232 66.8036 29.6629 66.6541 29.444 66.5493C29.2283 66.4414 28.9493 66.3875 28.6072 66.3875H27.271V72.3888H26.3786V65.6569ZM30.3132 72.3888L28.6765 69.3373L29.6058 69.3326L31.2657 72.3333V72.3888H30.3132ZM34.6963 69.7487H32.8978V69.0229H34.6963C35.0446 69.0229 35.3267 68.9674 35.5424 68.8564C35.7582 68.7454 35.9154 68.5913 36.014 68.3941C36.1157 68.1968 36.1666 67.9718 36.1666 67.719C36.1666 67.4878 36.1157 67.2705 36.014 67.0671C35.9154 66.8637 35.7582 66.7003 35.5424 66.577C35.3267 66.4506 35.0446 66.3875 34.6963 66.3875H33.1058V72.3888H32.2135V65.6569H34.6963C35.2049 65.6569 35.6349 65.7448 35.9863 65.9205C36.3377 66.0962 36.6043 66.3397 36.7861 66.651C36.968 66.9592 37.0589 67.3122 37.0589 67.7098C37.0589 68.1413 36.968 68.5096 36.7861 68.8148C36.6043 69.1199 36.3377 69.3527 35.9863 69.5129C35.6349 69.6701 35.2049 69.7487 34.6963 69.7487ZM11.1719 74.6569H12.4943L13.9969 79.3406L15.4995 74.6569H16.8219L14.5332 81.3888H13.4606L11.1719 74.6569ZM10.3674 74.6569H11.736L11.9903 79.8168V81.3888H10.3674V74.6569ZM16.2578 74.6569H17.631V81.3888H16.0035V79.8168L16.2578 74.6569ZM21.1957 80.1312V78.0691C21.1957 77.9273 21.1757 77.8055 21.1356 77.7038C21.0955 77.6021 21.0323 77.5235 20.946 77.468C20.8597 77.4095 20.7441 77.3802 20.5993 77.3802C20.4821 77.3802 20.382 77.4002 20.2987 77.4403C20.2155 77.4804 20.1523 77.5405 20.1092 77.6206C20.066 77.7007 20.0444 77.8025 20.0444 77.9258H18.4863C18.4863 77.6946 18.5372 77.4804 18.6389 77.2831C18.7437 77.0827 18.8916 76.9086 19.0828 76.7606C19.2769 76.6127 19.5081 76.4986 19.7763 76.4185C20.0475 76.3353 20.3496 76.2937 20.6825 76.2937C21.0801 76.2937 21.4346 76.3599 21.7459 76.4925C22.0603 76.625 22.3084 76.8238 22.4903 77.0889C22.6721 77.3509 22.7631 77.6807 22.7631 78.0783V80.1265C22.7631 80.4533 22.7816 80.7014 22.8185 80.8709C22.8555 81.0374 22.9079 81.1838 22.9757 81.3102V81.3888H21.413C21.339 81.2346 21.2835 81.0466 21.2466 80.8247C21.2126 80.5997 21.1957 80.3685 21.1957 80.1312ZM21.3853 78.3326L21.3945 79.1649H20.7056C20.5607 79.1649 20.4374 79.1849 20.3357 79.225C20.2371 79.265 20.1569 79.3205 20.0953 79.3914C20.0367 79.4592 19.9936 79.5363 19.9658 79.6226C19.9412 79.7089 19.9289 79.7998 19.9289 79.8954C19.9289 79.9878 19.9504 80.0711 19.9936 80.145C20.0398 80.2159 20.1015 80.2714 20.1785 80.3115C20.2556 80.3516 20.3419 80.3716 20.4374 80.3716C20.61 80.3716 20.7565 80.3392 20.8767 80.2745C21 80.2067 21.094 80.125 21.1587 80.0295C21.2234 79.9339 21.2558 79.8445 21.2558 79.7613L21.5979 80.3993C21.5363 80.5226 21.4654 80.6475 21.3853 80.7738C21.3082 80.9002 21.2111 81.0173 21.094 81.1252C20.9799 81.23 20.8397 81.3163 20.6732 81.3841C20.5068 81.4489 20.3049 81.4812 20.0676 81.4812C19.7593 81.4812 19.4757 81.418 19.2168 81.2917C18.961 81.1653 18.756 80.9896 18.6019 80.7646C18.4478 80.5365 18.3707 80.2745 18.3707 79.9786C18.3707 79.7197 18.417 79.4885 18.5094 79.2851C18.605 79.0816 18.7483 78.909 18.9394 78.7672C19.1305 78.6254 19.374 78.5176 19.6699 78.4436C19.9658 78.3696 20.3141 78.3326 20.7148 78.3326H21.3853ZM25.158 77.4542V81.3888H23.5999V76.3861H25.0609L25.158 77.4542ZM24.9731 78.7164L24.6078 78.7256C24.6078 78.3434 24.6541 78.0028 24.7465 77.7038C24.839 77.4018 24.97 77.1459 25.1395 76.9363C25.3091 76.7267 25.511 76.568 25.7452 76.4601C25.9826 76.3491 26.2461 76.2937 26.5358 76.2937C26.767 76.2937 26.9782 76.3276 27.1693 76.3954C27.3634 76.4632 27.5299 76.5726 27.6686 76.7236C27.8104 76.8747 27.9183 77.075 27.9922 77.3247C28.0693 77.5713 28.1078 77.8764 28.1078 78.2402V81.3888H26.5405V78.2355C26.5405 78.0352 26.5127 77.8826 26.4572 77.7778C26.4018 77.6699 26.3216 77.5959 26.2168 77.5559C26.112 77.5158 25.9841 77.4958 25.8331 77.4958C25.6728 77.4958 25.5372 77.5266 25.4262 77.5882C25.3152 77.6499 25.2258 77.7362 25.158 77.8472C25.0933 77.955 25.0455 78.083 25.0147 78.2309C24.987 78.3789 24.9731 78.5407 24.9731 78.7164ZM31.5708 80.1312V78.0691C31.5708 77.9273 31.5508 77.8055 31.5107 77.7038C31.4707 77.6021 31.4075 77.5235 31.3212 77.468C31.2349 77.4095 31.1193 77.3802 30.9744 77.3802C30.8573 77.3802 30.7571 77.4002 30.6739 77.4403C30.5907 77.4804 30.5275 77.5405 30.4843 77.6206C30.4412 77.7007 30.4196 77.8025 30.4196 77.9258H28.8615C28.8615 77.6946 28.9123 77.4804 29.014 77.2831C29.1188 77.0827 29.2668 76.9086 29.4579 76.7606C29.6521 76.6127 29.8833 76.4986 30.1514 76.4185C30.4227 76.3353 30.7247 76.2937 31.0576 76.2937C31.4552 76.2937 31.8097 76.3599 32.121 76.4925C32.4354 76.625 32.6836 76.8238 32.8654 77.0889C33.0473 77.3509 33.1382 77.6807 33.1382 78.0783V80.1265C33.1382 80.4533 33.1567 80.7014 33.1937 80.8709C33.2307 81.0374 33.2831 81.1838 33.3509 81.3102V81.3888H31.7881C31.7142 81.2346 31.6587 81.0466 31.6217 80.8247C31.5878 80.5997 31.5708 80.3685 31.5708 80.1312ZM31.7604 78.3326L31.7696 79.1649H31.0807C30.9359 79.1649 30.8126 79.1849 30.7109 79.225C30.6122 79.265 30.5321 79.3205 30.4704 79.3914C30.4119 79.4592 30.3687 79.5363 30.341 79.6226C30.3163 79.7089 30.304 79.7998 30.304 79.8954C30.304 79.9878 30.3256 80.0711 30.3687 80.145C30.415 80.2159 30.4766 80.2714 30.5537 80.3115C30.6307 80.3516 30.717 80.3716 30.8126 80.3716C30.9852 80.3716 31.1316 80.3392 31.2518 80.2745C31.3751 80.2067 31.4691 80.125 31.5338 80.0295C31.5986 79.9339 31.6309 79.8445 31.6309 79.7613L31.9731 80.3993C31.9114 80.5226 31.8405 80.6475 31.7604 80.7738C31.6833 80.9002 31.5862 81.0173 31.4691 81.1252C31.3551 81.23 31.2148 81.3163 31.0484 81.3841C30.8819 81.4489 30.68 81.4812 30.4427 81.4812C30.1345 81.4812 29.8509 81.418 29.592 81.2917C29.3361 81.1653 29.1312 80.9896 28.9771 80.7646C28.8229 80.5365 28.7459 80.2745 28.7459 79.9786C28.7459 79.7197 28.7921 79.4885 28.8846 79.2851C28.9801 79.0816 29.1235 78.909 29.3146 78.7672C29.5057 78.6254 29.7492 78.5176 30.0451 78.4436C30.341 78.3696 30.6893 78.3326 31.09 78.3326H31.7604ZM37.1468 76.3861H38.5616V81.1946C38.5616 81.6569 38.4552 82.0484 38.2426 82.3689C38.0299 82.6926 37.7324 82.9376 37.3502 83.1041C36.9711 83.2736 36.5272 83.3584 36.0186 83.3584C35.7936 83.3584 35.564 83.3291 35.3297 83.2705C35.0955 83.215 34.8766 83.1318 34.6732 83.0209C34.4698 82.9099 34.2987 82.7727 34.16 82.6094L34.8119 81.6939C34.9383 81.8357 35.097 81.9559 35.2881 82.0545C35.4792 82.1563 35.7042 82.2071 35.9632 82.2071C36.1882 82.2071 36.3762 82.1671 36.5272 82.0869C36.6813 82.0068 36.7985 81.8896 36.8786 81.7355C36.9588 81.5845 36.9988 81.4011 36.9988 81.1853V77.5697L37.1468 76.3861ZM33.8225 78.9476V78.8505C33.8225 78.4713 33.8687 78.1261 33.9612 77.8148C34.0567 77.5004 34.1924 77.2307 34.3681 77.0057C34.5468 76.7776 34.7626 76.6019 35.0153 76.4786C35.2681 76.3553 35.5532 76.2937 35.8707 76.2937C36.2128 76.2937 36.4933 76.3599 36.7122 76.4925C36.9341 76.6219 37.1113 76.8038 37.2439 77.038C37.3795 77.2723 37.4843 77.5466 37.5583 77.861C37.6353 78.1723 37.7001 78.5083 37.7525 78.869V78.9845C37.7001 79.3236 37.6276 79.6442 37.5352 79.9462C37.4458 80.2452 37.3286 80.5103 37.1838 80.7415C37.0389 80.9726 36.857 81.1545 36.6382 81.287C36.4224 81.4165 36.1635 81.4812 35.8614 81.4812C35.547 81.4812 35.2635 81.418 35.0107 81.2917C34.7611 81.1653 34.5468 80.9881 34.3681 80.76C34.1924 80.5319 34.0567 80.2637 33.9612 79.9555C33.8687 79.6472 33.8225 79.3113 33.8225 78.9476ZM35.3806 78.8505V78.9476C35.3806 79.1356 35.3976 79.3097 35.4315 79.47C35.4685 79.6303 35.5239 79.7721 35.5979 79.8954C35.6719 80.0156 35.7628 80.1096 35.8707 80.1774C35.9817 80.2452 36.1111 80.2791 36.2591 80.2791C36.4841 80.2791 36.6659 80.2313 36.8046 80.1358C36.9433 80.0402 37.0435 79.9046 37.1052 79.7289C37.1668 79.5532 37.193 79.3467 37.1838 79.1094V78.7441C37.1899 78.5407 37.1761 78.3619 37.1422 78.2078C37.1083 78.0506 37.0543 77.9196 36.9803 77.8148C36.9094 77.71 36.8139 77.6314 36.6937 77.579C36.5765 77.5235 36.4348 77.4958 36.2683 77.4958C36.1234 77.4958 35.9955 77.5297 35.8846 77.5975C35.7736 77.6653 35.6811 77.7609 35.6072 77.8841C35.5332 78.0044 35.4762 78.1477 35.4361 78.3141C35.3991 78.4775 35.3806 78.6563 35.3806 78.8505ZM41.8813 81.4812C41.4744 81.4812 41.1107 81.418 40.7901 81.2917C40.4695 81.1622 40.1983 80.985 39.9764 80.76C39.7575 80.535 39.5895 80.276 39.4724 79.9832C39.3584 79.6904 39.3013 79.3806 39.3013 79.0539V78.8782C39.3013 78.5114 39.3522 78.1723 39.4539 77.861C39.5556 77.5466 39.7067 77.2723 39.907 77.038C40.1074 76.8038 40.3586 76.6219 40.6606 76.4925C40.9627 76.3599 41.3141 76.2937 41.7148 76.2937C42.0693 76.2937 42.3868 76.3507 42.6672 76.4647C42.9477 76.5788 43.1851 76.7421 43.3793 76.9548C43.5765 77.1675 43.726 77.4249 43.8277 77.7269C43.9325 78.029 43.9849 78.3681 43.9849 78.7441V79.3775H39.8978V78.402H42.4638V78.2818C42.4669 78.1153 42.4376 77.9735 42.376 77.8564C42.3174 77.7393 42.2311 77.6499 42.1171 77.5882C42.003 77.5266 41.8643 77.4958 41.7009 77.4958C41.5314 77.4958 41.3912 77.5328 41.2802 77.6067C41.1723 77.6807 41.0875 77.7824 41.0259 77.9119C40.9673 78.0383 40.9257 78.1847 40.9011 78.3511C40.8764 78.5176 40.8641 78.6933 40.8641 78.8782V79.0539C40.8641 79.2388 40.8887 79.4068 40.9381 79.5579C40.9905 79.7089 41.0644 79.8383 41.16 79.9462C41.2586 80.051 41.3757 80.1327 41.5114 80.1913C41.6501 80.2498 41.8073 80.2791 41.983 80.2791C42.1956 80.2791 42.4052 80.2391 42.6118 80.1589C42.8183 80.0788 42.9955 79.9462 43.1435 79.7613L43.8509 80.6028C43.7491 80.7476 43.6043 80.8879 43.4163 81.0235C43.2313 81.1591 43.0094 81.2701 42.7505 81.3564C42.4916 81.4396 42.2018 81.4812 41.8813 81.4812ZM46.1904 77.6252V81.3888H44.6322V76.3861H46.0886L46.1904 77.6252ZM47.6699 76.3491L47.6421 77.7963C47.5805 77.7901 47.4973 77.7824 47.3925 77.7732C47.2877 77.7639 47.1998 77.7593 47.1289 77.7593C46.9471 77.7593 46.7899 77.7809 46.6573 77.824C46.5279 77.8641 46.42 77.9258 46.3337 78.009C46.2505 78.0891 46.1888 78.1908 46.1487 78.3141C46.1118 78.4374 46.0948 78.5808 46.0979 78.7441L45.8159 78.5592C45.8159 78.2232 45.8482 77.9181 45.9129 77.6437C45.9808 77.3663 46.0763 77.1274 46.1996 76.9271C46.3229 76.7236 46.4724 76.568 46.6481 76.4601C46.8238 76.3491 47.021 76.2937 47.2399 76.2937C47.317 76.2937 47.3925 76.2983 47.4664 76.3075C47.5435 76.3168 47.6113 76.3306 47.6699 76.3491Z" fill="#3C3C3C"/>
<path d="M22.0085 19.9939H25.1821L28.7884 31.2346L32.3948 19.9939H35.5683L30.0756 36.1503H27.5013L22.0085 19.9939ZM20.0778 19.9939H23.3623L23.9726 32.3775V36.1503H20.0778V19.9939ZM34.2146 19.9939H37.5102V36.1503H33.6043V32.3775L34.2146 19.9939Z" fill="#3C3C3C"/>
<circle cx="29" cy="28.4068" r="26.8918" stroke="#CAB0FF" stroke-width="3.03006"/>
</svg>
