<svg width="58" height="84" viewBox="0 0 58 84" fill="none" xmlns="http://www.w3.org/2000/svg">
<path d="M16.2816 70.6873C16.2816 70.5301 16.257 70.3914 16.2076 70.2712C16.1614 70.1479 16.0782 70.0369 15.958 69.9383C15.8408 69.8397 15.6775 69.7457 15.4679 69.6563C15.2614 69.5669 14.9994 69.476 14.6819 69.3835C14.349 69.2849 14.0485 69.1754 13.7803 69.0552C13.5121 68.9319 13.2825 68.7917 13.0914 68.6345C12.9003 68.4773 12.7539 68.297 12.6522 68.0935C12.5504 67.8901 12.4996 67.6574 12.4996 67.3954C12.4996 67.1334 12.5535 66.8914 12.6614 66.6695C12.7693 66.4476 12.9234 66.2549 13.1238 66.0916C13.3272 65.9251 13.5692 65.7956 13.8496 65.7032C14.1301 65.6107 14.443 65.5645 14.7882 65.5645C15.2937 65.5645 15.7222 65.6616 16.0736 65.8558C16.428 66.0469 16.6977 66.2981 16.8827 66.6094C17.0676 66.9176 17.1601 67.2474 17.1601 67.5988H16.2724C16.2724 67.3461 16.2184 67.1226 16.1105 66.9284C16.0027 66.7311 15.8393 66.577 15.6205 66.4661C15.4016 66.352 15.1242 66.295 14.7882 66.295C14.4707 66.295 14.2087 66.3428 14.0022 66.4383C13.7957 66.5339 13.6416 66.6633 13.5399 66.8267C13.4412 66.9901 13.3919 67.1765 13.3919 67.3861C13.3919 67.5279 13.4212 67.6574 13.4798 67.7745C13.5414 67.8886 13.6354 67.9949 13.7618 68.0935C13.8913 68.1922 14.0546 68.2831 14.2519 68.3663C14.4522 68.4495 14.6911 68.5297 14.9685 68.6067C15.3507 68.7146 15.6806 68.8348 15.958 68.9674C16.2354 69.0999 16.4635 69.2494 16.6422 69.4159C16.8241 69.5792 16.9582 69.7657 17.0445 69.9753C17.1339 70.1818 17.1786 70.4161 17.1786 70.6781C17.1786 70.9524 17.1231 71.2005 17.0121 71.4225C16.9012 71.6444 16.7424 71.8339 16.5359 71.9911C16.3294 72.1483 16.0813 72.2701 15.7915 72.3564C15.5049 72.4396 15.1843 72.4812 14.8298 72.4812C14.5185 72.4812 14.2118 72.4381 13.9098 72.3518C13.6108 72.2655 13.338 72.136 13.0914 71.9634C12.8479 71.7908 12.6522 71.5781 12.5042 71.3254C12.3593 71.0695 12.2869 70.7736 12.2869 70.4376H13.1746C13.1746 70.6688 13.2193 70.8676 13.3087 71.0341C13.3981 71.1974 13.5198 71.3331 13.674 71.4409C13.8312 71.5488 14.0084 71.629 14.2057 71.6814C14.406 71.7307 14.6141 71.7553 14.8298 71.7553C15.1411 71.7553 15.4047 71.7122 15.6205 71.6259C15.8362 71.5396 15.9996 71.4163 16.1105 71.256C16.2246 71.0957 16.2816 70.9062 16.2816 70.6873ZM19.1158 67.3861V72.3888H18.2558V67.3861H19.1158ZM18.1911 66.0592C18.1911 65.9205 18.2327 65.8034 18.316 65.7078C18.4023 65.6122 18.5286 65.5645 18.6951 65.5645C18.8584 65.5645 18.9833 65.6122 19.0696 65.7078C19.159 65.8034 19.2037 65.9205 19.2037 66.0592C19.2037 66.1917 19.159 66.3058 19.0696 66.4013C18.9833 66.4938 18.8584 66.54 18.6951 66.54C18.5286 66.54 18.4023 66.4938 18.316 66.4013C18.2327 66.3058 18.1911 66.1917 18.1911 66.0592ZM23.4018 71.0618C23.4018 70.9385 23.3741 70.8245 23.3186 70.7197C23.2662 70.6118 23.1568 70.5147 22.9903 70.4284C22.827 70.339 22.5804 70.262 22.2506 70.1972C21.9731 70.1387 21.7219 70.0693 21.4969 69.9892C21.275 69.909 21.0854 69.8119 20.9282 69.6979C20.7741 69.5838 20.6554 69.4498 20.5722 69.2956C20.489 69.1415 20.4474 68.9612 20.4474 68.7547C20.4474 68.5574 20.4905 68.3709 20.5768 68.1952C20.6662 68.0196 20.7911 67.8639 20.9514 67.7283C21.1147 67.5926 21.3104 67.4863 21.5385 67.4092C21.7666 67.3322 22.0209 67.2937 22.3014 67.2937C22.7021 67.2937 23.0443 67.3646 23.3278 67.5063C23.6114 67.6481 23.8287 67.8377 23.9797 68.075C24.1308 68.3093 24.2063 68.5697 24.2063 68.8564H23.351C23.351 68.7177 23.3093 68.5836 23.2261 68.4542C23.146 68.3216 23.0273 68.2122 22.8701 68.1259C22.716 68.0396 22.5264 67.9964 22.3014 67.9964C22.0641 67.9964 21.8714 68.0334 21.7235 68.1074C21.5786 68.1783 21.4723 68.2692 21.4045 68.3802C21.3397 68.4911 21.3074 68.6083 21.3074 68.7316C21.3074 68.824 21.3228 68.9073 21.3536 68.9812C21.3875 69.0521 21.4461 69.1184 21.5293 69.1801C21.6125 69.2386 21.7296 69.2941 21.8807 69.3465C22.0317 69.3989 22.2244 69.4513 22.4586 69.5037C22.8686 69.5962 23.2061 69.7071 23.4712 69.8366C23.7362 69.966 23.9335 70.1248 24.063 70.3128C24.1924 70.5008 24.2572 70.7289 24.2572 70.9971C24.2572 71.2159 24.2109 71.4163 24.1185 71.5981C24.0291 71.78 23.8981 71.9372 23.7255 72.0697C23.5559 72.1992 23.3525 72.3009 23.1152 72.3749C22.8809 72.4458 22.6174 72.4812 22.3245 72.4812C21.8838 72.4812 21.5108 72.4026 21.2056 72.2454C20.9005 72.0882 20.6693 71.8848 20.5121 71.6351C20.3549 71.3855 20.2763 71.1219 20.2763 70.8445H21.1363C21.1486 71.0788 21.2164 71.2653 21.3397 71.404C21.463 71.5396 21.6141 71.6367 21.7928 71.6952C21.9716 71.7507 22.1488 71.7785 22.3245 71.7785C22.5588 71.7785 22.7545 71.7476 22.9117 71.686C23.072 71.6243 23.1938 71.5396 23.277 71.4317C23.3602 71.3238 23.4018 71.2005 23.4018 71.0618ZM27.4751 67.3861V68.0427H24.7704V67.3861H27.4751ZM25.6858 66.1702H26.5412V71.1497C26.5412 71.3192 26.5674 71.4471 26.6198 71.5334C26.6722 71.6197 26.74 71.6767 26.8232 71.7045C26.9064 71.7322 26.9958 71.7461 27.0914 71.7461C27.1623 71.7461 27.2362 71.7399 27.3133 71.7276C27.3934 71.7122 27.4535 71.6999 27.4936 71.6906L27.4982 72.3888C27.4304 72.4103 27.341 72.4304 27.2301 72.4489C27.1222 72.4704 26.9912 72.4812 26.8371 72.4812C26.6275 72.4812 26.4348 72.4396 26.2591 72.3564C26.0834 72.2732 25.9432 72.1345 25.8384 71.9403C25.7367 71.743 25.6858 71.4779 25.6858 71.145V66.1702ZM30.5544 72.4812C30.2061 72.4812 29.8901 72.4227 29.6066 72.3055C29.3261 72.1853 29.0841 72.0173 28.8807 71.8016C28.6803 71.5858 28.5262 71.33 28.4183 71.0341C28.3104 70.7382 28.2565 70.4145 28.2565 70.0631V69.869C28.2565 69.4621 28.3166 69.0999 28.4368 68.7824C28.557 68.4619 28.7204 68.1906 28.9269 67.9687C29.1334 67.7468 29.3677 67.5788 29.6297 67.4647C29.8917 67.3507 30.1629 67.2937 30.4434 67.2937C30.801 67.2937 31.1092 67.3553 31.3681 67.4786C31.6301 67.6019 31.8443 67.7745 32.0108 67.9964C32.1772 68.2153 32.3005 68.4742 32.3807 68.7732C32.4608 69.0691 32.5009 69.3927 32.5009 69.7441V70.1279H28.7651V69.4297H31.6455V69.365C31.6332 69.1431 31.587 68.9273 31.5068 68.7177C31.4298 68.5081 31.3065 68.3355 31.1369 68.1999C30.9674 68.0642 30.7362 67.9964 30.4434 67.9964C30.2492 67.9964 30.0704 68.038 29.9071 68.1213C29.7437 68.2014 29.6035 68.3216 29.4863 68.4819C29.3692 68.6422 29.2783 68.8379 29.2136 69.0691C29.1488 69.3003 29.1165 69.5669 29.1165 69.869V70.0631C29.1165 70.3005 29.1488 70.524 29.2136 70.7335C29.2814 70.9401 29.3785 71.1219 29.5048 71.2791C29.6343 71.4363 29.79 71.5596 29.9718 71.649C30.1567 71.7384 30.3663 71.7831 30.6006 71.7831C30.9027 71.7831 31.1585 71.7214 31.3681 71.5981C31.5777 71.4749 31.7611 71.3099 31.9183 71.1034L32.4361 71.5149C32.3283 71.6783 32.1911 71.8339 32.0246 71.9819C31.8582 72.1298 31.6532 72.2501 31.4097 72.3425C31.1693 72.435 30.8842 72.4812 30.5544 72.4812ZM34.3503 68.3802V72.3888H33.4903V67.3861H34.304L34.3503 68.3802ZM34.1746 69.6979L33.777 69.684C33.78 69.3419 33.8247 69.0259 33.911 68.7362C33.9973 68.4434 34.1253 68.1891 34.2948 67.9733C34.4643 67.7576 34.6755 67.5911 34.9282 67.474C35.181 67.3538 35.4738 67.2937 35.8067 67.2937C36.0409 67.2937 36.2567 67.3276 36.454 67.3954C36.6512 67.4601 36.8223 67.5634 36.9672 67.7052C37.112 67.8469 37.2245 68.0288 37.3047 68.2507C37.3848 68.4727 37.4249 68.7408 37.4249 69.0552V72.3888H36.5696V69.0968C36.5696 68.8348 36.5249 68.6252 36.4355 68.468C36.3492 68.3108 36.2259 68.1968 36.0656 68.1259C35.9053 68.0519 35.7173 68.0149 35.5015 68.0149C35.2488 68.0149 35.0376 68.0596 34.8681 68.149C34.6986 68.2384 34.5629 68.3617 34.4612 68.5189C34.3595 68.6761 34.2855 68.8564 34.2393 69.0598C34.1962 69.2602 34.1746 69.4729 34.1746 69.6979ZM37.4157 69.2263L36.8423 69.402C36.8454 69.1277 36.8901 68.8641 36.9764 68.6114C37.0658 68.3586 37.1937 68.1336 37.3602 67.9363C37.5297 67.7391 37.7378 67.5834 37.9843 67.4694C38.2309 67.3522 38.513 67.2937 38.8304 67.2937C39.0986 67.2937 39.3359 67.3291 39.5425 67.4C39.7521 67.4709 39.9278 67.5803 40.0695 67.7283C40.2144 67.8731 40.3238 68.0596 40.3978 68.2877C40.4718 68.5158 40.5088 68.7871 40.5088 69.1015V72.3888H39.6488V69.0922C39.6488 68.8117 39.6041 68.5944 39.5147 68.4403C39.4284 68.2831 39.3051 68.1737 39.1448 68.112C38.9876 68.0473 38.7996 68.0149 38.5808 68.0149C38.3928 68.0149 38.2263 68.0473 38.0814 68.112C37.9366 68.1768 37.8148 68.2661 37.7162 68.3802C37.6175 68.4911 37.542 68.6191 37.4896 68.7639C37.4403 68.9088 37.4157 69.0629 37.4157 69.2263ZM44.7532 71.5334V68.9581C44.7532 68.7609 44.7131 68.5898 44.6329 68.4449C44.5559 68.297 44.4388 68.1829 44.2816 68.1028C44.1244 68.0226 43.9302 67.9826 43.699 67.9826C43.4832 67.9826 43.2937 68.0196 43.1303 68.0935C42.97 68.1675 42.8436 68.2646 42.7512 68.3848C42.6618 68.505 42.6171 68.6345 42.6171 68.7732H41.7617C41.7617 68.5944 41.808 68.4172 41.9005 68.2415C41.9929 68.0658 42.1255 67.907 42.2981 67.7653C42.4738 67.6204 42.6834 67.5063 42.9269 67.4231C43.1735 67.3368 43.4478 67.2937 43.7499 67.2937C44.1136 67.2937 44.4341 67.3553 44.7115 67.4786C44.992 67.6019 45.2109 67.7884 45.3681 68.038C45.5284 68.2846 45.6085 68.5944 45.6085 68.9674V71.2976C45.6085 71.4641 45.6224 71.6413 45.6501 71.8293C45.6809 72.0173 45.7256 72.1792 45.7842 72.3148V72.3888H44.8919C44.8487 72.2901 44.8148 72.1591 44.7901 71.9958C44.7655 71.8293 44.7532 71.6752 44.7532 71.5334ZM44.9011 69.3557L44.9104 69.9568H44.0458C43.8023 69.9568 43.5849 69.9768 43.3938 70.0169C43.2027 70.0539 43.0425 70.1109 42.913 70.188C42.7835 70.265 42.6849 70.3621 42.6171 70.4793C42.5493 70.5933 42.5154 70.7274 42.5154 70.8815C42.5154 71.0387 42.5508 71.182 42.6217 71.3115C42.6926 71.4409 42.799 71.5442 42.9407 71.6213C43.0856 71.6952 43.2628 71.7322 43.4724 71.7322C43.7344 71.7322 43.9656 71.6767 44.166 71.5658C44.3663 71.4548 44.5251 71.3192 44.6422 71.1589C44.7624 70.9986 44.8271 70.843 44.8364 70.6919L45.2016 71.1034C45.1801 71.2329 45.1215 71.3762 45.0259 71.5334C44.9304 71.6906 44.8025 71.8416 44.6422 71.9865C44.485 72.1283 44.297 72.247 44.0781 72.3425C43.8624 72.435 43.6189 72.4812 43.3476 72.4812C43.0086 72.4812 42.7111 72.415 42.4553 72.2824C42.2025 72.1499 42.0053 71.9726 41.8635 71.7507C41.7248 71.5257 41.6554 71.2745 41.6554 70.9971C41.6554 70.7289 41.7078 70.4931 41.8126 70.2897C41.9174 70.0832 42.0684 69.9121 42.2657 69.7765C42.463 69.6378 42.7003 69.533 42.9777 69.4621C43.2551 69.3912 43.5649 69.3557 43.9071 69.3557H44.9011ZM20.563 74.6569V81.3888H18.9401V74.6569H20.563ZM22.5881 74.6569V75.9099H16.9613V74.6569H22.5881ZM24.4698 77.6252V81.3888H22.9117V76.3861H24.3681L24.4698 77.6252ZM25.9494 76.3491L25.9216 77.7963C25.86 77.7901 25.7767 77.7824 25.6719 77.7732C25.5672 77.7639 25.4793 77.7593 25.4084 77.7593C25.2266 77.7593 25.0694 77.7809 24.9368 77.824C24.8074 77.8641 24.6995 77.9258 24.6132 78.009C24.5299 78.0891 24.4683 78.1908 24.4282 78.3141C24.3912 78.4374 24.3743 78.5808 24.3774 78.7441L24.0953 78.5592C24.0953 78.2232 24.1277 77.9181 24.1924 77.6437C24.2602 77.3663 24.3558 77.1274 24.4791 76.9271C24.6024 76.7236 24.7519 76.568 24.9276 76.4601C25.1033 76.3491 25.3005 76.2937 25.5194 76.2937C25.5964 76.2937 25.6719 76.2983 25.7459 76.3075C25.823 76.3168 25.8908 76.3306 25.9494 76.3491ZM28.9454 80.1312V78.0691C28.9454 77.9273 28.9254 77.8055 28.8853 77.7038C28.8452 77.6021 28.782 77.5235 28.6957 77.468C28.6094 77.4095 28.4938 77.3802 28.349 77.3802C28.2318 77.3802 28.1317 77.4002 28.0484 77.4403C27.9652 77.4804 27.902 77.5405 27.8589 77.6206C27.8157 77.7007 27.7941 77.8025 27.7941 77.9258H26.236C26.236 77.6946 26.2869 77.4804 26.3886 77.2831C26.4934 77.0827 26.6413 76.9086 26.8325 76.7606C27.0266 76.6127 27.2578 76.4986 27.526 76.4185C27.7972 76.3353 28.0993 76.2937 28.4322 76.2937C28.8298 76.2937 29.1843 76.3599 29.4956 76.4925C29.81 76.625 30.0581 76.8238 30.24 77.0889C30.4218 77.3509 30.5128 77.6807 30.5128 78.0783V80.1265C30.5128 80.4533 30.5313 80.7014 30.5682 80.8709C30.6052 81.0374 30.6576 81.1838 30.7254 81.3102V81.3888H29.1627C29.0887 81.2346 29.0332 81.0466 28.9963 80.8247C28.9623 80.5997 28.9454 80.3685 28.9454 80.1312ZM29.135 78.3326L29.1442 79.1649H28.4553C28.3104 79.1649 28.1871 79.1849 28.0854 79.225C27.9868 79.265 27.9066 79.3205 27.845 79.3914C27.7864 79.4592 27.7433 79.5363 27.7155 79.6226C27.6909 79.7089 27.6786 79.7998 27.6786 79.8954C27.6786 79.9878 27.7001 80.0711 27.7433 80.145C27.7895 80.2159 27.8512 80.2714 27.9282 80.3115C28.0053 80.3516 28.0916 80.3716 28.1871 80.3716C28.3597 80.3716 28.5062 80.3392 28.6264 80.2745C28.7497 80.2067 28.8437 80.125 28.9084 80.0295C28.9731 79.9339 29.0055 79.8445 29.0055 79.7613L29.3476 80.3993C29.286 80.5226 29.2151 80.6475 29.135 80.7738C29.0579 80.9002 28.9608 81.0173 28.8437 81.1252C28.7296 81.23 28.5894 81.3163 28.4229 81.3841C28.2565 81.4489 28.0546 81.4812 27.8173 81.4812C27.509 81.4812 27.2254 81.418 26.9665 81.2917C26.7107 81.1653 26.5057 80.9896 26.3516 80.7646C26.1975 80.5365 26.1204 80.2745 26.1204 79.9786C26.1204 79.7197 26.1667 79.4885 26.2591 79.2851C26.3547 79.0816 26.498 78.909 26.6891 78.7672C26.8802 78.6254 27.1237 78.5176 27.4196 78.4436C27.7155 78.3696 28.0638 78.3326 28.4645 78.3326H29.135ZM34.2532 80.2421V74.2871H35.8205V81.3888H34.415L34.2532 80.2421ZM31.1832 78.9476V78.8505C31.1832 78.4713 31.2248 78.1261 31.308 77.8148C31.3912 77.5004 31.5145 77.2307 31.6779 77.0057C31.8412 76.7776 32.0447 76.6019 32.2882 76.4786C32.5317 76.3553 32.8122 76.2937 33.1297 76.2937C33.4132 76.2937 33.6614 76.3599 33.874 76.4925C34.0867 76.6219 34.2686 76.8038 34.4196 77.038C34.5707 77.2723 34.6939 77.5466 34.7895 77.861C34.8851 78.1723 34.9575 78.5083 35.0068 78.869V78.9845C34.9575 79.3236 34.8851 79.6442 34.7895 79.9462C34.6939 80.2452 34.5707 80.5103 34.4196 80.7415C34.2686 80.9726 34.0852 81.1545 33.8694 81.287C33.6567 81.4165 33.4071 81.4812 33.1204 81.4812C32.8029 81.4812 32.5224 81.418 32.2789 81.2917C32.0385 81.1653 31.8366 80.9881 31.6733 80.76C31.513 80.5319 31.3912 80.2637 31.308 79.9555C31.2248 79.6472 31.1832 79.3113 31.1832 78.9476ZM32.7413 78.8505V78.9476C32.7413 79.1356 32.7536 79.3097 32.7783 79.47C32.8029 79.6303 32.8445 79.7721 32.9031 79.8954C32.9648 80.0156 33.0449 80.1096 33.1435 80.1774C33.2453 80.2452 33.3701 80.2791 33.518 80.2791C33.7184 80.2791 33.8833 80.2313 34.0128 80.1358C34.1453 80.0402 34.2424 79.9046 34.304 79.7289C34.3688 79.5532 34.3965 79.3467 34.3873 79.1094V78.7441C34.3934 78.5407 34.3796 78.3619 34.3456 78.2078C34.3117 78.0506 34.2578 77.9196 34.1838 77.8148C34.1129 77.71 34.022 77.6314 33.911 77.579C33.8032 77.5235 33.6752 77.4958 33.5273 77.4958C33.3824 77.4958 33.2591 77.5297 33.1574 77.5975C33.0588 77.6653 32.9786 77.7609 32.917 77.8841C32.8553 78.0044 32.8106 78.1477 32.7829 78.3141C32.7552 78.4775 32.7413 78.6563 32.7413 78.8505ZM39.1263 81.4812C38.7195 81.4812 38.3558 81.418 38.0352 81.2917C37.7146 81.1622 37.4434 80.985 37.2215 80.76C37.0026 80.535 36.8346 80.276 36.7175 79.9832C36.6035 79.6904 36.5464 79.3806 36.5464 79.0539V78.8782C36.5464 78.5114 36.5973 78.1723 36.699 77.861C36.8007 77.5466 36.9518 77.2723 37.1521 77.038C37.3525 76.8038 37.6037 76.6219 37.9057 76.4925C38.2078 76.3599 38.5592 76.2937 38.9599 76.2937C39.3144 76.2937 39.6319 76.3507 39.9123 76.4647C40.1928 76.5788 40.4302 76.7421 40.6244 76.9548C40.8216 77.1675 40.9711 77.4249 41.0728 77.7269C41.1776 78.029 41.23 78.3681 41.23 78.7441V79.3775H37.1429V78.402H39.7089V78.2818C39.712 78.1153 39.6827 77.9735 39.6211 77.8564C39.5625 77.7393 39.4762 77.6499 39.3621 77.5882C39.2481 77.5266 39.1094 77.4958 38.946 77.4958C38.7765 77.4958 38.6363 77.5328 38.5253 77.6067C38.4174 77.6807 38.3326 77.7824 38.271 77.9119C38.2124 78.0383 38.1708 78.1847 38.1462 78.3511C38.1215 78.5176 38.1092 78.6933 38.1092 78.8782V79.0539C38.1092 79.2388 38.1338 79.4068 38.1832 79.5579C38.2356 79.7089 38.3095 79.8383 38.4051 79.9462C38.5037 80.051 38.6208 80.1327 38.7565 80.1913C38.8952 80.2498 39.0524 80.2791 39.2281 80.2791C39.4407 80.2791 39.6503 80.2391 39.8569 80.1589C40.0634 80.0788 40.2406 79.9462 40.3886 79.7613L41.096 80.6028C40.9942 80.7476 40.8494 80.8879 40.6614 81.0235C40.4764 81.1591 40.2545 81.2701 39.9956 81.3564C39.7367 81.4396 39.4469 81.4812 39.1263 81.4812Z" fill="#3C3C3C"/>
<path d="M31.183 19.9939V36.1503H27.2881V19.9939H31.183ZM36.0432 19.9939V23.0011H22.5389V19.9939H36.0432Z" fill="#3C3C3C"/>
<circle cx="29.2966" cy="28.4068" r="26.8918" stroke="#FFB6B6" stroke-width="3.03006"/>
</svg>
