<svg width="57" height="84" viewBox="0 0 57 84" fill="none" xmlns="http://www.w3.org/2000/svg">
<path d="M15.1744 70.2986C15.1744 70.1414 15.1497 70.0026 15.1004 69.8824C15.0542 69.7591 14.971 69.6482 14.8508 69.5495C14.7336 69.4509 14.5703 69.3569 14.3607 69.2675C14.1541 69.1781 13.8921 69.0872 13.5747 68.9947C13.2418 68.8961 12.9412 68.7867 12.6731 68.6665C12.4049 68.5432 12.1753 68.4029 11.9842 68.2457C11.7931 68.0885 11.6467 67.9082 11.5449 67.7048C11.4432 67.5013 11.3924 67.2686 11.3924 67.0066C11.3924 66.7446 11.4463 66.5027 11.5542 66.2807C11.6621 66.0588 11.8162 65.8662 12.0165 65.7028C12.22 65.5363 12.4619 65.4069 12.7424 65.3144C13.0229 65.2219 13.3358 65.1757 13.681 65.1757C14.1865 65.1757 14.615 65.2728 14.9663 65.467C15.3208 65.6581 15.5905 65.9093 15.7755 66.2206C15.9604 66.5289 16.0529 66.8587 16.0529 67.21H15.1652C15.1652 66.9573 15.1112 66.7338 15.0033 66.5396C14.8954 66.3424 14.7321 66.1883 14.5132 66.0773C14.2944 65.9632 14.017 65.9062 13.681 65.9062C13.3635 65.9062 13.1015 65.954 12.895 66.0495C12.6885 66.1451 12.5344 66.2746 12.4327 66.4379C12.334 66.6013 12.2847 66.7878 12.2847 66.9974C12.2847 67.1392 12.314 67.2686 12.3726 67.3857C12.4342 67.4998 12.5282 67.6061 12.6546 67.7048C12.784 67.8034 12.9474 67.8943 13.1447 67.9776C13.345 68.0608 13.5839 68.1409 13.8613 68.218C14.2435 68.3259 14.5733 68.4461 14.8508 68.5786C15.1282 68.7111 15.3563 68.8606 15.535 69.0271C15.7169 69.1905 15.851 69.3769 15.9373 69.5865C16.0267 69.793 16.0714 70.0273 16.0714 70.2893C16.0714 70.5636 16.0159 70.8118 15.9049 71.0337C15.7939 71.2556 15.6352 71.4452 15.4287 71.6024C15.2222 71.7596 14.974 71.8813 14.6843 71.9676C14.3977 72.0509 14.0771 72.0925 13.7226 72.0925C13.4113 72.0925 13.1046 72.0493 12.8025 71.963C12.5036 71.8767 12.2308 71.7472 11.9842 71.5746C11.7407 71.402 11.5449 71.1893 11.397 70.9366C11.2521 70.6808 11.1797 70.3849 11.1797 70.0489H12.0674C12.0674 70.2801 12.1121 70.4789 12.2015 70.6453C12.2909 70.8087 12.4126 70.9443 12.5667 71.0522C12.7239 71.1601 12.9012 71.2402 13.0984 71.2926C13.2988 71.3419 13.5069 71.3666 13.7226 71.3666C14.0339 71.3666 14.2975 71.3234 14.5132 71.2371C14.729 71.1508 14.8924 71.0275 15.0033 70.8672C15.1174 70.707 15.1744 70.5174 15.1744 70.2986ZM18.0086 66.9974V72H17.1486V66.9974H18.0086ZM17.0839 65.6704C17.0839 65.5317 17.1255 65.4146 17.2087 65.319C17.295 65.2235 17.4214 65.1757 17.5879 65.1757C17.7512 65.1757 17.8761 65.2235 17.9624 65.319C18.0518 65.4146 18.0965 65.5317 18.0965 65.6704C18.0965 65.803 18.0518 65.917 17.9624 66.0126C17.8761 66.105 17.7512 66.1513 17.5879 66.1513C17.4214 66.1513 17.295 66.105 17.2087 66.0126C17.1255 65.917 17.0839 65.803 17.0839 65.6704ZM22.2946 70.6731C22.2946 70.5498 22.2669 70.4357 22.2114 70.3309C22.159 70.223 22.0495 70.1259 21.8831 70.0396C21.7197 69.9502 21.4732 69.8732 21.1433 69.8085C20.8659 69.7499 20.6147 69.6805 20.3897 69.6004C20.1678 69.5203 19.9782 69.4232 19.821 69.3091C19.6669 69.1951 19.5482 69.061 19.465 68.9069C19.3818 68.7528 19.3402 68.5724 19.3402 68.3659C19.3402 68.1687 19.3833 67.9822 19.4696 67.8065C19.559 67.6308 19.6839 67.4751 19.8441 67.3395C20.0075 67.2039 20.2032 67.0975 20.4313 67.0205C20.6594 66.9434 20.9137 66.9049 21.1942 66.9049C21.5949 66.9049 21.937 66.9758 22.2206 67.1176C22.5042 67.2594 22.7215 67.4489 22.8725 67.6863C23.0236 67.9205 23.0991 68.181 23.0991 68.4676H22.2437C22.2437 68.3289 22.2021 68.1949 22.1189 68.0654C22.0388 67.9329 21.9201 67.8234 21.7629 67.7371C21.6088 67.6508 21.4192 67.6077 21.1942 67.6077C20.9569 67.6077 20.7642 67.6447 20.6163 67.7186C20.4714 67.7895 20.3651 67.8805 20.2972 67.9914C20.2325 68.1024 20.2001 68.2195 20.2001 68.3428C20.2001 68.4353 20.2156 68.5185 20.2464 68.5925C20.2803 68.6634 20.3389 68.7296 20.4221 68.7913C20.5053 68.8499 20.6224 68.9053 20.7735 68.9577C20.9245 69.0101 21.1171 69.0625 21.3514 69.1149C21.7614 69.2074 22.0989 69.3184 22.3639 69.4478C22.629 69.5773 22.8263 69.736 22.9558 69.924C23.0852 70.1121 23.1499 70.3402 23.1499 70.6083C23.1499 70.8272 23.1037 71.0275 23.0112 71.2094C22.9219 71.3912 22.7909 71.5484 22.6182 71.681C22.4487 71.8104 22.2453 71.9122 22.0079 71.9861C21.7737 72.057 21.5101 72.0925 21.2173 72.0925C20.7765 72.0925 20.4036 72.0139 20.0984 71.8567C19.7933 71.6995 19.5621 71.496 19.4049 71.2464C19.2477 70.9967 19.1691 70.7332 19.1691 70.4557H20.0291C20.0414 70.69 20.1092 70.8765 20.2325 71.0152C20.3558 71.1508 20.5068 71.2479 20.6856 71.3065C20.8644 71.362 21.0416 71.3897 21.2173 71.3897C21.4516 71.3897 21.6473 71.3589 21.8045 71.2972C21.9648 71.2356 22.0865 71.1508 22.1698 71.0429C22.253 70.9351 22.2946 70.8118 22.2946 70.6731ZM26.3679 66.9974V67.6539H23.6632V66.9974H26.3679ZM24.5786 65.7814H25.434V70.7609C25.434 70.9304 25.4602 71.0583 25.5126 71.1447C25.565 71.231 25.6328 71.288 25.716 71.3157C25.7992 71.3435 25.8886 71.3573 25.9842 71.3573C26.055 71.3573 26.129 71.3512 26.2061 71.3388C26.2862 71.3234 26.3463 71.3111 26.3864 71.3019L26.391 72C26.3232 72.0216 26.2338 72.0416 26.1229 72.0601C26.015 72.0817 25.884 72.0925 25.7299 72.0925C25.5203 72.0925 25.3276 72.0509 25.1519 71.9676C24.9762 71.8844 24.836 71.7457 24.7312 71.5515C24.6295 71.3543 24.5786 71.0892 24.5786 70.7563V65.7814ZM29.4472 72.0925C29.0989 72.0925 28.7829 72.0339 28.4993 71.9168C28.2188 71.7966 27.9769 71.6286 27.7734 71.4128C27.5731 71.1971 27.419 70.9412 27.3111 70.6453C27.2032 70.3494 27.1493 70.0258 27.1493 69.6744V69.4802C27.1493 69.0733 27.2094 68.7111 27.3296 68.3937C27.4498 68.0731 27.6132 67.8019 27.8197 67.5799C28.0262 67.358 28.2605 67.19 28.5225 67.076C28.7845 66.9619 29.0557 66.9049 29.3362 66.9049C29.6937 66.9049 30.002 66.9665 30.2609 67.0898C30.5229 67.2131 30.7371 67.3857 30.9036 67.6077C31.07 67.8265 31.1933 68.0854 31.2734 68.3844C31.3536 68.6803 31.3937 69.004 31.3937 69.3554V69.7391H27.6579V69.041H30.5383V68.9762C30.526 68.7543 30.4797 68.5385 30.3996 68.3289C30.3225 68.1193 30.1992 67.9467 30.0297 67.8111C29.8602 67.6755 29.629 67.6077 29.3362 67.6077C29.142 67.6077 28.9632 67.6493 28.7999 67.7325C28.6365 67.8126 28.4963 67.9329 28.3791 68.0931C28.262 68.2534 28.1711 68.4491 28.1063 68.6803C28.0416 68.9115 28.0092 69.1781 28.0092 69.4802V69.6744C28.0092 69.9117 28.0416 70.1352 28.1063 70.3448C28.1742 70.5513 28.2712 70.7332 28.3976 70.8904C28.5271 71.0476 28.6827 71.1709 28.8646 71.2602C29.0495 71.3496 29.2591 71.3943 29.4934 71.3943C29.7955 71.3943 30.0513 71.3327 30.2609 71.2094C30.4705 71.0861 30.6539 70.9212 30.8111 70.7147L31.3289 71.1262C31.221 71.2895 31.0839 71.4452 30.9174 71.5931C30.751 71.7411 30.546 71.8613 30.3025 71.9538C30.0621 72.0462 29.777 72.0925 29.4472 72.0925ZM33.2431 67.9914V72H32.3831V66.9974H33.1968L33.2431 67.9914ZM33.0674 69.3091L32.6697 69.2952C32.6728 68.9531 32.7175 68.6372 32.8038 68.3474C32.8901 68.0546 33.018 67.8003 33.1876 67.5846C33.3571 67.3688 33.5682 67.2023 33.821 67.0852C34.0737 66.965 34.3666 66.9049 34.6995 66.9049C34.9337 66.9049 35.1495 66.9388 35.3467 67.0066C35.544 67.0713 35.7151 67.1746 35.86 67.3164C36.0048 67.4582 36.1173 67.64 36.1975 67.862C36.2776 68.0839 36.3177 68.3521 36.3177 68.6665V72H35.4623V68.7081C35.4623 68.4461 35.4176 68.2365 35.3283 68.0793C35.2419 67.9221 35.1187 67.808 34.9584 67.7371C34.7981 67.6632 34.6101 67.6262 34.3943 67.6262C34.1416 67.6262 33.9304 67.6709 33.7609 67.7602C33.5914 67.8496 33.4557 67.9729 33.354 68.1301C33.2523 68.2873 33.1783 68.4676 33.1321 68.6711C33.0889 68.8714 33.0674 69.0841 33.0674 69.3091ZM36.3084 68.8375L35.7351 69.0132C35.7382 68.7389 35.7829 68.4753 35.8692 68.2226C35.9586 67.9698 36.0865 67.7448 36.253 67.5476C36.4225 67.3503 36.6305 67.1946 36.8771 67.0806C37.1237 66.9635 37.4057 66.9049 37.7232 66.9049C37.9914 66.9049 38.2287 66.9403 38.4352 67.0112C38.6448 67.0821 38.8205 67.1916 38.9623 67.3395C39.1072 67.4844 39.2166 67.6709 39.2906 67.899C39.3646 68.127 39.4016 68.3983 39.4016 68.7127V72H38.5416V68.7034C38.5416 68.4229 38.4969 68.2056 38.4075 68.0515C38.3212 67.8943 38.1979 67.7849 38.0376 67.7233C37.8804 67.6585 37.6924 67.6262 37.4736 67.6262C37.2855 67.6262 37.1191 67.6585 36.9742 67.7233C36.8294 67.788 36.7076 67.8774 36.609 67.9914C36.5103 68.1024 36.4348 68.2303 36.3824 68.3752C36.3331 68.52 36.3084 68.6742 36.3084 68.8375ZM43.6459 71.1447V68.5694C43.6459 68.3721 43.6059 68.201 43.5257 68.0562C43.4487 67.9082 43.3315 67.7942 43.1743 67.714C43.0171 67.6339 42.823 67.5938 42.5918 67.5938C42.376 67.5938 42.1865 67.6308 42.0231 67.7048C41.8628 67.7787 41.7364 67.8758 41.644 67.996C41.5546 68.1163 41.5099 68.2457 41.5099 68.3844H40.6545C40.6545 68.2056 40.7008 68.0284 40.7932 67.8527C40.8857 67.677 41.0182 67.5183 41.1909 67.3765C41.3666 67.2316 41.5762 67.1176 41.8197 67.0344C42.0662 66.9481 42.3406 66.9049 42.6426 66.9049C43.0064 66.9049 43.3269 66.9665 43.6043 67.0898C43.8848 67.2131 44.1037 67.3996 44.2609 67.6493C44.4211 67.8959 44.5013 68.2056 44.5013 68.5786V70.9089C44.5013 71.0753 44.5152 71.2525 44.5429 71.4406C44.5737 71.6286 44.6184 71.7904 44.677 71.926V72H43.7846C43.7415 71.9014 43.7076 71.7704 43.6829 71.607C43.6583 71.4406 43.6459 71.2864 43.6459 71.1447ZM43.7939 68.967L43.8031 69.568H42.9385C42.695 69.568 42.4777 69.5881 42.2866 69.6281C42.0955 69.6651 41.9352 69.7222 41.8058 69.7992C41.6763 69.8763 41.5777 69.9734 41.5099 70.0905C41.4421 70.2045 41.4082 70.3386 41.4082 70.4927C41.4082 70.6499 41.4436 70.7933 41.5145 70.9227C41.5854 71.0522 41.6917 71.1554 41.8335 71.2325C41.9784 71.3065 42.1556 71.3435 42.3652 71.3435C42.6272 71.3435 42.8584 71.288 43.0588 71.177C43.2591 71.0661 43.4178 70.9304 43.535 70.7701C43.6552 70.6099 43.7199 70.4542 43.7292 70.3032L44.0944 70.7147C44.0728 70.8441 44.0143 70.9875 43.9187 71.1447C43.8232 71.3019 43.6953 71.4529 43.535 71.5978C43.3778 71.7395 43.1898 71.8582 42.9709 71.9538C42.7551 72.0462 42.5116 72.0925 42.2404 72.0925C41.9013 72.0925 41.6039 72.0262 41.3481 71.8937C41.0953 71.7611 40.898 71.5839 40.7562 71.362C40.6175 71.1369 40.5482 70.8857 40.5482 70.6083C40.5482 70.3402 40.6006 70.1044 40.7054 69.9009C40.8102 69.6944 40.9612 69.5233 41.1585 69.3877C41.3558 69.249 41.5931 69.1442 41.8705 69.0733C42.1479 69.0024 42.4577 68.967 42.7998 68.967H43.7939ZM14.3329 79.7517V81H10.7451V79.7517H14.3329ZM11.323 74.2682V81H9.70017V74.2682H11.323ZM13.8706 76.9406V78.1473H10.7451V76.9406H13.8706ZM14.3468 74.2682V75.5211H10.7451V74.2682H14.3468ZM18.827 78.7206H20.4452C20.4236 79.1891 20.2972 79.6022 20.0661 79.9597C19.8349 80.3173 19.5143 80.5962 19.1044 80.7966C18.6975 80.9938 18.2167 81.0925 17.6618 81.0925C17.2118 81.0925 16.8096 81.017 16.4551 80.8659C16.1037 80.7149 15.8047 80.4976 15.5581 80.214C15.3146 79.9304 15.1282 79.5867 14.9987 79.183C14.8723 78.7792 14.8091 78.3245 14.8091 77.819V77.4538C14.8091 76.9483 14.8754 76.4936 15.008 76.0898C15.1436 75.683 15.3347 75.3377 15.5813 75.0542C15.8309 74.7675 16.1299 74.5487 16.4782 74.3976C16.8265 74.2466 17.2134 74.1711 17.6387 74.1711C18.2244 74.1711 18.7191 74.2759 19.1229 74.4855C19.5267 74.6951 19.8395 74.9833 20.0614 75.3501C20.2834 75.7138 20.4144 76.1284 20.4544 76.5938H18.8362C18.83 76.341 18.7869 76.1299 18.7068 75.9604C18.6266 75.7878 18.5002 75.6583 18.3276 75.572C18.155 75.4857 17.9254 75.4425 17.6387 75.4425C17.4384 75.4425 17.2642 75.4795 17.1163 75.5535C16.9683 75.6275 16.845 75.7446 16.7464 75.9049C16.6478 76.0652 16.5738 76.2732 16.5245 76.5291C16.4782 76.7818 16.4551 77.087 16.4551 77.4445V77.819C16.4551 78.1766 16.4767 78.4817 16.5198 78.7345C16.563 78.9872 16.6323 79.1938 16.7279 79.354C16.8234 79.5143 16.9467 79.633 17.0978 79.71C17.2519 79.784 17.4399 79.821 17.6618 79.821C17.9084 79.821 18.1165 79.7825 18.286 79.7054C18.4555 79.6253 18.5865 79.5051 18.679 79.3448C18.7715 79.1814 18.8208 78.9734 18.827 78.7206ZM22.8355 74.2682V81H21.2127V74.2682H22.8355ZM25.4524 77.07V78.3184H22.3732V77.07H25.4524ZM25.716 74.2682V75.5211H22.3732V74.2682H25.716ZM30.3025 80.3897L31.6433 74.2682H32.4432L32.8778 74.7906L31.4491 81H30.566L30.3025 80.3897ZM29.9465 74.2682L31.0793 80.4359L30.788 81H29.7662L28.3375 74.2682H29.9465ZM33.6129 80.4036L34.7364 74.2682H36.3408L34.9121 81H33.895L33.6129 80.4036ZM33.0211 74.2682L34.3943 80.4267L34.1169 81H33.2338L31.7728 74.7814L32.2259 74.2682H33.0211ZM39.1796 81.0925C38.7728 81.0925 38.409 81.0293 38.0885 80.9029C37.7679 80.7734 37.4967 80.5962 37.2747 80.3712C37.0559 80.1462 36.8879 79.8873 36.7708 79.5945C36.6567 79.3016 36.5997 78.9919 36.5997 78.6651V78.4894C36.5997 78.1226 36.6506 77.7836 36.7523 77.4723C36.854 77.1579 37.005 76.8835 37.2054 76.6493C37.4057 76.415 37.657 76.2332 37.959 76.1037C38.2611 75.9712 38.6125 75.9049 39.0132 75.9049C39.3677 75.9049 39.6851 75.9619 39.9656 76.076C40.2461 76.19 40.4835 76.3534 40.6776 76.5661C40.8749 76.7787 41.0244 77.0361 41.1261 77.3382C41.2309 77.6403 41.2833 77.9793 41.2833 78.3554V78.9888H37.1961V78.0132H39.7622V77.893C39.7653 77.7266 39.736 77.5848 39.6743 77.4676C39.6158 77.3505 39.5295 77.2611 39.4154 77.1995C39.3014 77.1378 39.1627 77.107 38.9993 77.107C38.8298 77.107 38.6895 77.144 38.5786 77.218C38.4707 77.2919 38.3859 77.3937 38.3243 77.5231C38.2657 77.6495 38.2241 77.7959 38.1994 77.9624C38.1748 78.1288 38.1625 78.3045 38.1625 78.4894V78.6651C38.1625 78.8501 38.1871 79.0181 38.2364 79.1691C38.2888 79.3201 38.3628 79.4496 38.4584 79.5575C38.557 79.6623 38.6741 79.7439 38.8098 79.8025C38.9485 79.8611 39.1057 79.8904 39.2813 79.8904C39.494 79.8904 39.7036 79.8503 39.9101 79.7701C40.1167 79.69 40.2939 79.5575 40.4418 79.3725L41.1492 80.214C41.0475 80.3589 40.9027 80.4991 40.7146 80.6347C40.5297 80.7704 40.3078 80.8813 40.0489 80.9676C39.7899 81.0509 39.5002 81.0925 39.1796 81.0925ZM41.9306 73.8983H43.4887V79.7701L43.3269 81H41.9306V73.8983ZM46.5587 78.4432V78.5403C46.5587 78.9194 46.5202 79.2646 46.4432 79.576C46.3661 79.8873 46.2474 80.157 46.0872 80.3851C45.9269 80.6101 45.725 80.7842 45.4815 80.9075C45.238 81.0308 44.9498 81.0925 44.6169 81.0925C44.3148 81.0925 44.0559 81.0277 43.8401 80.8983C43.6244 80.7657 43.444 80.5839 43.2992 80.3527C43.1543 80.1185 43.0372 79.8487 42.9478 79.5436C42.8584 79.2354 42.7875 78.9056 42.7351 78.5542V78.4386C42.7875 78.0903 42.8584 77.7635 42.9478 77.4584C43.0372 77.1502 43.1543 76.8805 43.2992 76.6493C43.444 76.415 43.6228 76.2332 43.8355 76.1037C44.0513 75.9712 44.3086 75.9049 44.6076 75.9049C44.9436 75.9049 45.2333 75.9681 45.4768 76.0945C45.7234 76.2208 45.9269 76.3981 46.0872 76.6262C46.2474 76.8543 46.3661 77.1224 46.4432 77.4307C46.5202 77.7389 46.5587 78.0764 46.5587 78.4432ZM45.0006 78.5403V78.4432C45.0006 78.2613 44.9898 78.0903 44.9683 77.93C44.9467 77.7697 44.9082 77.6279 44.8527 77.5046C44.7972 77.3813 44.7186 77.2842 44.6169 77.2133C44.5152 77.1425 44.3826 77.107 44.2193 77.107C44.0528 77.107 43.9126 77.1348 43.7985 77.1902C43.6876 77.2457 43.5982 77.3259 43.5304 77.4307C43.4656 77.5324 43.4194 77.6587 43.3916 77.8098C43.3639 77.9577 43.3516 78.1257 43.3547 78.3137V78.679C43.3485 78.9348 43.3716 79.1537 43.424 79.3355C43.4764 79.5174 43.5673 79.6561 43.6968 79.7517C43.8263 79.8472 44.0035 79.895 44.2285 79.895C44.3949 79.895 44.529 79.8626 44.6307 79.7979C44.7355 79.7332 44.8141 79.6407 44.8665 79.5205C44.9189 79.4003 44.9544 79.2569 44.9729 79.0905C44.9914 78.924 45.0006 78.7406 45.0006 78.5403Z" fill="#3C3C3C"/>
<path d="M23.3017 34.6856L26.5197 19.9939H28.4394L29.4824 21.2478L26.0536 36.1503H23.9342L23.3017 34.6856ZM22.4473 19.9939L25.1659 34.7965L24.4669 36.1503H22.0145L18.5858 19.9939H22.4473ZM31.2468 34.7189L33.9432 19.9939H37.7936L34.3649 36.1503H31.9236L31.2468 34.7189ZM29.8264 19.9939L33.1221 34.7743L32.4563 36.1503H30.3369L26.8304 21.2256L27.9178 19.9939H29.8264Z" fill="#3C3C3C"/>
<circle cx="28.4068" cy="28.4068" r="26.8918" stroke="#FF6862" stroke-width="3.03006"/>
</svg>
