<svg width="20" height="16" viewBox="0 0 20 16" fill="none" xmlns="http://www.w3.org/2000/svg">
<g clip-path="url(#clip0_7_53)">
<path d="M1.47893 0.213722L8.39571 8.05837C8.58941 8.27938 8.82808 8.45646 9.09574 8.57779C9.36341 8.69911 9.65389 8.76187 9.94777 8.76187C10.2416 8.76187 10.5321 8.69911 10.7998 8.57779C11.0675 8.45646 11.3061 8.27938 11.4998 8.05837L18.2929 0.348678C18.3494 0.287284 18.416 0.235949 18.4897 0.196853C18.1931 0.0687335 17.8737 0.00178751 17.5506 3.05176e-05H2.36743C2.05874 0.00162018 1.75324 0.0627225 1.46769 0.179983L1.47893 0.213722Z" fill="#A5A5A5"/>
<path d="M19.5357 1.13034C19.5039 1.21248 19.4582 1.28856 19.4007 1.35527L12.6076 9.06494C12.2742 9.44124 11.8647 9.74251 11.4061 9.94883C10.9476 10.1552 10.4506 10.2618 9.94777 10.2618C9.44498 10.2618 8.9479 10.1552 8.48939 9.94883C8.03088 9.74251 7.62136 9.44124 7.2879 9.06494L0.376748 1.22032L0.337385 1.16971C0.116344 1.53423 -0.000365569 1.95243 -1.83008e-05 2.37874V12.9957C-2.0082e-05 13.6181 0.246854 14.2152 0.686457 14.6558C1.12606 15.0965 1.7225 15.3448 2.34494 15.3463H17.5281C18.1505 15.3448 18.747 15.0965 19.1866 14.6558C19.6262 14.2152 19.8731 13.6181 19.8731 12.9957V2.35063C19.8743 1.92066 19.7576 1.49859 19.5357 1.13034V1.13034Z" fill="#A5A5A5"/>
</g>
<defs>
<clipPath id="clip0_7_53">
<rect width="19.8956" height="15.3125" fill="white"/>
</clipPath>
</defs>
</svg>
