<svg width="20" height="20" viewBox="0 0 20 20" fill="none" xmlns="http://www.w3.org/2000/svg">
<g clip-path="url(#clip0_7_41)">
<path d="M15.2113 3.54837C14.98 3.54837 14.7538 3.61697 14.5615 3.74549C14.3691 3.87402 14.2192 4.05669 14.1307 4.27042C14.0421 4.48415 14.019 4.71934 14.0641 4.94623C14.1092 5.17312 14.2206 5.38153 14.3842 5.54512C14.5478 5.7087 14.7562 5.8201 14.9831 5.86523C15.21 5.91036 15.4452 5.88719 15.6589 5.79866C15.8726 5.71013 16.0553 5.56022 16.1838 5.36787C16.3124 5.17551 16.381 4.94938 16.381 4.71804C16.381 4.40782 16.2577 4.11032 16.0384 3.89096C15.819 3.67161 15.5215 3.54837 15.2113 3.54837V3.54837Z" fill="#A5A5A5"/>
<path d="M10.0265 5.0498C9.05645 5.04981 8.10816 5.33754 7.30165 5.87661C6.49513 6.41567 5.86664 7.18184 5.49567 8.07818C5.12469 8.97452 5.02791 9.96076 5.21757 10.9121C5.40723 11.8635 5.87481 12.7372 6.56116 13.4228C7.2475 14.1083 8.12177 14.5749 9.07334 14.7635C10.0249 14.952 11.011 14.8541 11.907 14.4821C12.8029 14.1101 13.5683 13.4807 14.1065 12.6736C14.6446 11.8665 14.9312 10.9179 14.9301 9.94779C14.9286 8.64825 14.4114 7.40243 13.4919 6.48405C12.5725 5.56566 11.3261 5.0498 10.0265 5.0498V5.0498ZM10.0265 13.0913C9.40457 13.0924 8.79627 12.909 8.27859 12.5642C7.76091 12.2195 7.35712 11.7289 7.11833 11.1546C6.87955 10.5803 6.81649 9.94812 6.93714 9.33798C7.0578 8.72783 7.35675 8.16719 7.79615 7.727C8.23555 7.28682 8.79566 6.98687 9.40558 6.86512C10.0155 6.74337 10.6478 6.8053 11.2226 7.04306C11.7973 7.28081 12.2886 7.68372 12.6342 8.20078C12.9799 8.71784 13.1644 9.32583 13.1644 9.94779C13.1666 10.3615 13.0871 10.7717 12.9305 11.1546C12.7739 11.5376 12.5432 11.8859 12.2517 12.1795C11.9601 12.4731 11.6135 12.7063 11.2317 12.8656C10.8498 13.025 10.4403 13.1074 10.0265 13.1081V13.0913Z" fill="#A5A5A5"/>
<path d="M13.9348 19.9012H5.97204C4.3881 19.8982 2.86996 19.2673 1.75046 18.1468C0.630971 17.0262 0.00148588 15.5075 0 13.9235V5.97767C0.00148588 4.39373 0.630971 2.87499 1.75046 1.75445C2.86996 0.633898 4.3881 0.00297665 5.97204 0H13.9348C15.5197 0.00148889 17.0393 0.631755 18.16 1.75246C19.2807 2.87317 19.911 4.39275 19.9124 5.97767V13.9235C19.911 15.5084 19.2807 17.028 18.16 18.1487C17.0393 19.2694 15.5197 19.8997 13.9348 19.9012ZM5.97204 1.86134C4.88422 1.86431 3.84181 2.29776 3.0726 3.06697C2.30339 3.83618 1.86994 4.8786 1.86697 5.96642V13.9123C1.86994 15.0001 2.30339 16.0425 3.0726 16.8117C3.84181 17.5809 4.88422 18.0144 5.97204 18.0174H13.9348C15.0226 18.0144 16.065 17.5809 16.8342 16.8117C17.6034 16.0425 18.0369 15.0001 18.0398 13.9123V5.97767C18.0399 4.8879 17.6077 3.84259 16.8382 3.07095C16.0687 2.29931 15.0245 1.86432 13.9348 1.86134H5.97204Z" fill="#A5A5A5"/>
</g>
<defs>
<clipPath id="clip0_7_41">
<rect width="19.8956" height="19.8956" fill="white"/>
</clipPath>
</defs>
</svg>
