<svg width="16" height="20" viewBox="0 0 16 20" fill="none" xmlns="http://www.w3.org/2000/svg">
<g clip-path="url(#clip0_7_56)">
<path d="M7.50725 4.91483C7.06237 4.91483 6.62747 5.04675 6.25757 5.29392C5.88766 5.54108 5.59936 5.89238 5.42911 6.30339C5.25886 6.71441 5.21432 7.16668 5.30111 7.60301C5.3879 8.03935 5.60213 8.44014 5.91671 8.75472C6.23129 9.0693 6.63209 9.28352 7.06842 9.37031C7.50475 9.4571 7.95702 9.41257 8.36804 9.24232C8.77906 9.07208 9.13035 8.78377 9.37752 8.41387C9.62468 8.04396 9.75661 7.60906 9.75661 7.16418C9.75661 6.56762 9.51962 5.99548 9.09778 5.57365C8.67594 5.15181 8.10382 4.91483 7.50725 4.91483Z" fill="#A5A5A5"/>
<path d="M7.50724 0C5.51619 0 3.6067 0.790939 2.19882 2.19882C0.790939 3.6067 0 5.51618 0 7.50722C0 11.0443 5.46032 17.4381 7.06861 19.2489C7.1213 19.3145 7.18807 19.3676 7.26398 19.404C7.3399 19.4404 7.42303 19.4593 7.50724 19.4593C7.59144 19.4593 7.67456 19.4404 7.75048 19.404C7.8264 19.3676 7.89317 19.3145 7.94586 19.2489C9.55415 17.4381 15.0145 11.0443 15.0145 7.50722C15.0145 5.51618 14.2235 3.6067 12.8156 2.19882C11.4078 0.790939 9.49828 0 7.50724 0ZM7.50724 10.8588C6.77318 10.8588 6.05561 10.6411 5.44527 10.2333C4.83493 9.82546 4.35922 9.24581 4.07831 8.56763C3.7974 7.88945 3.7239 7.14321 3.86711 6.42326C4.01031 5.70331 4.36379 5.042 4.88284 4.52295C5.4019 4.00389 6.06322 3.65042 6.78317 3.50721C7.50312 3.364 8.24937 3.4375 8.92754 3.71841C9.60572 3.99932 10.1854 4.47501 10.5932 5.08536C11.001 5.6957 11.2187 6.41328 11.2187 7.14733C11.2172 8.13121 10.8257 9.07436 10.13 9.77007C9.43426 10.4658 8.49111 10.8573 7.50724 10.8588V10.8588Z" fill="#A5A5A5"/>
</g>
<defs>
<clipPath id="clip0_7_56">
<rect width="15.0145" height="19.4457" fill="white"/>
</clipPath>
</defs>
</svg>
