<svg width="20" height="20" viewBox="0 0 20 20" fill="none" xmlns="http://www.w3.org/2000/svg">
<g clip-path="url(#clip0_7_45)">
<path d="M1.52588e-05 19.8956L1.42835 14.5815C0.276423 12.5092 -0.0895528 10.091 0.397573 7.77059C0.884698 5.45022 2.19225 3.38335 4.08029 1.94924C5.96833 0.515127 8.31022 -0.190039 10.6762 -0.0368324C13.0422 0.116374 15.2736 1.11766 16.9609 2.78329C18.6482 4.44892 19.6783 6.66717 19.8621 9.03098C20.0459 11.3948 19.3712 13.7456 17.9616 15.652C16.552 17.5585 14.5022 18.8927 12.1884 19.4098C9.87451 19.9269 7.45176 19.5922 5.36472 18.4672L1.52588e-05 19.8956ZM5.62341 16.4709L5.95519 16.6677C7.63202 17.6688 9.61721 18.0216 11.5363 17.6596C13.4554 17.2977 15.1756 16.2459 16.3726 14.7028C17.5695 13.1597 18.1604 11.2319 18.0338 9.28313C17.9071 7.33433 17.0717 5.49925 15.6851 4.12405C14.2985 2.74885 12.4565 1.92862 10.5067 1.81807C8.55697 1.70753 6.63415 2.31432 5.10099 3.52399C3.56783 4.73365 2.53033 6.46255 2.18423 8.38455C1.83813 10.3065 2.20734 12.2888 3.22221 13.9573L3.43027 14.3003L2.63176 17.2694L5.62341 16.4709Z" fill="#A5A5A5"/>
<path fill-rule="evenodd" clip-rule="evenodd" d="M13.6761 11.2074C13.4814 11.0509 13.2537 10.9407 13.0101 10.8852C12.7665 10.8297 12.5135 10.8302 12.2702 10.8869C11.9047 11.0387 11.6686 11.6067 11.4324 11.8991C11.3816 11.9683 11.3074 12.0167 11.2236 12.0353C11.1399 12.0539 11.0522 12.0415 10.9769 12.0003C9.63939 11.4774 8.51914 10.5158 7.79966 9.27296C7.738 9.19546 7.70881 9.09705 7.71825 8.99845C7.72769 8.89986 7.77502 8.80876 7.85027 8.74436C8.11369 8.48359 8.3071 8.1606 8.41261 7.80527C8.43604 7.41332 8.34625 7.02291 8.15394 6.68059C8.00527 6.20066 7.72232 5.77332 7.33854 5.44906C7.13972 5.35692 6.91832 5.32485 6.70153 5.35682C6.48474 5.38879 6.28203 5.48338 6.11827 5.629C5.83661 5.87045 5.61299 6.17229 5.46403 6.51206C5.31508 6.85184 5.2446 7.22082 5.25787 7.59157C5.25874 7.80021 5.28519 8.00795 5.33661 8.21015C5.46719 8.69596 5.668 9.16009 5.93269 9.58787C6.12366 9.91556 6.33203 10.2328 6.55689 10.5382C7.28768 11.5414 8.20629 12.3932 9.26175 13.0463C9.79138 13.3781 10.3574 13.648 10.9488 13.8504C11.563 14.1289 12.2412 14.2357 12.9113 14.1597C13.2931 14.1019 13.6549 13.9512 13.9648 13.7207C14.2746 13.4903 14.5231 13.1872 14.6883 12.8382C14.7854 12.6274 14.8149 12.3916 14.7727 12.1634C14.6827 11.6967 14.0529 11.4211 13.6761 11.2074Z" fill="#A5A5A5"/>
</g>
<defs>
<clipPath id="clip0_7_45">
<rect width="19.845" height="19.8956" fill="white"/>
</clipPath>
</defs>
</svg>
