<svg width="21" height="15" viewBox="0 0 21 15" fill="none" xmlns="http://www.w3.org/2000/svg">
<g clip-path="url(#clip0_7_51)">
<path d="M20.2161 4.43687C20.2161 3.26014 19.7486 2.13161 18.9166 1.29953C18.0845 0.467462 16.956 0 15.7792 0H4.43686C3.26013 0 2.1316 0.467462 1.29953 1.29953C0.467455 2.13161 -7.27177e-06 3.26014 -7.27177e-06 4.43687V9.71723C-7.27177e-06 10.894 0.467455 12.0225 1.29953 12.8546C2.1316 13.6866 3.26013 14.1541 4.43686 14.1541H15.7849C16.9616 14.1541 18.0901 13.6866 18.9222 12.8546C19.7543 12.0225 20.2217 10.894 20.2217 9.71723L20.2161 4.43687ZM13.5355 7.4735L8.47445 9.98716C8.27764 10.0996 7.59721 9.95342 7.59721 9.72848V4.56058C7.59721 4.33002 8.28326 4.18382 8.48008 4.30191L13.3499 6.95053C13.5355 7.06299 13.7548 7.36103 13.5355 7.4735Z" fill="#A5A5A5"/>
</g>
<defs>
<clipPath id="clip0_7_51">
<rect width="20.2161" height="14.1541" fill="white"/>
</clipPath>
</defs>
</svg>
